<mxfile host="app.diagrams.net" modified="2024-01-25T13:25:09.628Z" agent="Mozilla/5.0 (Windows NT 10.0; Win64; x64) AppleWebKit/537.36 (KHTML, like Gecko) Chrome/120.0.0.0 Safari/537.36" etag="YoSBJVMJ9TqmxPHpdp2v" version="23.0.1" type="github">
  <diagram id="C5RBs43oDa-KdzZeNtuy" name="Page-1">
    <mxGraphModel dx="683" dy="1540" grid="1" gridSize="10" guides="1" tooltips="1" connect="1" arrows="1" fold="1" page="1" pageScale="1" pageWidth="827" pageHeight="1169" math="0" shadow="0">
      <root>
        <mxCell id="WIyWlLk6GJQsqaUBKTNV-0" />
        <mxCell id="WIyWlLk6GJQsqaUBKTNV-1" parent="WIyWlLk6GJQsqaUBKTNV-0" />
        <mxCell id="WIyWlLk6GJQsqaUBKTNV-2" value="" style="rounded=0;html=1;jettySize=auto;orthogonalLoop=1;fontSize=11;endArrow=block;endFill=0;endSize=8;strokeWidth=1;shadow=0;labelBackgroundColor=none;edgeStyle=orthogonalEdgeStyle;" parent="WIyWlLk6GJQsqaUBKTNV-1" source="WIyWlLk6GJQsqaUBKTNV-3" target="WIyWlLk6GJQsqaUBKTNV-6" edge="1">
          <mxGeometry relative="1" as="geometry" />
        </mxCell>
        <mxCell id="WIyWlLk6GJQsqaUBKTNV-3" value="Login" style="rounded=1;whiteSpace=wrap;html=1;fontSize=12;glass=0;strokeWidth=1;shadow=0;" parent="WIyWlLk6GJQsqaUBKTNV-1" vertex="1">
          <mxGeometry x="160" y="20" width="120" height="100" as="geometry" />
        </mxCell>
        <mxCell id="WIyWlLk6GJQsqaUBKTNV-4" value="" style="rounded=0;html=1;jettySize=auto;orthogonalLoop=1;fontSize=11;endArrow=block;endFill=0;endSize=8;strokeWidth=1;shadow=0;labelBackgroundColor=none;edgeStyle=orthogonalEdgeStyle;" parent="WIyWlLk6GJQsqaUBKTNV-1" source="WIyWlLk6GJQsqaUBKTNV-6" edge="1">
          <mxGeometry y="20" relative="1" as="geometry">
            <mxPoint as="offset" />
            <mxPoint x="220" y="290" as="targetPoint" />
          </mxGeometry>
        </mxCell>
        <mxCell id="XFqM0QsjCBA94ZdpaxJI-10" value="Si" style="edgeLabel;html=1;align=center;verticalAlign=middle;resizable=0;points=[];" vertex="1" connectable="0" parent="WIyWlLk6GJQsqaUBKTNV-4">
          <mxGeometry x="-0.24" y="1" relative="1" as="geometry">
            <mxPoint as="offset" />
          </mxGeometry>
        </mxCell>
        <mxCell id="WIyWlLk6GJQsqaUBKTNV-5" value="" style="edgeStyle=orthogonalEdgeStyle;rounded=0;html=1;jettySize=auto;orthogonalLoop=1;fontSize=11;endArrow=block;endFill=0;endSize=8;strokeWidth=1;shadow=0;labelBackgroundColor=none;" parent="WIyWlLk6GJQsqaUBKTNV-1" source="WIyWlLk6GJQsqaUBKTNV-6" target="WIyWlLk6GJQsqaUBKTNV-7" edge="1">
          <mxGeometry y="10" relative="1" as="geometry">
            <mxPoint as="offset" />
          </mxGeometry>
        </mxCell>
        <mxCell id="XFqM0QsjCBA94ZdpaxJI-11" value="No" style="edgeLabel;html=1;align=center;verticalAlign=middle;resizable=0;points=[];" vertex="1" connectable="0" parent="WIyWlLk6GJQsqaUBKTNV-5">
          <mxGeometry x="-0.248" y="2" relative="1" as="geometry">
            <mxPoint as="offset" />
          </mxGeometry>
        </mxCell>
        <mxCell id="WIyWlLk6GJQsqaUBKTNV-6" value="&lt;font style=&quot;font-size: 10px;&quot;&gt;Credenciales correctas&lt;/font&gt;" style="rhombus;whiteSpace=wrap;html=1;shadow=0;fontFamily=Helvetica;fontSize=12;align=center;strokeWidth=1;spacing=6;spacingTop=-4;" parent="WIyWlLk6GJQsqaUBKTNV-1" vertex="1">
          <mxGeometry x="170" y="170" width="100" height="80" as="geometry" />
        </mxCell>
        <mxCell id="WIyWlLk6GJQsqaUBKTNV-7" value="Muestra mensaje de error" style="rounded=1;whiteSpace=wrap;html=1;fontSize=12;glass=0;strokeWidth=1;shadow=0;" parent="WIyWlLk6GJQsqaUBKTNV-1" vertex="1">
          <mxGeometry x="320" y="190" width="120" height="40" as="geometry" />
        </mxCell>
        <mxCell id="XFqM0QsjCBA94ZdpaxJI-13" value="" style="edgeStyle=orthogonalEdgeStyle;rounded=0;orthogonalLoop=1;jettySize=auto;html=1;" edge="1" parent="WIyWlLk6GJQsqaUBKTNV-1" source="WIyWlLk6GJQsqaUBKTNV-12" target="XFqM0QsjCBA94ZdpaxJI-12">
          <mxGeometry relative="1" as="geometry" />
        </mxCell>
        <mxCell id="WIyWlLk6GJQsqaUBKTNV-12" value="Home&lt;br&gt;Muestra unidad y terminal" style="rounded=1;whiteSpace=wrap;html=1;fontSize=12;glass=0;strokeWidth=1;shadow=0;" parent="WIyWlLk6GJQsqaUBKTNV-1" vertex="1">
          <mxGeometry x="160" y="290" width="120" height="80" as="geometry" />
        </mxCell>
        <mxCell id="XFqM0QsjCBA94ZdpaxJI-2" value="" style="endArrow=classic;html=1;rounded=0;exitX=0.463;exitY=0.023;exitDx=0;exitDy=0;exitPerimeter=0;entryX=1.038;entryY=0.7;entryDx=0;entryDy=0;entryPerimeter=0;" edge="1" parent="WIyWlLk6GJQsqaUBKTNV-1" target="WIyWlLk6GJQsqaUBKTNV-3">
          <mxGeometry width="50" height="50" relative="1" as="geometry">
            <mxPoint x="376" y="190.08" as="sourcePoint" />
            <mxPoint x="370" y="69.08" as="targetPoint" />
          </mxGeometry>
        </mxCell>
        <mxCell id="XFqM0QsjCBA94ZdpaxJI-7" value="" style="shape=image;verticalLabelPosition=bottom;labelBackgroundColor=default;verticalAlign=top;aspect=fixed;imageAspect=0;image=data:image/png,iVBORw0KGgoAAAANSUhEUgAAAc0AAAMECAYAAADdPX5IAAAgAElEQVR4AeydB3xTV5q32W97b9O3T7IzgczOttnd2d2ZXdxJmQRIryQhIQkJhCSkNwgBUglJCCGNFnrvvffem3s37gV32vvte8yVZVnCx0a2rqRHv58sW7665T3PPf//e5q63X777cKTGMAADMAADMCAfwZu/fn3pVu3blJZWamv3cwfvBIHGIABGIABGGjNAKKJUcAowQAMwAAMWDKAaFoGCsfV2nERE2ICAzAQbQwgmogmDhMGYAAGYMCSAUTTMlDR5qa4XjIIGIABGGjNAKKJaOIwYQAGYAAGLBlANC0DheNq7biICTGBARiINgYQTUQThwkDMAADMGDJAKJpGahoc1NcLxkEDMAADLRmANFENHGYMAADMAADlgw8fG9fEytWBLIMGM6rtfMiJsQEBmAgWhhANBFLHCYMwAAMwIAlA4imZaCixUVxnWQMMAADMBCYAUQT0cRhwgAMwAAMWDKAaFoGCucV2HkRG2IDAzAQLQwgmogmDhMGYAAGYMCSAUTTMlDR4qK4TjIGGIABGAjMAKKJaOIwYQAGYAAGLBlANC0DhfMK7LyIDbGBARiIFgYQTUQThwkDMAADMGDJAMvoWQYqWlwU10nGAAPuZeDv//7v5ZprrkHgQlhvI5ohDD6Vk3srJ8qGsnETA3/7t38r77//vqSlpcmxY8fkvvvui2rh/Iu/+Avp3bu3PPXUU9K/f3/52c9+Jr/1W7/VJTEJmmj++q//ujnp3/zN35T/9//+X5ecvA3Uei6//du/bZ6/9mu/5przsjl3tqHihoHoZkDrrH//93+XLVu2yNmzZyU3N1fKysokIyNDbrrpJommOu33fu/35P7775edO3dKdXW1XLhwwfM8d+6cZGdny+effy7f//73RfWos+6doImmOp+TJ0/K6tWr5T//8z877YTbG4jbb79dUlNTJSsrS7p37+6a82rvdbB9dFeelH90lv8PfvADmTZtmpSXlxtB+Na3viWPPPKIFBYWmrr2xz/+ccTXaZr0aCa5fv16qampMXX5ypUrTTw++eQT+fTTT2X69Omyf/9+qaiokLy8PHnllVfku9/9bqfEJmiiqWmyPrT5ID4+vlNOtiMVx0MPPWRcmUL2i1/8wjXn1ZFr4TPRWXFS7tFb7v/6r/9q6tR58+aZDEpZ+MM//EN5++23pbi4WJ5++mn5nd/5nYit1/Ta7rjjDhMDrcO/+OILSUhIkN///d9vdc1XXXWVDB48WHbt2iW1tbXy5ZdfijZrB/v+iXjR/Ku/+iu59dZbRTPOSIYr2GCwv+itqCl795T9v/3bv0lmZqZ8+OGH8sd//MceAfiHf/gH2bZtmxw9elT+8i//0vN+pJVdYmKiHDlyxDRL9+vXT/78z/+8zWvV5uxFixaJft+lxu173/tem59pT9xcJZraZt2ek9dtf/d3f7fdnwl0DO1I7sy28EDH5X33VFKUBWXhJgZ+8pOfyIEDB0zT5N/8zd946jptsnzxxRdNs+1dd93led9N536l56KZ44IFC6SkpET0Gn/jN36jxXX+8pe/lNmzZ8vzzz/f4n09rn52w4YNRmz79m360ugrPR/n8yEXTR1C/dFHHxnHpOm3duauWrXKZIY6qMg5Ue/X//qv/5K5c+eatu2CggLZt2+facN+9tlnTaA0LXe279Onj6xYscK4Muc9dWafffaZeU9T/QEDBsj27dtNW7gef926dWZklrM9r1SkMAADoWBAM6sJEyYY4fjpT3/qqdf+9E//1GRRdXV1cu+993reD8U5dtYxte5WwdTBPdok7XucN9980wyO2rt3b6v/6bb/8R//Ifn5+Sbr9DYcvvtp798hFU2FQC/4/PnzZjRUUVGRcU6NjY1SVVUlGpQ/+ZM/8QRER8L26tVLTpw4YUZNabu1jiTTNFx/12YMHUW1Z88ez2cGDhxo9qn9rU5wVKi1aUMfmsYreHo83Zfu5+LFi6Lnct1113k+43yWVypPGICBrmRAu5c0OdBEQTNMPXbPnj0lJyfHGPzOGvDSldfoe6xvf/vbMmnSJHON2tzq+3/9e9iwYUY7Aonmd77zHZk6dapJhn7+85/73Ye//bb13t3//X2zL9Wdbm1tfLn/t3cgkLbP62goFTkVMB1KrAL5T//0T2Y0VGlpqRE77QR2prBop652iKvIqnA++eSToqPH/ud//se4MRU9fbRHNFUktXC07bxHjx7y+OOPy+nTp815aafz5a6Z/1F5wgAMdDYDOi5DBVNH0GrLmB7vhhtuMCNFNSnoqvmJnX2d3vv/0Y9+ZFoftdXxhz/8od96WFsWVQu2bt3q9/+6Px3LonHTbDxYXW8/vOoqc7wuF8177rlHNKPU6SA33nijRxj1QtVljB8/3vxf5yc5UMTFxRnHpcOKVUy9g6yuYsmSJSYDbY9o7tixQ/7sz/6sxb7mzJljsk2dPsPgISpFb874HR5CwYD2y2nXkfZvan+dzgTQmQrLli0z9WUozqkzj6l9uTp1ZNSoURJorItOvdGka+3atS3qb+/z0tZCnduqU1MC7cd7e5vfQyaaWtjqEqZMmdKiCdY5aadJ4syZM2Z0mPZvat+j0/yq85ecbZ3XsWPHmjbu9ojmmDFjWu1HR1zpQyfRBnvklXOuvFL5wgAM2DLwR3/0RyaR0PpPEwodl6H1lLbIvfzyy63qMNv9unU77brTLrIhQ4YEvDbNInXBB02WAl2HtiBqt90333wjf/AHfxBwu0Cf9/d+yETz0KFDpv9w+PDhfi9ER0bpUGN9aD+mXvA777xj/p45c6bfoccKkQaxPaL56quvtjq+cxyd7xPJw7n9AcF7VOQw4E4G1MBrvamDY7RZVudw6gBG7ZbS7rFIKjedUqP9uK+//rqnH9f3+rTlUet7bRn0/Z/zt2qHZuhfffWV37mdznbteQ2ZaKakpJjBP7pyg78TViB2795tRPKBBx4wc5TUYelD+xq9Bwg5n0c03XmzO+XDK+UDA1fGgGZgOstAVzjTJtubb77ZDJZpaGgwA2O846uCoeuyes/v9P6/m3/XRemTk5PNGJZAiYu+f+rUKXnrrbf8aohen47A1WxcTUWg2RjtjUPIRFPb5nXUqo6Q9XfS//u//2sWJtaRrLGxscYljBw50oimOgt/k1wRzSu7If2VA+8RUxhwFwN33nmn6afTwZDaZ3fbbbeZgZG6HqtOr9Nmy4kTJ5qWPK1jNUF54oknTN9nsAbDdDYTuiC7zmzQMS86dcTf8XQksQ6S8h2T4myrTdraaqgrJ+k0Ref9K33t3v1as68uHwiko8F0wd0ZM2a0umgdLaujnfRitelBBwbpxFZdEUIdlTZR+HMf48aNo3mWb20J2s1xpTcXn3eX2ERKeeiAFhVBXbRdu7B0IKWuzapCqdNQdPqc1p0qOu+9954cPHjQNOkuXbpUkpKSWgy6dGtMnDEsmiW+9tprfptoddaEGged5+97HbqQvYqt/l/n3es0Q99tOvq3M+ezy0VT16dVZ6SFrM2v3qNU1WVox612euuAISet1n7O9PR00cFBuqas90VfffXVZmEDFWL6NKmsvNngd3iINAa0e0qFUzMxfWodqlnXLbfcYpoitX7UelSTDf0CDR3wqH17KiLhsoKQjqBVwVNzoFNsfMtQ517quBPNJn3/p2NgJk+ebJqyNU7e+uK7bXv/DnrzrHZSq+PRiaf+nppB6mK7KoSaZeq0E3VLI0aMMGvE6jBifV/dkhayNj84X3/jTEXRbFP/p23ZCsegQYOMq9IV8PWBaFJJtvdGYHuYCTcGtK9S61Pt+9PM8uOPP5Zrr21qOvS9Fu3O0v5NnaaiUzDC4Yusdaqh1u869eTw4cOthFMNgc7r92111OZanUmh8zP12098/+8bm/b+HXTR1Eyvvr7etKfrwgG+z8WLF3vmFelXdS1cuND0bep2morrHEwdEaWiqI7ImaOpF6biqUFas2aNyUK1vV63V4HVz6rjcqakOIFoa0UgRs9SWTqs8AoL4caA9uv9y7/8i5kep/WuZl7ap+lvTW4dfasLAWj9qllcOFyrNkW/9NJLplVSNUHXmdUlBAOdu46F0X5d1YbNmzeb63SSrkCfae/7QRNN/UJUbUpt6+m7NJ6uKajZpV6ofh+aLjago2P/+Z//OWBgtGli9OjRZri1ZpW6qK+26+t6sgqEzq90AqFp/axZs8x5Oe/pHE9t69dz9V0kQbd58MEHzf+0ScPfgCNnP7xSycIADLiBAc26dAK/Zlfa4qZ14t/93d+ZFj0dI6L/168R0yTjcosBuOFa/J2DfuWXztvUlkkdMauDPmNiYow50D5GXclNv2NTr08TJ11JKNgZpnNeQRNNZ4ed/aqCqWst+o4C0zZsZ4k97fDu7PNg/1SWMAADbmJAs05NElQwtOVNn5oYDB061DRX6uLl2jyr0/ncdN6256KJlPZTqmiqOdBsUrNrfer4GJ3XqUuzqsDa7rMj24WVaGobvqbq+k3mOgdJBVRTbxVRDZS2fWumGWkTfTtSsHyGCh0GopMBzbAeffRRM85DB9FovagDLjdu3Gi6vJy1vMORD+2u0+8Y1cE9ujCODgLSpfb0a9J0EFRXtAyGlWjq+rLaBKGjZ9Vt6ELr2kyrA4cUCk3d1Vl961vf6lSnEY6wcc7RWYFS7tFb7jp69vrrrzeLIPTu3Vt0lR1nJgJcdJyLsBJNdUh//dd/bUba6tBpzSq1/VqfKpoqqOEwKgxgOw4ssSN2MAADoWQgrETTCZTOudFhxTq8WgcgabquabmOtAr2SCnnmLxyo8IADMAADISlaAIu4MIADMAADISCAUSTZefo/4UBGIABGLBkANG0DFQoHA3HxEnDAAzAgLsYQDQRTRwmDMAADMCAJQOIpmWgcHvucnuUB+UBAzAQCgYQTUQThwkDMAADMGDJAKJpGahQOBqOiZOGARiAAXcxgGgimjhMGIABGIABSwYQTctA4fbc5fYoD8oDBmAgFAwgmogmDhMGYAAGYMCSAUTTMlChcDQcEycNAzAAA+5iANFENHGYMAADMAADlgwgmpaBwu25y+1RHpQHDMBAKBhANBFNHCYMwAAMwIAlA4imZaBC4Wg4Jk4aBmAABtzFQAvR/OEdQ4UnMYABGIABGICBAAxcdZXJyisrK6Xb/0w8KjyJAQzAAAzAAAz4Z6BFptlz6inhSQxgAAZgAAZgwD8DiCZGAaMEAzAAAzBgyQCiaRkoXJd/10VciAsMwEA0MYBoIpo4TBiAARiAAUsGEE3LQEWTk+JayRxgAAZgwD8DiCaiicOEARiAARiwZADRtAwUrsu/6yIuxAUGYCCaGEA0EU0cJgzAAAzAgCUDiKZloKLJSXGtZA4wAAMw4J8BRBPRxGHCAAzAAAxYMoBoWgYK1+XfdREX4gIDMBBNDPzkJz9pXns2mi6ca+VGhwEYgAEYaC8DP/7xjxHN9gaN7bnRYAAGYCA6GUA0aZ6lLwMGYAAGYMCSAUTTMlC4yuh0lZQ75Q4DMODNAKKJaOIwYQAGYAAGLBlANC0D5e00+B3nCQMwAAPRyQCiiWjiMGEABmAABiwZQDQtA4WrjE5XSblT7jAAA94MIJqIJg4TBmAABmDAkgFE0zJQ3k6D33GeMAADMBCdDCCaiCYOEwZgAAZgwJIBRNMyULjK6HSVlDvlDgMw4M0Aoolo4jBhAAZgAAYsGUA0LQPl7TT4HecJAzAAA9HJAKKJaOIwYQAGYAAGLBlANC0DhauMTldJuVPuMAAD3gwgmogmDhMGYAAGYMCSgX/8x3/k+zS9XQS/4yphAAZgAAYCMtCzJ6IZMDiWzoPPc4PBAAzAQJQwgGhGSUFjAGh+ggEYgIErZwDRRDRxyDAAAzAAA3YM/OxnP6N5FljsYCFOxAkGYCDaGWD0LM0VV95cQQyJIQzAQJQwgGhGSUFHuzvk+smQYAAGgsEAoolo4pBhAAZgAAYsGUA0LQMVDIfCPnC6MAADMBDeDCCaiCYOEwZgAAZgwJIBRNMyULjD8HaHlB/lBwMwEAwGEE1EE4cJAzAAAzBgyQCiaRmoYDgU9oHThQEYgIHwZgDRRDRxmDAAAzAAA5YMIJqWgcIdhrc7pPwoPxiAgWAwgGgimjhMGIABGIABSwYQTctABcOhsA+cLgzAAAyENwPdu1/Lgu1AHN4QU36UHwzAQFcx8MOrrkI0uyrYHIcbGwZgAAbCmwFEk+ZZ+jJgAAZgAAYsGUA0LQOFOwxvd0j5UX4wAAPBYADRRDRxmDAAAzAAA5YMIJqWgQqGQ2EfOF0YgAEYCG8GEE1EE4cJAzAAAzBgyQCiaRko3GF4u0PKj/KDARgIBgOIJqKJw4QBGIABGLBkANG0DFQwHAr7wOnCAAzAQHgzgGgimjhMGIABGIABSwYQTctA4Q7D2x1SfpQfDMBAMBhANBFNHCYMwAAMwIAlA4imZaCC4VDYB04XBmAABsKbAUQT0cRhwgAMwAAMWDKAaFoGCncY3u6Q8qP8YAAGgsEAoolo4jBhAAZgAAYsGUA0LQMVDIfCPnC6MAADMBDeDCCaiCYOEwZgAAZgwJIBRNMyULjD8HaHlB/lBwMwEAwGEE1EE4cJAzAAAzBgyQCiaRmoYDgU9oHThQEYgIHwZgDRRDRxmDAAAzAAA5YMIJqWgcIdhrc7pPwoPxiAgWAwgGgimjhMGIABGIABSwYQTctABcOhsA+cLgzAAAyENwOIJqKJw4QBGIABGLBkANG0DBTuMLzdIeVH+cEADASDAUQT0cRhwgAMwAAMWDKAaFoGKhgOhX3gdGEABmAgvBlANBFNHCYMwAAMwIAlA4imZaBwh+HtDik/yg8GYCAYDCCaiCYOEwZgAAZgwJIBRNMyUMFwKOwDpwsDMAAD4c0Aoolo4jBhAAZgAAYsGUA0LQOFOwxvd0j5UX4wAAPBYADRRDRxmDAAAzAAA5YMIJqWgQqGQ2EfOF0YgAEYCG8GEE1EE4cJAzAAAzBgyQCiaRko3GF4u0PKj/KDARgIBgOIJqKJw4QBGIABGLBkANG0DFQwHAr7wOnCAAzAQHgz0L37tdKtWzeprKyUbhRmeBcm5Uf5wQAMwEDnMkCmSaZJswwMwAAMwIAlA4imZaBwb53r3ogv8YUBGAgHBhBNRBOHCQMwAAMwYMnAjTfeSJ9mOLgbzhEXDgMwAAOhZ+DaaxkIhMOydFjcsKG/YSkDygAGQssAoolgYBpgAAZgAAYsGaB51jJQuLvQujviT/xhAAbcwAADgRBNHCYMwAAMwIAlA4imZaDc4HA4B5w2DMAADISWAVYEQjRxmDAAAzAAA5YMkGlaBgp3F1p3R/yJPwzAgBsYQDQRTRwmDMAADMCAJQOIpmWg3OBwOAecNgzAAAyElgGmnCCaOEwYgAEYgAFLBljcwDJQuLvQujviT/xhAAbcwACiiWjiMGEABmAABiwZoHnWMlBucDicA04bBmAABkLLAAOBEE0cJgzAAAzAgCUDiKZloHB3oXV3xJ/4wwAMuIEBVgRCNHGYMAADMAADlgyQaVoGyg0Oh3PAacMADMBAaBlANBFNHCYMwAAMwIAlA4imZaBwd6F1d8Sf+MMADLiBAUQT0cRhwgAMwAAMWDKAaFoGyg0Oh3PAacMADMBAaBlANBFNHCYMwAAMwIAlA4imZaBwd6F1d8Sf+MMADLiBAUQT0cRhwgAMwAAMWDKAaFoGyg0Oh3PAacMADMBAaBlANBFNHCYMwAAMwIAlA4imZaBwd6F1d8Sf+MMADLiBAUQT0cRhwgAMwAAMWDKAaFoGyg0Oh3PAacMADMBAaBlANBFNHCYMwAAMwIAlA4imZaBwd6F1d8Sf+MMADLiBAUQT0cRhwgAMwAAMWDKAaFoGyg0Oh3PAacMADMBAaBlANBFNHCYMwAAMwIAlA4imZaBwd6F1d8Sf+MMADLiBAUQT0cRhwgAMwAAMWDKAaFoGyg0Oh3PAacMADMBAaBlANBFNHCYMwAAMwIAlA4imZaBwd6F1d8Sf+MMADLiBAUQT0cRhwgAMwAAMWDLQo0cP6datm1RWVko3N6g454CbhAEYgAEYcCsDV199NaLp1sLhvKg4YAAGYMBdDCCalik54LoLXMqD8oABGAgFA4gmoklfBgzAAAzAgCUDiKZloELhaDgmThoGYAAG3MUAoolo4jBhAAZgAAYsGUA0LQOF23OX26M8KA8YgIFQMIBoIpo4TBiAARiAAUsGBg4cyJSTULgVjolLhgEYgIHwY+BHP/oRogm44QcuZUaZwQAMhIIBmmctU/JQFA7HpFKAARiAAXcxgGgimvRlwAAMwAAMWDKAaFoGCrfnLrdHeVAeMAADoWAA0UQ0cZgwAAMwAAOWDCCaloEKhaPhmDhpGIABGHAXA4gmoonDhAEYgAEYsGQA0bQMFG7PXW6P8qA8YAAGQsEAoolo4jBhAAZgAAYsGUA0LQMVCkfDMXHSMAADMOAuBhBNRBOHCQMwAAMwYMkAomkZKNyeu9we5UF5wAAMhIKBHj16sPZsKALPMbnhYQAGYCD8GPjhVVchmoAbfuBSZpQZDMBAKBhANGmepS8DBmAABmDAkgFE0zJQoXA0HBMnDQMwAAPuYgDRRDRxmDAAAzAAA5YMIJqWgcLtucvtUR6UBwzAQCgYQDQRTRwmDMAADMCAJQOIpmWgQuFoOCZOGgZgAAbcxQCiiWjiMGEABmAABiwZQDQtA4Xbc5fbozwoDxiAgVAwgGgimjhMGIABGIABSwYQTctAhcLRcEycNAzAAAy4iwFEE9HEYcIADMAADFgygGhaBgq35y63R3lQHjAAA6FgANFENHGYMAADMAADlgwgmpaBCoWj4Zg4aRiAARhwFwOIJqKJw4QBGIABGLBkANG0DBRuz11uj/KgPGAABkLBAKKJaOIwYQAGYAAGLBlANC0DFQpHwzFx0jAAAzDgLgYQTUQThwkDMAADMGDJAKJpGSjcnrvcHuVBecAADISCAUQT0cRhwgAMwAAMWDKAaFoGKhSOhmPipGEABmDAXQwgmogmDhMGYAAGYMCSAUTTMlC4PXe5PcqD8oABGAgFA4gmoonDhAEYgAEYsGQA0bQMVCgcDcfEScMADMCAuxhANBFNHCYMwAAMwIAlA4imZaBwe+5ye5QH5QEDMBAKBhBNRBOHCQMwAAMwYMkAomkZqFA4Go6Jk4YBGIABdzGAaCKaOEwYgAEYgAFLBhBNy0Dh9tzl9igPygMGYCAUDCCaiCYOEwZgAAZgwJIBRNMyUKFwNBwTJw0DMAAD7mIA0UQ0cZgwAAMwAAOWDPTq1Uu6desmlZWV0g1H4y5HQ3lQHjAAAzDgLgZ+/OMfI5pA6S4oKQ/KAwZgwK0M0DxrmZK7tQA5LyoXGIABGOg6BhBNRJO+DBiAARiAAUsGEE3LQOHkus7JEWtiDQMw4FYGEE1EE4cJAzAAAzBgyQCiaRkot7oezgtHDgMwAANdxwCiiWhGlMO8dU6aPL8qW15blyMDlmZK3DfJEXV9VI5dVzkSa2LtjwFEM4pEM/abUxI/LVkSvJ76t77vDw7v9ybtKZTy+vPm+cW+Yuk13T1iFDP1lDy0OEP2556RhvMXxXmcv3BRxm3Pb/PavK8zGn+P++aUMRdqMPw/9f+nrDiJxvhxzW3XH5EUI0QzCkSz96wUGbQyS6YdLJYDedWSWV4vOZWNklZSJzszq+TTXafl4aWZlxXCWYeKHC2Sbw6XyHUz3COaT63IlrK6c57zO3fhojScuyB1Zy/IqI25iGYbjM8+VCyrTpYFfK44USaLjpXKl3sL5enV2XLfwnS5YUYKcW0jrpEkFFxLszFANCMYfM3ABi7PkpXJ5VJZ3ywqHnW59MuFiyJ5lY3y5b4iuXV2qt/K0K2iefOsFMkoqzdXoteRU9kgS5MrZNKhEplyuEQeWpTu93qoBJorgaKas75IBPxbs/fMsnr55mCx9FuUYTJQYtkcS2IR+bFANCNYNJ9fmyOniuvEabDUzEuzy22ZVbIurVJ2Z5+R3IoGOatqIyKN5y/IquQK6eNHON0qmm+uzxHNLPVRWH1W3tmSf9mMmUqtdaXmiKaGsaTmrORUNLR6FpxplJrGCybO+kMz+V051abfWM0ZcSUG0cIAohmhN/xjSzPlaGGtXLwoRjS1IhyzvcD0/d0xN01umZMqd81Lk8eWZcqMI6VSVX/eVIhnz1+UqYdKWlWCbhXNmYeKRSt7lc1tOdVyw0yaDdtbeTmiWXv2gny2r0geWZrZ6vnoskwZvCrbNNPWnG0ST806t2ZVyfXEvNX90t4yYPvwMR2IZgSK5nXTk2Xu8TJPBllSe06GLM+U+AAjSZN0+2Ol0nhpEE1uZaM8sTSzRUXgVtFcfLLciKZW4MtSKlqcMxWRXUXkiGZ143l5Y9PlB07pALDRW/JFBVYfGvdh6+k3hjU71iIhTohmBIrmkFVZpnlNKzXNwj7aXtCmmNw9L03yqpr6turPXpCvDxS3+Ewg0dRK9MZZKfKrWanyq1kpcv2MlHaNstRRmfoZ/az3PvT9QDeYjvbV4+pzeXKFyaa18l6RWul5X/93uVHBOoJYs9KmY6bKjTNTRM1DoGPq+zrS2Dmufl7f01f9rO5HXwN9viPH892Xnp9zLOd4+t6VNo+2RzT1nLT5fm1KhRFN/bErqyrgdev2WpbXXSrjmy5xogPJLlc++j+9No23d7n4xlHL0CkL33g5f3vvxzmmL3c25e/sz3lN9Cp7Ux6zUswAOecYzna8Br6XwzE2iGaEiaZmk2N3FYo2s+ojq7xeYgNkmL7Aaj+nPvSTa9IrW4yQ9RXNO+elyVOrs2XpiTI5VVQrWeUNklpSJ1vTK2XYpjy5da7/AUXOMVWAdCDJe9sKZHtGpflsdsWlfaRVmmxGR2nG+xHPexemm2bCVSfLTZ+snllUfz4AACAASURBVK82Q2sTtL7nPO9bkNaqMtcKVpukv9pbJAdyz0hmeYN5HiuollmHS+SJFVkBxe+V9bmy7ISOMi2XdzflyX0L0uXLvUVypKBGsioa5PjpWr/H0+bOCXuKZH+OHq/eHO/46RqZd6TUjGr+1WXEVuPVd3aqDFmdI4uOlcmxghqvc27ax1OrsuXmWZePtxN3f6/tFU0V6dHbCrxaJhpaXbdznLvnp8lbm/NlY1qFp4xTiutkXUq5vGk4SfMrnv0XpcvcwyUm1lMPFIsK1IOLM+RzU27VhjeN5cG8avl6X5E8vCTT7370PGYeatrPrIPF8siidLlzfprha0dGpaSV1jeVXWGNLDxWJoNXZptjOefv71XLa+CKptHohy+NRld2TxXXytqUcnltY57o/eHvs7wX/gKKaEaYaGoWsC61OQuYc6hlxni5m/bdzXmiFZo+l5wok9u9hM9bNFekVMiiE2VS1dDUD2qU1uuHNvMuP1UesOLQzFIrTO1zvTSGx+vTTb9q5ni4oEbe2Jgn2tzsfd6DVmVLzf81Jbb1eHZldovP3TQzRT7eddojtL6fV+HVAS9f7SuS3n4GQ+mIXMeM7Ms5Izuyz3j+1n2pT/E+T61cP9hxWrLL6z2DsbyPqWJfVH1WphwoNn3M3p91fu+3KF2WnSwPeL26j9LaszLzcKnc3sGKur2iqef2+qZ8OXOp/PX4zvl6vz6zKlt255yR+nPNA4i8r1/LcG1apfRfnNEqW35lbbYZlKTbn64+a4T3ZHGdZ9CX937OX7woJ4pqZcjKLL/noWWqj+IzjTLjYLFszTojDec0cq0fpTVnZeyO0wFHBd82L02mHSqR02cajVFrvYemAXXbM6uMOfOOB7+Hv2BqGSKaESaad89Pl5OFtZ57+bnVLYXjcjfuzTNT5PGlmebZb2G6JF1qgtTPeItmad05U+lov5Zma6uSy2VzeqXJ9LQC04f+7/N9Ra3cv2Z6mnlov+mlTSWvqtE092m/6vrUClMh6T6c7HH4prwWTXD3L8qQ1SlNx3QqRCN4VY3mPPRc9PnAwubpJiq8Ew8Ueyp6Hf2pGeLiE+Wy8ESZHMqrNqOH9bg6PUfnrno3C2oMvEVTB07pterIXZ0jmlvZILlVzRmXNitqdll+af6oGonjhbWy9GS5LDxeJgdym4+n5kMzXzUT3uVz65xUWZlc4RFmPeaOrCqZd6xMFp8ok2Ona+TCpSCqAGllfrkmYu99e//eEdEcsaXAI4b5ZxpbnLfuW7nTVg59qAHSUdprUytkzrEy2ZhW6RFEjZ8OJvI9b2/RVKOi5awxTC+tM6ZQmdPy8x7Re+R0jcR5Metco8OIlnl57TlTZoVnGmVLeqWsOFVhhF3fd2S0uOasPO1HgPUc5x8rk9pLo4g15ruzq2TW0VKZeaTUlM2ZSwPqtFy2Z58RzbSd8+AV0QQGFwquCopW4PrQCkmdcTBuVm/R1H1rJfjC2hy5Y16a6OIJOhr3wSUZciC/xhxbK6C9edVyj0+loU1syToN5lINpY78gcUZpp9M+6c0U35oSabsz61u2s9FkRNFdWYb5zq0aVebLPWYq1Mrzb5UwLRJWd9znt4Dn1R4dUqKPrTPVkXqrvnpotmnZoTanPbZrkKPEOi81TvnN4uuHttbNPX0T1c3yrhdhdJ/aaZo3PstzvDE+uX1ucYM6HZaDlP2FzcdT/tuZ6aYuI3dXmDORc+poKpRHlzccvDViM35UlrbNL9WTcjwDbmm2Vsrb92Hnv/U/cVm/7oPzVofWtJ8Dk682nptr2jqsRccK/OIjC6Y4X0MHZV9qKDG/L9JFM/Io0szPWXcd06qPLc2RzJKm0RVRfHTHS373b1FU69NBynNPFpqmmiVkd6zUkUN4qd7iqTq0hxkFecX/ZhERzR1P7rNpvRKeXx5luFEm7Vvn5smwzc2lZduo+c873hZi2vS63txTY5HMDUjfX1jnmmN0YUe1PDcOjdN3tua72kVUJPz/vbTrfbjHSt+Dz8hJdN0ofBdyY2kAuSIg04N6D2n431d3ufhLZpaYWil428AypAVWVrvmEdeRYPJOJz9aL/UlANFnsr2RGFtq2zO2VYHimSU1pn9qPB8vbeoRbbpbOc9enZJsv/Rs7fNSZXNmVWe42q/pL/BGrpQgvcAly93F7ao8LxFU0XstbXZfvejgm7E/FIc1iZX+N1OB8csP1l+aSuRqftbZuZfHSzxNF/vyKzyG28VMG0qdh7vbyvwu50TL3+v7RFNLfNnVmdLhddiGR/7DDTTfkcnG8uqbJC75rY2bhr/t7YWeARG+8S9z81bNFVUF54slwSfZnrdXgVvW1bz9S843Lo7wls0tblY+6K9j6W/63XNP17mMSB78ltnratPlDlhlq/2F/tlV69rW1aV2U67HmYf98+a7/H5O3zEE9GMQNF0KkHtc/LXN9eRG9RbNFcnl5vsMtB+VFD0oRPlX9uQ56mgdISsk11oU9lLa3MCVvBaiWm/p7p+feggI/287zFtRFMXedDmOH1oc56Ko+9+nL9f3pBnlt/TbbXJ1nlfX71F80hh60E/zra6ZGF+VdPxNBa9Zwc+ng7wceJ1tKDGjNB19jPxUKknI9+aVuF3ypBm3SM25sma1ErzfHVd4Jg6+/V9dXjR8xizs9D0jWr/qPfzjvnpct+iDJm2v8jTl62tBSeLas3oaWefmuVvz25qJdAYTt5X1CKGznb6OmBJhqhx0ofuy1vMvEVTm7iH+mkudfY1/WipaSrX/WxIq2x1PEc0a8+eN4PknM/5vn60Ld8s2qD7OVFcJ7f5iP2QZZkyelOejN6YJzrX2ffzzt9T9xaaa9Ifa9IqTauA8z9ew0ccA5VV9+7XSrdu3aSyslK6BdqI98OnoDXTdCrBzhLNttae1T5PfZT9X9PiG5uaRfOehemeEZfaN6WjYC/HljZ5Zpc3NTXrYBJtjvTdvi3RVOf/7o7Tnn5BbfZVoQn0HLIqW/IrmwRPM3bv43mL5qYM/9MsVOyHbc73XOfh/CYhDHQ8Hcmbc+katS/Ne/rE+ztOe/pgK+vPy9tbCsT0NfvJuLzPs72/O7yYMnP6Z7WP1vNslNNnznrMhG6nZia5pM60JHhn7doXqAOf9KF+RxfSD3TtmpGvS2/KynT7D7Y0s+Itmnp+9/rJDp3rnHy4xDMneWtm63JxRLOi7pyM2hp4HuroTbme5vLk0nqr/khtKtemfT2/+xc2PWceLDbXrz/WZ1QFzbg618traOtjMs0IzDQ9zbON5zulebZN0axt6jtU0dTpJ85NPmxDrqcy2ZZRKTrQxfmfv1dtetuT3dz09vK6nFbbtyWa2gQ67XCJ57ia6c44WhrwuTqtUrRy1YcKtfd52Yhm4vRk+XJ/c6WZVXb54+lI5LJL8dLj6eedY+qUG2161H44fWi/3sH8anPuOipXB9tcLmt29tPWq7domgNd5ocOxtGpPUtPlcvgFVktRF6Po6OddTStPnQ08cxjZQFjPetYmag4OY8Z+5ubw9sjmt7lok2jvtdrK5qjNuV6jIGe1z1+pizpvm+alSIvrs2R8XuLZPGpClNGe3OrzZchaP+uxsd5IJqhFThfFoLxN6IZYaKpcx91NKo+dE3ZvpdpRmoPQN7Nsx0VzXE7Cpy6xExJaavC1wEfOuLSeYzZ1nKwiJ5/W6KpFdwSr35DZ182r9pk6P19nN6Vc6BMUweEzD1aarP7Vtvo8VTknXLRrPWhxZlmPeA6r2kbOuipuuG8aJ/xztxqM3fxXj9ZuLOftl4d0dTscV9etZlupFOOnOfi42Uy72ip6FfCvboxz8xl1bLxt9+3tuR7mm9bXWAbbyw+0twf6UbRNOWxJENWplSY5nddq7mtB6KJaPq9UfzdPLwXGljuWZAuqcVNA2j0hta5csEoi2CI5vidzaKpUy9U0C53btofu8Zr5Rkdbeq7fVuiqcKsc0adh/bbaSZu+9SmReeYNqKpIyl1ZKnz0EXybY+l23mLpnNc7cvVBRKWHCs1zdXOXFE9huageozjRbVmgI53U6nz+bZeHdHU/t7RWwvMSkk6ktn7qWbAOwsOtM+RWws8Tcp6fu259un7m/s/3Siat8xNk8Onazz97NWNF0QXSJi4t0hGbcmX1zfkyWvr82RNcrPRQzRDUw8G4jMY75NpRlimqQMxtmY0reyjldY3lxmI4QvQiPU5cqqkzjyXnSo3C7o72wRDNEdvznO0xMzV0z4tZ//+XrX5VkeNOg9t3vXdri3R1NGlOi/SeUzZ29wE6Luvtv62EU0d9asrCzkP7d9qa7/t/b9O89FBK9okqM2lzkO/skv7gdu7P0c0bdaebWvfI7bke76GrqC69fzNtj7v/N+Nojn3UHOzuw6AUoPqnK/36+de5hDRRDT9QuINDL+HFhKd1jFhX5GnH0znRHoPLrlc+ay8lJFpNbwx80yLTDAYoqmDlJzRsMmXqXScc9Q+PWfaiWZX/iqptkRTr33CvmLPKNQd6a1HVzrHa+vVRjQ1M/1wZ6FnqshuP31sbR1H/6/70SxZm0Evl5E/qwNvvPrQJuwu9Du95XLHDKZovrQu1zNS2XQPtGGMAp2XG0VTv6tVH7oYxYvrcwOO/P5692nHxzAQKMKSEuWVTDMCC3XomhwzWV7vXK24XlvXegCNb2WlcxnTvUaqTvLJkIIhmrqotTMaVrMaXRxB+4l8z0X/1vdfXd88MEO/aFo/77ttW6Kp2+taoM5Xn+mgmzu8lgf03Z/+rYLlb8F4G9HUzw9dmyOVlwYT6XSJttYh1UUYvPtOdR86ElP7EbVPd5GfifbOeeu5franeYrDhpTyVvtytg30GkzRfGhRhhw93bwi1ed72s7s1ej5cuBG0XSmBul0Ip1WFCiei7xaGsg0/d/fgWIXDu8jmgEq7XAovEDnqNnJiuQKT1ana8kOWNJytRnvz+qSb5P2F3tGDmqloCMjvbcJhmjqsnTadHlpMKhZu9V3+TTnmJpl7c9rmu+nS5J9c6jYb5+ajWjqtIcjXhW5LkHnu2Sdc1yNha7E88nuwlbzQm1FU+cb7ru0opEaF10KT/s6nWN4v+pSha9vyJXxe4qkj9doYp2Kku61Ys7g5f7LTwX3o53Nmc2aU2V+Bd/7mL6/B1M0tYznHivzNBunl9WbL6r2Pabzt17nlEMl8vjSls3KbhRNZ61lNWCvbsj1m9HrOrp6vzkPRBPR9HvjOzcAr+4BRFfm0W/w0IdOWThcUCs6ZUNdvXc5ab/h5APFZm6nNsuqoOnoT9/tgiGamk0MXJ4l2vemD+2P0wW77/QZ4Xvv/DTZmFEl5y7116l4aOXqm43oddiIpjbR6io1ziLvOuBlztHSVsdVIf1iT6FZ51TnuM460vLLuG1FU4+nQuZktzqVRNe31a9f8469xni8LiBf2WCmk8w/XuoRPDUNS09VeAxGSkmdDPUzqGvQ8kxJvSSuGq53t+b7jZP3cX1/D6Zo6r6fXJ4lTlNm04jcGhm8MquFyKjYP7cmRw6drjFTe/T6vBficKNo6uIT+tB7RJeL9DaiWpZ6fx3Mr/F0jei2uhJVW1OrfMuDv91Tj/orCzLNCMw0taC1eXHkplw5c+nbQPRG199PldSLTpfQlVP25lebb5BQ8XKGk+zLPeN3BGcwRFPPS5sT39te4BksooKu32KhC6wvO1YqmzMqzYhLZyFynTP5zraCgE2ONqKpx9URqCrEzn61j1T7AjekVMjCw8WyJrlc0srrPSvCqGi+sKZls7ataOrxNIPWOZhOH642k+si9Ru1ufVwiaxOLpPUsqbjaex1CskbG5r7ydQgDF2d7emv1OkousDBwYIaWXWyTFaeKDNr+2r2o//Thy5gfneAwSl6ToGewRZNHcE7Zlu+Z8EBjbnO2d2dUy2LjpTI0mMlsr+g2vQNOq0O2p/uPfLXjaL5+vpcTwat11TZcF4OF9bK7v9bY1nLUrscnOtpKhExU3i8VzoKVAa8H5hPt8UG0bxMZeK2wurI+bywKst8X6ARRkcZnTv60qsKl1baK0zTXstM1DlmsERT96dZxtidp80C487EfZ9TMm5dpyuM2a6CGfiGshVNPa6OpNU+Qp2i4Yin73FV5HSxdl2aTgXeuX59bY9o6vYqnDoKua3j6eT7d7cWtMrudR+6LJ6Ku4q8v+LT97RsjxXWmize+3xtfw+2aDrH1a+aK65p+lYRf+euZaBCo/NBtVnc+Zy+ulE0r5+RLNMOFhvz6SuOypFhp6pRPt9b6CkrXdziKZ+uDu/r5PfA97ZbY4NoRrhoKnj6jRD6Rb278qpF+5h0mTj9Vg2tjI8W1cry//v6qZfXtm669Yb2g615sq+g1jw187vcnL0NmVVmu42ZVaJfkOy9H+/fBy3LNM2rx4rqzCoqek66mor+vehkuTyx1H8/nvc+tO9xb0GN6ALb4/Y2z/Pz3sb39zc35Jrl2zTr1qZR57hHi+pMf9yjS/w3BY/aViC78mrMtenXjPnuN9Dfb6zLMWuQ6nQe7+MdL66TBSfK5YkATc/O/rS5euYRzc6avoBa+5zzKhsko7zBXPfX+4tafZuM81mb13UZTeW1NadaBl+mvGz25buNfj3bnGOlcuh0reFNY62Lb6SU1suGjCrzzS2+35eq+3hieab5vzKn53fbZQZveZfLlIMtm9R1X/rtN7qfTVlnRAfJ+Z6j8/fQVVmyI7fabLvoVIXfL1LXJvyRm/JlW3a16OA0cz2VjaJlqQu+P7gow5ifHXlN+9mcfUae9PleV+d4vIafYGqZIZpRIJrOzalzCHWgglYOz6/KNpW1zuv011fofKYrXvUcdKCLnpO+3tLBaQrtOVfNdvW7Dp9ekSXPr246bmf2PWm2rF+ZpX3Nerynlme2WhC8rfPXCvuxJU3lp1NNdMFz3+/8bGsfofi/8qX9lWoOtIyfXZVl1tC1nQoVinNu65iaGT+yOMNczzMrs0zZejcvt/V5/h+egqnlhmhGkWhyo4bvjUrZUXYw4A4GEE1EM2BzFTepO25SyoFygAH3MIBoIpqIJgzAAAzAgCUDiKZloHB67nF6lAVlAQMwECoGEE1EE4cJAzAAAzBgyQCiaRmoULkajoujhgEYgAH3MIBoIpo4TBiAARiAAUsGEE3LQOH03OP0KAvKAgZgIFQMIJqIJg4TBmAABmDAkgFE0zJQoXI1HBdHDQMwAAPuYQDRRDRxmDAAAzAAA5YMIJqWgcLpucfpURaUBQzAQKgYQDQRTRwmDMAADMCAJQOIpmWgQuVqOC6OGgZgAAbcwwCiiWjiMGEABmAABiwZQDQtA4XTc4/ToywoCxiAgVAxgGgimjhMGIABGIABSwYQTctAhcrVcFwcNQzAAAy4hwFEE9HEYcIADMAADFgygGhaBgqn5x6nR1lQFjAAA6FiANFENHGYMAADMAADlgwgmpaBCpWr4bg4ahiAARhwDwOIJqKJw4QBGIABGLBkANG0DBROzz1Oj7KgLGAABkLFAKKJaOIwYQAGYAAGLBlANC0DFSpXw3Fx1DAAAzDgHgYQTUQThwkDMAADMGDJAKJpGSicnnucHmVBWcAADISKAUQT0cRhwgAMwAAMWDKAaFoGKlSuhuPiqGEABmDAPQwgmogmDhMGYAAGYMCSAUTTMlA4Pfc4PcqCsoABGAgVA4gmoonDhAEYgAEYsGQA0bQMVKhcDcfFUcMADMCAexhANBFNHCYMwAAMwIAlA4imZaBweu5xepQFZQEDMBAqBhBNRBOHCQMwAAMwYMkAomkZqFC5Go6Lo4YBGIAB9zCAaCKaOEwYgAEYgAFLBhBNy0Dh9Nzj9CgLygIGYCBUDCCaiCYOEwZgAAZgwJIBRNMyUKFyNRwXRw0DMAAD7mEA0UQ0cZgwAAMwAAOWDCCaloHC6bnH6VEWlAUMwECoGEA0EU0cJgzAAAzAgCUDiKZloELlajgujhoGYAAG3MMAoolo4jBhAAZgAAYsGUA0LQOF03OP06MsKAsYgIFQMYBoIpo4TBiAARiAAUsGEE3LQIXK1XBcHDUMwAAMuIcBRBPRxGHCAAzAAAxYMoBoWgYKp+cep0dZUBYwAAOhYgDRRDRxmDAAAzAAA5YMIJqWgQqVq+G4OGoYgAEYcA8DiCaiicOEARiAARiwZADRtAwUTs89To+yoCxgAAZCxQCiiWjiMGEABmAABiwZQDQtAxUqV8NxcdQwAAMw4B4GEE1EE4cJAzAAAzBgyQCiaRkonJ57nB5lQVnAAAyEigFEsxNFM2bcVokZu0HM66fbJObzvdJz0vFWjk7fjxm3TXpO9vO/L/ZJzGe7pOeUk02f+/qw2Z+/bUMFEcelAoMBGIgWBhDNThTNpLsGSVLvfpI4YJgkDhguiY+PlPgXvmwSQa/jJjzzsSTd9qjEvbO0laAmPP+ZJDw6XHpOOmb+Fzd6iSTdNkBiJ+xqtW20QMt1UkHDAAyEigFE00u8gl0Ivfo+JIn9X5XYD9ZI7HsrJe71byTpvmcl8dE3m7LOS8dOGDhKesXfLIn3Pycx43e2EMPEp8ZI4j1DpOeko02i+dYC6ZXYR2LH72ixXbDPnf1RKcEADMBAawYQzc4UzVv6S/xT7zeL25STEvPJFkm69RGJf+krz/tGNK+/Q5LuGCiadToCqcAimq2h5UYmJjAAA6FiANHsStF0MsshYyXxgRck5quDRjiNaN50n8S/MUOSbh0gse8s8wgqoknlEKrKgePCHgy0ZgDRDIFoxr/2jSTe/ZTEfNrUxGpE8+b7JeaL/ZL42AhJGDBMYibsMcKJaLaGlhuZmMAADISKAUQzBKIZN2yGJN09WGJ1xOzUU+KIpv4e+94KSbrzCYl/ZZIZTYtoUjmEqnLguLAHA60ZQDRDIJoJL02UxHue9oyi9RZN7c+Mf36CJN01WGI/2kifZieWDxVC6wqBmBATGLg8A4hmJ1bKvXwHAumxppyUxP6vSeIjr0vPiU0jYluI5tRTEvPZbkl84EVJfOhVSRw4itGznVhGVBCXryCID/GBgZYMIJqdWCG3Es0pJyVu+CxJurmfxL01zzPYx1c0VVjj3lspvW68W3rdeBei2YllRIXQskIgHsQDBi7PAKLZiRWymafZ7wWJG7VI4t6cKwmPvSW9EvtKwvMTpOeUE4FFU89pyklJGDpeesXfhGh2YhlRQVy+giA+xAcGWjKAaHZihZx03zOS1PchSerbv2kO5sDREvfBGo9YOjDG64pAuoCBz7nETDwqifc9a0bTelYEenuZJN3yiMRM2N1qe9/P83dL2IkH8YABGLhSBhBNH6G60oDyeW5KGIABGIhcBhBNRJOMFQZgAAZgwJIBRNMyUDjHyHWOlC1lCwMwYMsAoolo4jBhAAZgAAYsGUA0LQNl60LYDscKAzAAA5HLAKKJaOIwYQAGYAAGLBlANC0DhXOMXOdI2VK2MAADtgwgmogmDhMGYAAGYMCSAUTTMlC2LoTtcKwwAAMwELkMIJqIJg4TBmAABmDAkgFE0zJQOMfIdY6ULWULAzBgywCiiWjiMGEABmAABiwZQDQtA2XrQtgOxwoDMAADkcsAoolo4jBhAAZgAAYsGUA0LQOFc4xc50jZUrYwAAO2DCCaiCYOEwZgAAZgwJIBRNMyULYuhO1wrDAAAzAQuQwgmogmDhMGYAAGYMCSAUQzQKD+54sD8otPtvEkBjAAA1HJwC8/3yc9p5xETH00AtH0CYjTrKKC+fORi3kSAxiAgahk4L/HbpKeU04gmj4agWj6BMQRzf+dfFz+d+IRnsQABmAgOhmYdAzB9KMPiKafoDjCyWvkduZTtpQtDMBARxhANBFN3CQMwAAMwIAlA4imZaA64kj4DE4WBmAABiKLAUQT0cRhwgAMwAAMWDKAaFoGCrcYWW6R8qQ8YQAGOsIAoolo4jBhAAZgAAYsGUA0LQPVEUfCZ3CyMAADMBBZDCCaiCYOEwZgAAZgwJIBRNMyULjFyHKLlCflCQMw0BEGune/Vrp16yaVlZXSrSM74DOABwMwAAMwEC0MkGmSadIsAwMwAAMwYMkAomkZqGhxUVwnGQMMwAAMBGYA0UQ0cZgwAAMwAAOWDCCaloHCeQV2XsSG2MAADEQLA4gmoonDhAEYgAEYsGQA0bQMVLS4KK6TjAEGYAAGAjOAaCKaOEwYgAEYgAFLBhBNy0DhvAI7L2JDbGAABqKFAUQT0cRhwgAMwAAMWDKAaFoGKlpcFNdJxgADMAADgRlANBFNHCYMwAAMwIAlA4imZaBwXoGdF7EhNjAAA9HCAKKJaOIwYQAGYAAGLBlANC0DFS0uiuskY4ABGICBwAwgmogmDhMGYAAGYMCSAUTTMlA4r8DOi9gQGxiAgWhhANFENHGYMAADMAADlgwgmpaBihYXxXWSMcAADMBAYAYQTUQThwkDMAADMGDJAKJpGSicV2DnRWyIDQzAQLQwgGgimjhMGIABGIABSwYQTctARYuL4jrJGGAABmAgMAOIJqKJw4QBGIABGLBkANG0DBTOK7DzIjbEBgZgIFoYQDQRTRwmDMAADMCAJQOIpmWgosVFcZ1kDDAAAzAQmAFEE9HEYcIADMAADFgygGhaBgrnFdh5ERtiAwPBY6DX9GQZuSVf+s5ORchcWD8jmi4sFCqg4FVAxJJYhhsDN81KkWOFtbIho1Ju9RLO2+emydBV2TJ0VZbctyBd4r5JRlRDUH8jmiEIerjdxJwvwgMDXcdAzNRTMnhZppTWnJONGVVy+9xU+eJAsRTXnpOaxgvmWdlwXlLL6mX6gWLpPYuMtCv5RDQRzc5xq5OPS/wLn0viw29IzIS9nXMMyo64RigDcd+ckqErsyS/qlFWpVTI08sy5e1NufLK2mx5eU2OfLQtXzamVUpxzVkprG6UDzbniTbrdqV4ROuxEM0IheTLggAAIABJREFUvelCDjSiSQXGvdUhBlT83tyYJ6M25ckr63IkpbRelpwsl7vmpcnI9bmyIaVcxu8ulHsWpMuAxRmy6GS5Ec9FJ8rktrlpHTpmyOuLMGIF0ezMwppyqUln8nHp+fVh6Tn5hH+g9f2vDknPScf8/3/KSek58aj0nHhEeurv/s550tGmffgeQ8/BOQ/nc/7+9n2vrXN29qvXNcXruvQavm66FjLNrmvS88uEU968+r9nXBiXxGnJ8t62Ajl95qzMOFwi+vewDXlyqrhOlp0ql6eWZsrmjCqpPXtBtmadkfsWZpi+zbe35ktaaZ0sPVUut89DODvzfkA0O+nGifnqoCQMHC1xI+ZJ/FNjJOHh1yRh0LsS88mW5ht48gmJfW+lJDz5tiT0f1USHn9L4kbObxLIS+cV89UhiX/5a0l45A1JeOR10+QZ8+UBzz5iJh6RuBFzJOGxN5v2Mfh9if1wnRHXmC/2ScKT70jsR5s928eNWiTxz0/wCJ3Z/yuTJfbtpU2iPuWkxL67XBKeGN10zvr5MWs9n1dhj3tlssS9MV3ih46XhMdHSqxe0+TjEvfOUkkYOFISHn5VEp7+yByb5lmEszMrsEjb9yvrcyWjvF7mHy2VvrNTzH1308wUGbkpT9LL6mVDeqU8vzJL1qVVSm3jBZmwt0iSpieL9oMO35QnqSV1Mml/sdw4s+mzkRYfN1xPjx49pFu3blJZWSnd3HBCkXIOsRN2S6+E3pJ091MS//JEiX9tqiTdM0SSbntMVMz0OlWcku59WuKf+URiR86X+KHjJPGuQRI3aqFHpOKfHSeJdz8lca9NNc+kOwdJ4qNvNmWcU05K3PCZknj3EIl/4UuJHTFHEh8bKYkPvCixH2+WnpOOStItDxuhNXGdeFQSHhshva67XWIm7DbHUBHX7ePemmf2qSKedPvjkjDkQ4kbNksSB70rSbc8IrFj1jRt//VhSXz4NUm68W6zr/hXJkns+J1N16Ln9sRoc04qqEl9+9On2UmmLFLuE66j2VTdOidV1qdXyrbMKrltTvPgntc25snY7adl2PpcKak5K9uzzxjhVAHdlFohN89qEkgVz/F7i0xW+vDSTE8dQoybYxyMWFx99dWIZjAC6bsPI5q9bpX4N2Z4BC523BbpldhX4l/7pkmg3l5ifo/R5swpJyXm832SOOBNk6WZ5tipp6TXzf0k/rnxzfsYvUQS+70gmm3GTDxssjnNJjVjNPsYv1MSnnhb4t5eYm6ahGc+lqQ7nmg63rhtkvjQq9Lrxrslfvgs83/dLvHBlyT2401mm6RbB0jiwFGerFMzyMSHXpHEuweZ92IuiabuR0XZHPPrpvNIHDBMYr7Y3/SeZtqD3kM0EU0qb0sGNKNclVohycV18qtLQqj1ygc7C6Ws7py8vSlfBi/NlPK6c7Ils0qeWpohb2/I9WSVml3OO1IqKSV18tDiDOJuGXffurutvxHNTgqsEc3rbpe40U3i5RRE0l2DJPGRN5qAnnLCiIw2f8aNXCBxw2ZI4v1DJWHw+019oFNPSeLjI022GvfWXIkZt0202dfTrznlhMlik+58UuJemSQxH29uymK1P/LSdcW+v1qSbrhTYj/dIXEj5kri4PclQbPXB140faim6fexEUaEY8dtk16JfUwzq/N5fY0bufDSPraJI5oJz3zS3MT72W4jrPEvfWWaac1nGQjkKQPvWPJ7cF1/pMXz6ZVZphl2c3ql3HxpKsnQ1TmSXdFgppqM3Jgnr6xp+ltH1ergIG2a1b7PMTtOm9G2720/LfHM4ey0+w/R7GLRTOz/miT1e156Tj0psR+ul4TH3pLEfs+Z/kztD9RMz1s0tSk3fuinknj/c5L4wAuSMPBtiX1nmQcIzVLj3pgmCQ+9JIn3PG2abrW/MebLg2Yb7fNM6vuQxA+bKfHPfmL6M2PHbjRNtJpdqojqgB0dzKPnY0Tzg6amWKdCin1vlSRdf4fEjt3gJZrjmkVz/A4jwtoE7Rns1EI093jO19knr4gHDPhn4M1NeZJb1Sgb0yul/5IMuX5Giny8q1ByKhqkov6cfLA1X0ZszJPkkjpZemlU7eNLMo2wTj1YLJqxElv/sQ1GXBDNrhTNKSdMf2Hi42+ZwT7xQz5sar4cv6NJ4L48IAkDRzWL5sQjZpCNCqM2e2pGqv/XvkLTLzrpmMSM32myRB2xGvPxFjNoSPs9496a77lxErWZ9MGXTLNt7OhFRtiS7nla4p/7TBIffl3iLolwzPhdTc3HIxd4PquQxQ+fLUk33CUxn+30L5oT9ph+TiO+zgjgSceMQDMQqPNu3mBUAOzDfeWjmeOr63PleGGtHD5dKx/tPC2PLsmUl9flyGf7iuXt7QWiqwYNvyScK5MrTLPtqK0FnsFDlGvnlSui2ZmimXSLJLzwhafJMu7d5dKr1y0S9+YcUSHUEaqJA4Y3iZ4ODBq7QbT51sk0VSgT733GNKs6N0H8m3OkV2Jvif10u/mc9lmaZlGdjjL1lMSM2ypJdw2WuFcne4RPBxb1uu420ywc8+l2837869Mk6eZ+JoN1BgWZ/st+LxghdUboNp3Ds2Ykrf6/uXm2OdPU/tf4p8eaTFhF3JzH53sl8ZFh9Gl2El8OD7x2XuUY6tg+ujRT5hwtlYyyejlWVCfLUytk2uFS+eZQicw5XiZjthfI25vzTIa5SVcO8ho8FOpzj+TjI5qdVKl5Rs/e9pgRIR1ck9Tnwaa+xEvzLePenG1GtybeN1QSHh1uRqkm9X7AZIRNfZcnJOHZT8S899gISXjiHUnq85AkPjqiSYgnn5C44bOamnT7vyrxT38kiTpC975nJfajTR7RVFHs9at7zdQWZy6oDjrq1etWMy3Ge56ljrrVgUMq1jqQJ+nuQeZvR2z9iqYK/kebTPNw0u0DmwYA9Xue0bOdxFYkV0hcW7MJ0IxTm2YfXpIpX+0plD3ZZyS5pN4M9DmYVy0TdxfKHXNT5blV2VJae05UOG/xWquWWDbHMpixQDQ7qWLzDAR6c67JLHXgTNywmdJzUvMgHR3QY/o1nxsvCUPHm99jP9wgce8sl55fN2WOpq/xg9US/9wESXj2U4nVgUWTvRY40H18vFkSXvpaEp4aI/FvzJSYz32WrTNzKJc1TUPxul6dsxn7sde80Uv/0+wy/vVvRLPYOB39qwsYOJ/Tfb23UmLHNM0F9byvWe7neyT+1SmSMOQjMwBKBybFvbOiaVEG5/O8NseSWBCLIDHw+JIMySpvkHG7ColpkGLqXbd5/45odlKAPaI5eikQd1KMvUHm985x1cQ1fOLae1aKXDeD9Wc7m1lEs5MqdEQzfCqbzr7J2D8swEDkMIBodpJo6kAfXeFH5z5yw0TODUNZUpYwEN0MIJqdJJpmAQKzYo7XYuaddSz2izGBARiAgS5hANEEtC4BDXce3e6c8qf8I4UBRBPRRDRhAAZgAAYsGUA0LQMVKS6J68DxwwAMwEDHGUA0EU0cJgzAAAzAgCUDiKZloHBmHXdmxI7YwQAMRAoDiCaiicOEARiAARiwZADRtAxUpLgkrgPHDwMwAAMdZwDRRDRxmDAAAzAAA5YMIJqWgcKZddyZETtiBwMwECkM9OjRQ7p16yaVlZXSLVIuiuvgBoUBGIABGOgMBn541VWIZmcEln1yw8IADMBA5DGAaNI8S18GDMAADMCAJQOIpmWgcIyR5xgpU8oUBmCgvQwgmogmDhMGYAAGYMCSAUQzQKB+OX6X/Ofby3kSg9AyMHq5/CdPYhACBn7xyTYxX3EYoI5sb4YWKdsjmgGA+MW47fLztxbyJAahZWDEQvk5T2IQAgb+e+xm6TmF7wP2FXtEM4Bo+gaKv+n7gAEYgAEYQDQRTfoyYAAGYAAGLBlANC0DhcPEYcIADMAADCCaiCYOEwZgAAZgwJIBRNMyUDhMHCYMwAAMwACiiWjiMGEABmAABiwZQDQtA4XDxGHCAAzAAAwgmogmDhMGYAAGYMCSAUTTMlA4TBwmDMAADMAAoolo4jBhAAZgAAYsGUA0LQOFw8RhwgAMwAAMIJqIJg4TBmAABmDAkgFE0zJQOEwcJgzAAAzAAKKJaOIwYQAGYAAGLBlANC0DhcPEYcIADMAADCCaiCYOEwZgAAZgwJIBRNMyUDhMHCYMwAAMwACiiWjiMGEABmAABiwZQDQtA4XDxGHCAAzAAAwgmogmDhMGYAAGYMCSAUTTMlA4TBwmDMAADMAAoolo4jBhAAZgAAYsGUA0LQOFw8RhwgAMwAAMIJqIJg4TBmAABmDAkgFE0zJQOEwcJgzAAAzAAKKJaOIwYQAGYAAGLBlANC0DhcPEYcIADMAADCCaiCYOEwZgAAZgwJIBRNMyUDhMHCYMwAAMwACiiWjiMGEABmAABiwZQDQtA4XDxGHCAAzAAAwgmogmDhMGYAAGYMCSAUTTMlA4TBwmDMAADMAAoolo4jBhAAZgAAYsGeje/Vrp1q2bVFZWSjdcFC4KBmAABmAABgIzQKZp6S6AKDBExIbYwAAMRAsDiCaiSbMMDMAADMCAJQOIpmWgosVFcZ1kDDAAAzAQmAFEE9HEYcIADMAADFgygGhaBgrnFdh5ERtiAwMwEC0MIJqIJg4TBmAABmDAkgFHNHXaCVNOLIMWLY6K6yR7gAEYgIGWDKhofvu735XvfO97iCZwtISDeBAPGIABGGjJAKJJdkmzDAzAAAzAgCUDiKZloHBbLd0W8SAeMAAD0cgAoolo4jBhAAZgAAYsGUA0LQMVjY6KayaTgAEYgIGWDPTo0UOuueYa6d69OwOBgKMlHMSDeMAADMBASwauvvpq+f73vy8/+MEPEE3gaAkH8SAeMAADMNCSAUST5ln6MmAABmAABiwZQDQtA4Xbaum2iAfxgAEYiEYGEE1EE4cJAzAAAzBgyQCiaRmoaHRUXDOZBAzAAAy0ZADRRDRxmDAAAzAAA5YMIJqWgcJttXRbxIN4wAAMRCMDiCaiicOEARiAARiwZADRtAxUNDoqrplMAgZgAAZaMoBoIpo4TBiAARiAAUsGEE3LQOG2Wrot4kE8YAAGopEBRBPRxGHCAAzAAAxYMoBoWgYqGh0V10wmAQMwAAMtGUA0EU0cJgzAAAzAgCUDiKZloHBbLd0W8SAeMAAD0cgAoolo4jBhAAZgAAYsGUA0LQMV1o5qyimJmXRCkj49KL1HbZfbhm2S29/YyJMYwMAVMnDbsI3S562t0uvj/RI78bj0nHIS8YnwOhXRjOQCnnJKEr44Ir1HbJUH+i+UR/tMl0d7T+NJDGAg2Az0mS4P9Zsvt7y+SRI/O4x4RnC92qNHD7nmmmuke/fu0i2ss6kILqSOlEvM5JNywwd75N4nllFBBruCZH8wdRkG+g1YLL96Z6foPdiRe5fPuLuv+IdXXSXf/u535Tvf+x6iGTGwTjkpN7y3Wx54cIE82ofMkuwaBrqagf73zJGb39ouMTTXRpxxQDQjMEPVvsv7HlsqA2iOJSO6TEbU1UISbcd74IEFcsPYfREnGhGTXHSw7qd5toOBcys4sZNOyC2vbkQwEQsMQ6gZ6DNN7hqySuK+PoZwRlA9y0CgCCpMFfLEzw7Jgw8toMIMdYXJ8WGw9zR56L65csOYPYhmBNWziGYEFaaKpvZlMkqWPrxoawp17fX2mS59Xt/MoKAIqmcRzQgqTJ0jduvrm3D4ZHkw4CIG7nx2jcR9fZxsM0LqWkQzQgpSs0wdqXfni2upMF1UYbo2AyJGXXaf3PPUCon/8iiiGSF1LaIZIQXpiOZdL6zpssoAQaAZGAbaZuDewcsRzQiqZxHNCCpMzTQRzbYrMSp6YtSVDCCa7l6sQBOO9jwRzXYGrD3B7eptEU3EoCvFgGPZ8YZotk+UurrebO/xfvrTn8r3v/99+cEPfsCKQO0Nntu2RzTtKjEqe+LUlQwgmpElmj/72c8QTbeJX0fPB9FEDLpSDDiWHW+IZmSJ5i9/+UtEs6Mi5bbPIZp2lRiVPXHqSgYQzcgSTfo06dNktC3TL2CgExlANCNLNGmeRTSpMDuxwuzKjIZjuTODRjQjSzTJNBFNRLMTRHPgrTNkaL+58sz9c4Ie30F3zpRXHl0oT909K+j7RniDL7yIJqLZrjktbuv3i+TzoU8z+BVeR0Xk9ScXybrlx2XF/ENBF7axw9fKyaP5MnXCtqDvu6PXy+cCs4doIpqIpkuzU0QzcMXV1ZX6uy+vlLzsckk9WRh0YRs1dLlsWHFSPh29Puj77uo4RcPxEE1EE9FENKms22jStRHNlwYskNmTdsvimQdk3Kj1os2ujogMvnOmfDJqvfnfpHFbZfSLy0VfX3xkvgwbvFjmT9sj77yyQp64dYaMf2e9+fyYN1bLgmn7zPPlxxZ69uXsk9fQmCpEE9FENBFNKuQrFE0VwZKiammoPyt1tY1SV9MoG5afkMdvmS5P3j5T5kzaIzVnGqS+run/pcU1UlRQJWPfXCtff7hFSovPyNK5B2XI3bPl+OFcqSirlfLSGrOvs43nJeV4oTx932zKqY1y6gojgWgimogmokll3EZlfLlM8/G+0yXjVLHU1jTK+Hc2ynMPzpWdG9PkbOM5+XDYGnnpkYVSfPqMpJ0qkreeXiYvPTJfSourjSh+/NY6mfTRVqmqrJMVCw/LkHtmS8qJAqmsqJWvxmyVwXfNkuTjp6X6TL1MeHcj5dRGOSGakSVoXTFmpUePHnLNNddI9+7dWUavKwLemcegTzM0zW/+Kt7LieabTy+V2upGST562iNqX47ZJFUVdbJtwykZ/dxK0Wxx0bRDogKr+9+/K+OyopmdUSKjn19utl279LDU1jTIlPEMFPJXNl39HplmZAnzD6+6Sr793e/Kd773PUSzMwWtK/aNaIaHaH7w2irTjHpwd7ZHND8esdaI4sE9WTJ22DppaDgns7/a6/l/W6KpA47eHLLUbL96SZNoTkU0PfHraqH0Ph6iiWjSPEvzrCsqI++KyW2/Xy7TfHnAApNVZqWVmv5LPfep43eYJtXVi4/Im0OWmb7MVQuPeQYHHd6fc9lMM+VEoQwfsgTRdEFzrC+LiCaiiWgimohmG5WzI5raF7lq4VHPc9HMA2Zhgl2b06Sx4ZxsWZMs86bulczUEtNP+foTi+X5B+eZqSolhWdkxYLDsnTOQZOZ6kCfQH2aiKZ7WhkQzcgSSd9WQppnXSqAvgVl8zfNs+6pOB3RlIsiFy5c9Dwry+vknRdWyaA7Z8n+XZmm7/LC+YtmoM9n726Ux/pMN88xr62RgtwK0f+dqaqX/JzypkxzxFq/A4EQTfeUPaKJaJJZhomwIprurTh9K1L9+7E+08xSe5pdDrqjeY7mY32ny/MPzZfhg5fKW0OXi87nzEwrkcL8Khk5dBlZfhtZvr9Yh/I9mmcjS0TJNMNEEMk0w0sQr6SS1jVlVy06YqaOrFpwVPZuzzADgzatOmUWM7iSffPZrucI0UQ0yTxdKrRkml1fIXaGCA28dbq898oqWbv4uBzemyP7d2TJ/Cn75eVHF5BlhlmWqXwgmogmooloUnl3QeX91F2zjFC++PB8z3zNzhBp9tm5ZgvRRDQRTUQT0ewC0UTMOlfMuiq+iCaiiWgimogmogkDlgwgmpElmt27XytX/6i7/P2Pe7AikM1gGzdvQ59mZGQmXZUBcZyu4QXRjCzRZPSsS7PGjogzotk1lSBiQ5zbwwCiiWjSPOtSoVXRvPPFdTSbWTabtafiY1uEsqMM3PPUCon/6ij1pkvrzfYmKGSaEVKQpuCnnJS+b2xGNBFNGHARA3c8t1bivj6OaEZIXYtoRkhBOm7p+g/2yIBLXyfVUWfM58iqYCBIDPSZLr2HbRFtBXLuUV7Du7kW0Yww0UyYcFj6DVhEpuGiTAMBCpIAhWGZPvjAfLl+7D4EM4LqWUQzggpTHWzM5BPSd9gWeeS25rVMqbSjt9Km7ENX9gNumSHaNBs7kabZSMquEc0IE02FM3HCYbln0AqaacMwM0HkQidyQY19n2ly/8OLpNe4A2SZEVbHIpoRVqDG0U05Jdd9tF/uH7BYHu0TIZUQAkiTexgx8GC/eXLD+3ukJ32ZEWcaEM1IFE29piknJXH8IbnrmVVUtmFU2QY12+G6Q8L+vU8ul16fHGDwT4TWrYhmhBas04ego/ZuGLNX+j22mOZaRCQkIhIVRqDPdHmw/0K56e0dEjPpRMRlV059wuspQTQjXDQ9kE85KQmfH5Zfvb9L+ozaJreM2sqTGMDAFTLQd9Q2uendnaZVJ2Yy00o89U0E16uIZgQXbjQAzDWG95w3yo/yCzcGEE1Ek6YkGIABGIABSwYQTctAhZsb4nxx8DAAAzAQfAYQTUQThwkDMAADMGDJAKJpGSgcW/AdGzElpjAAA+HGAKKJaOIwYQAGYAAGLBlANC0DFW5uiPPFwcMADMBA8BlANBFNHCYMwAAMwIAlA4imZaBwbMF3bMSUmMIADIQbA4gmoonDhAEYgAEYsGQA0bQMVLi5Ic4XBw8DMAADwWcA0UQ0cZgwAAMwAAOWDCCaloHCsQXfsRFTYgoDMBBuDCCaiCYOEwZgAAZgwJIBRNMyUOHmhjhfHDwMwAAMBJ8BRBPRxGHCAAzAAAxYMoBoWgYKxxZ8x0ZMiSkMwEC4MYBoIpo4TBiAARiAAUsGEE3LQIWbG+J8cfAwAAMwEHwGEE1EE4cJAzAAAzBgyQCiaRkoHFvwHRsxJaYwAAPhxgCiiWjiMGEABmAABiwZQDQtAxVubojzxcHDAAzAQPAZQDQRTRwmDMAADMCAJQOIpmWgcGzBd2zElJjCAAyEGwOIJqKJw4QBGIABGLBkANG0DFS4uSHOFwcPAzAAA8FnANFENHGYMAADMAADlgwgmpaBwrEF37ERU2IKAzAQbgwgmogmDhMGYAAGYMCSAUTTMlDh5oY4Xxw8DMAADASfAUQT0cRhwgAMwAAMWDKAaFoGCscWfMdGTIkpDMBAuDGAaCKaOEwYgAEYgAFLBhBNy0CFmxvifHHwMAADMBB8BhBNRBOHCQMwAAMwYMkAomkZKBxb8B0bMSWmMAAD4cYAoolo4jBhAAZgAAYsGUA0LQMVbm6I88XBwwAMwEDwGUA0EU0cJgzAAAzAgCUDiKZloHBswXdsxJSYwgAMhBsDiCaiicOEARiAARiwZADRtAxUuLkhzhcHDwMwAAPBZwDRRDRxmDAAAzAAA5YMIJqWgcKxBd+xEVNiCgMwEG4MIJqIJg4TBmAABmDAkgFE0zJQ4eaGOF8cPAzAAAwEnwFEE9HEYcIADMAADFgygGhaBgrHFnzHRkyJKQzAQLgxgGgimjhMGIABGIABSwYQTctAhZsb4nxx8DAAAzAQfAYQTUQThwkDMAADMGDJAKJpGSgcW/AdGzElpjAAA+HGAKKJaOIwYQAGYAAGLBlANC0DFW5uiPPFwcMADMBA8BlANBFNHCYMwAAMwIAlA4imZaBwbMF3bMSUmMIADIQbA4gmoonDhAEYgAEYsGQA0bQMVLi5Ic4XBw8DMAADwWeghWi+sDpbkqYl4zgQUhiAARiAARjww0AL0axuPC+niuvkyz2F0md2KgHzEzCcW/CdGzElpjAAA+HCQAvRFK9H3dkLsiurSl5amyO/mpUqSdOTJQYRwUjAAAzAAAxEMQMBRdPRz/MXLkpmeb3MPlwiz67JkXsXpEv8N7iicHFFnCeswgAMwEDwGGhTNB3x1NfK+vNyMLdaPt9fJC+uzZHb5qSSfUax4+JGDN6NSCyJJQyEBwPtEk1HQM9fvCgFVY2yPfuMfL2/WAYtz5Q4sk+abDAQMAADMBDhDHRINB3xvHhRRPs+C840yvacahm3o0D6MoCImybCbxoygvDICCgnyqkzGLgi0XTEU18viohmoBX152RtSrkMWkb22RkFxj6pCGAABmAgdAwETTS9BVR/P3fhoqSV1MlXewrl3oUZcvPsVIn/hjmgwB462Ik9sYcBGLhSBjpNNL1FtKr+vGzNqJL3thfIwOVZctOsFJowacKEARiAARgIOwa6RDQdAW04d0GyyutleXKFEdBHl2RIPCsQhR00V+rU+DxuHwZgIFwZ6FLRdMRTX6sazktySZ0sSy6XkZvyyD5xnJgHGIABGHA9AyETTUdAte/zTMN5SS9vkEXHykSzz3B1IJw37hkGYAAGIpuBkIumI57O64WLF+VkUa18uK1Aes9OlTgGD2EicN8wAAMw4BIGXCeajnjqa0nNWVmbXC7PrMmWexaky/UzGECEi41sF0v5Ur4w4G4GXC2ajoCevXBRkovrZPrhEnllfa5Z/5YViNwNFjc+5QMDMBCJDISFaDrieeGiSHntOdmbVy2TD5XIa+ty5FczyT4jEUyuiQoXBmDAjQyElWg64qmvDecvSFH1WdmXXyMT9xdJ/0UZEsv6t/R7uKTfw403O+eECMHAlTMQtqLpCKgu39d4/qKU152TPTlnZOTGXIll8BDiiXjCAAzAQCcwEPai6Yin92tZ7TlZfKxUHluWKTfOTGEBhU4AB8d65Y6VGBJDGAg/BiJSNB0B1W9gOVpQI+N2nZbHl2fJbXNTacJFQHHfMAADMNBhBiJaNB3x1NfC6rOyOb1SPtx1WgavyGL6CjdNh28asoPwyw4oM8osWAxEjWg6AqrZZ0ZZvaxKq5SPd56W++anUXkioDAAAzAAA1YMRJ1oOuKpKw9VN5yXrIoGWZlSIa+vy5HrZvDVZcFyY+wHZw8DMBCJDEStaDriqa8XLzZ9/2dOZYPMPFAsfeekWjmOSASCa6KigwEYgIHADCCa3up56ffG8xdkf261jN6cL3fOT5cbZqZIDE0XGAkYgAEYiHoGEE0/oum8df7CRcmvbJDFJ8rktY158vDiDEmaThMuLjSwCyU2xAYGIptQb1xsAAAR6ElEQVQBRNNRyDZeqxvPy6nCWpl5tFSGb8qTu+alMX0F1x31rhuBiGyBoHxbly+i2YZY+v5b17/Vb185UFAjs46WynOrsiWG5fsQDwwEDMBAVDCAaPqqouXf3sv3HS2qla/2FMqd85i+gjNt7UyJCTGBgchhANG0FEmbzbQJd0dmlck+te+Try+LnBuFSo+yhAEYUAYQTRs1bOc2OoUlq7xeZh0qloErsuT2eWmSMI0BRFQ6VDowAAPhzgCi2U5BbM/m2oR7puG87M2tlk/3FMqzq7Ol72zmgIb7TcP5U/HDQPQygGi2RwWvYNuzFy5KQWWjbMqokk/3FMngFZlMX2HgRFQMnEBgoldgIrHsEc0rEMKOfrTm7AXJrmiQjRlV8uG2AulN9ol4YCBgAAbCggFEs6PKF4TP6fSV+nMXpKjmrKxLqZCnlmey8hAVR1hUHJGYQXBNZMQ2DCCaQRC/YO1CVyBKL62Xz3cXyt0L0s3Xl8UyBxQRwUjAAAy4hgFEM1iKF+T9lNedkx0ZlTJ8U770X5IhN81i/VsbF8g2ZAswAAOdyQCiGWSxC/buNPvU7/9cdLJcRm3Nl/6LM2jCxXW7xnV3ZuXEvhE/NzKAaAZb5Tppf9r/WVV/To4V1sq8E+Xy1sY8pq8gnognDMBAFzOAaHaSyHXmbs9duCjafHu8uE7mHCmRx5ZmsvpQF984bnTAnBOZGQx0PgOIZmeqWxfsWzPQxvMXTQb68dZ86TUjBeeJgMIADMBAJzGAaHaBsHXlISrqzsnq5HKz+tCtc9NYQKGTbhwcfec7emJMjN3IAKLZlYrWhcdqOHdBkotqZfKBYnlmTY7cOz9d4ln/FveNiYABGLgiBhDNLhSyUB2qtPas7Mk5I1/uL5bn1+TIjTNpwnWjg+WcyKxgwP0MIJqhUrIQHFezz7zKRtmWXS0T9xXJw4szrshxcYO7/wanjCgjGAguA4hmCMQr1IfUry7T5fsKq8/KtqwzMnJTntxA9omBoNkOBmCgTQYQzVArmEuOX1R9VpYfL5W756WZvk+W7wuuO8XtE08YiAwGEE2XiJZbTkNXIDpcUCOf7Dwt/ZdkSp/ZqaxAhPtu030jCJEhCJRj2+WIaLpFrVx2Hucvimj2uS61UkZuLZAnl2cygAjxRDxhIOoZQDRdJlZuPB3t/0wvrZOlyRXy3rYCuX9ButB827YjxbUTIxiIPAYQTTeqlEvP6cLFi1JZf06SS+pkyalyeWNdjiQw9zPqnTfCEHnCQJkGLlNE06UC5fbT0r7PurMXJKO8XmYcLDaLJ3CjBb7RiA2xgYHIYADRdLs6hcn51Z69IPtzzsiwDbly0+xU6TU9mQFE9H+RhcNAxDGAaIaJKIXTaeZXNcrSE2XywtocuW9hOuvfUnFGXMVJ1hgZWWNHyhHRDCc1CrNzrWk8L0cKamTywRJ5fUOu3DkvjcoTAYUBGAhrBhDNMBOicDxd7f8sqTkru3OrZfKhEhm6Kkuum5Ec1jdORxwqn4ne7ISyj5yyRzTDUYXC+Jx1/Vud/7k7r1q+2lMofWenIp5kHjAAA2HDAKIZxgIUzqd+UUR0CouOwN2aUSUvrs6WuG8ix42SWVCWMBCZDCCa4aw8EXTu2oSbU9Eg0w4Uy4OLM8zyfXz/Z2RWOogJ5RrODCCaESQ8kXIpZxrPm+krY3eelidXZEnfOamsQETzXdg034WzIHDubRsaRDNSlCYCr+PchYuSW9kga9MqZeyuQnliWSZNuIgn4gkDIWUA0YxAsYm0S9L+z+rG85JeWi+r0iplzLZ8uX0uA4jICtrOCogRMQo2A4hmpClMhF+PDh7S+Z+ZFQ2y/GS5DF6eycpDZB4hzTyCXSmzP3cLPaIZ4SITDZeXXlYvE3cXmr7PuG9Yvo9K192VLuUT3uWDaEaDqkTBNWoTrn4Dy6b0Snl9Y67cvyid7/8kAyUDhYGgM4BoRoGgRNslnj1/UbLK6mXusVJ5dWOePLgoQxL5CrOgVx5kTOGdMVF+HSs/RDPaFCXKrlezz8MFNTLzaKkM35grN81KQTzIPmAABjrMAKIZZSISrZer2aeuf3vodK1MP1QiTy7LZO4nFWeHK06ytI5laZEQN0QzWlUkiq9bBbSy/rzJQMdszZcbZpB9RkJlxjVEr5B1ZdkjmlEsHlx6UwTK687J+pRyGbQ8S26clSIJ9H+SgZGFw0AABhBNlIMIXIqArkB0sqhWJu4rksErs+WOeWkSwyLyVJ4BKs+uzG44lnuyaEQTySACPhG4eFGktOas7Miqko/3FMqzq7PlZgYQIZ6IJwxMPSWIpk+FyZ9EwDsC2v+p376yPqNKxu8ulP6LMhhAhHggHlHMAKLpXUPyOxEIEIELF8Us35db1SjrMyrlnc15cj0DiBCPKBaPaG0yRjQDVJK8TQQCRUCbb7X/s6j6rCw4WioPLEpn/VvEAwMRJQwgmoFqRt4nApYRaDh/QY6frpEPthXInfPT5VezUmjCjZIKNFqzrWi+bkTTsmJkMyJgEwHNPtekVMiILfkyYGmmXEcTLhkYBiKiGEA0bWpCtiEC7YxA7dkLklJcJ/OOl8moLfnSb0E601cQj4gSj2jNNhHNdlaGbE4E2hMBHUCkiyccLayV/9/eufZGcZ5hmJ/Rv9Gv/YYggErbHGhApVFKlLZJg9QkrRKhNlFpeojStEVVGzVNK9HIBhuMwcQUg3EIYFMMxUANBNt78B699rJer9d73p29q9nUaZNAyHoPM7NzfbAszM57uPaZ5577nZnn7b+9qJ+OhHiACPFEPB0cA4hmPRmQz0KgAQIfle8r63Y8p4PX49p5xEvydHDydKvTcvu8Ec0GkiCHQqARAhWjqqvhFb12Nlyrf7uB6kNcRHARYfsYQDQbyXocC4EmEDCXcKPLRR27ldDukwF9q9+rLQembZ883O44mL99Stu187tANJuQ9GgCAs0ikC8bmpzL6G8Tcb18JqQdfV5eX8F9cQFloxhANJuV7WgHAk0kYBZPmE8XdTGY1jsTcb10KqjNuE/Ew0bi0U53Z6e+EM0mJjqagkArCORKRm351hTQt8bntbPfSwUixIMLCItiANFsRZajTQi0gIBZvq9QNhTPlHTen9LLpwMkTosSp52cD2Np771VRLMFyY0mIdAuAqFUQQevLWjXgF9be2bEE7jtTaAIlvt4I5rtym70A4EWEkgXKrocTOuN0ai+f2JWjx7ysISLC2UlogUxgGi2MJHRNATaTaBSrSqSKmhoeklvjM3p2cFZHiBqQeLEYbrPYa5+54hmu7Ma/UGgDQSq+mj/z6l4TsenknpzNKrHDnlwHggoMdBgDCCabUhgdAEBKwmYr68s58vyJQs69uGifjwU0EPdFE9YdQ78dq9rXMt3j2hamc3oGwJtJmBWHzL3//Qkcnp7PEbx+AZdx1qSLsc4W6QRzTYnLbqDgJ0IZEqGRn2p2u4rjx/x1vb/XI+QsIRJDNw3BhBNO2UwxgIBiwiYO7D4Enn1Tia0ZySs7xzzaSNLuPdNnLhFZ7vFRr4/RNOiJEW3ELArgaVcWTciK9p/PV5zoNt4gAjxxHl+HAOIpl0zF+OCgMUEypWqYumixsMrevdaXD84Mftx4mjkSp1j3evSOuG7RzQtTkx0DwG7E1gt35fIlnU5ktEfxub0cC+vr3SCADCH+i9gEE27ZyzGBwEbEkjlyzo9ldQzg35t6p5m+zKWL12zCoFo2jAhMSQIOIVAyahqJp7VX6/M67uDs9p22KONXbwDioOr38E5hRmi6ZTsxDghYGMCZgWiZLasC/5l/f5STM8PBfS1nhnXuA+nJHzG2biYI5o2TkQMDQJOJJAvGwom8zrtSWnfpZi+d9yP+2T5tmMuoBBNJ2YlxgwBhxAwd1/xLuZ1yrOkX56L1Ion4HYadzswtI4houmQ5MMwIeBkAubuK7mSofByUQM3E3p6wN8xzgMBs07ArGCPaDo5EzF2CDiUgFmB6GYso9+ORvV4n1m+b5r9P1nCdcSFFKLp0KTDsCHQKQTmV0oank7WyvftGvBTRB7xtLV4IpqdknmYBwQcTqBQNjQVz6rnZkJ7P4joiaNe3CcCajsBRTQdnmgYPgQ6jYB5/3MxW9K1aEbdkwm9OhLS1oO8vmLF/Tv6/Oz9WkSz0zIO84FABxEoVqpKZEq6Ectq/9UFPXnUh/vEfVrqPhHNDkowTAUCnUzAqFaVLRmaiKxo70hI66k8ZKl4uNWFIpqdnGWYGwQ6mMB8uqj+mwntPhnQY4c9eoj9PxHRNrhwRLODkwpTg4AbCGSKFU1GM/rT5Xk9fyqo7X1eCsi3QTxwml/SOjecYMwRAhDoXALm/p/n/ct668qCXhgKaMsBise7VdxaNW+cZufmD2YGAVcSMIvHm9WHAsmC3jcFdDymnf1eli5xn02JAUTTlWmFSUPAHQSMqpQtGoqkixr2pPST4ZA24z6bIh6tcnJ2bxfRdEfuYJYQgIAk04WGUgUdmFjQI4c82thN+T67i5TdxodokkogAAFXEsiXDF0OpvX6haieHPDrG70zvAPKEu4DXTii6cp0waQhAIFVAmWjqvBSQe/dSWrv+aieGfSzhIt43lc8Ec3VM4ffEICA6wmkixXdWcjqyO3F2v6fO/qof2u35VGrx4Nouj5NAAACEPg0gYpRVSJb0s35rPpvLerFoQBLt7jPmvtEND99tvBvCEAAAv8lYD44ZC7fmgUU7sRz+sv4vL552HPfpTurXRD9f7bAerOZIJqkBwhAAAJ1EEjlKxr1pfSjoaC+3jujTbzC4qqLCESzjpOFj0IAAhBYJVCtSr7FvHpu3NULp4O1AgrUv22902u2c6y3PURz9QzgNwQgAIE1EDDFM5Uv60o4rbevLmjPmZAePcQSbr1i5JTPI5prOEk4BAIQgMC9CJQqVc0tFzUaTOudqwvafWKW3Vc67AEiRPNekc/fIAABCDRAYLX+bdQU0EBa+0aj+urBGVfd+3OKc6x3nIhmAycGh0IAAhB4EAFTQM1XWFKFioank3pucBbxdLD7RDQfFPH8PwQgAIEmEjCXcGfiOf15fL5Wvu+RXo82dHX+AzT1Ojq7fh7RbOLJQFMQgAAE6iFgFlC46E/p16NRPXtilvq3DnCgiGY9Ec5nIQABCLSAQLFSlS+R13tTS3rz4pyePu5nCdemAopotuAEoEkIQAACayFg7v+5nC9rKp7TwNSSfvFBRA/38vqKnZZqEc21RDbHQAACEGgxAbN833KhoplEXkcm7+qpYz7cpw3cJ6LZ4sCneQhAAALNIGAYVd2OZfW7C1Ft7ZnRhi420LbCgSKazYhm2oAABCDQJgJmBaJEpqSTU0m9NBzSt4/6tIX6t21z4YhmmwKdbiAAAQg0m0C+ZGhqIat3r9/VnpGwnjjq4/WVFi/hIprNjmLagwAEIGABgbuZkv4VXtHfTQEdDmnLwem2uS8rlkmt6hPRtCC46RICEIBAqwgUyoZi6aIuR1a0/+oCDxA12Xkimq2KXNqFAAQgYCEBs3yf+f7nYq6sS4G09r4f5t5nEwQU0bQwqOkaAhCAQDsJzKWLGryV0K4Bf+0J3I3dLOHWu8yLaLYzYukLAhCAgA0I5MuGrkVW9MdLMT33j4C2HaaAwhcVT0TTBgHMECAAAQhYQcDcfWU+XdSIN6Xf/DOmH56c1Va2MPvcB6gQTSsilT4hAAEI2IxArmTU6t8OeVLad3FOO/u9Wt+Ee4Bf1ME55XOIps0Cl+FAAAIQsJKA6T7ThYr8yYJOTi/plTNBce/zf1u3IZpWRid9QwACELAxAbP6UMmoKpwqqGsiru193s9dunSKW2xknIimjQOWoUEAAhCwE4GVYkVXgsv62dmwth/x1p7AddsSLqJpp4hkLBCAAAQcQiC0VNDxDxf1ytmInhrwa5NLXl9BNB0SoAwTAhCAgN0ImAUUzPufk3MZdU0m9Nq5iHZ0+BIuomm3KGQ8EIAABBxIwHyAyNx9ZSKa0YF/39WLQwFt7sDdVz4hmmNjY+IHBsQAMUAMEANrjYHRsTGdPT+qwTPn9KsDQ/rKz3v15Vd7OubnE6K5bt068QMDYoAYIAaIAWLg3jHw/6L5HwbCyZdp9W0iAAAAAElFTkSuQmCC;" vertex="1" parent="WIyWlLk6GJQsqaUBKTNV-1">
          <mxGeometry x="40" y="-20" width="102.71" height="172" as="geometry" />
        </mxCell>
        <mxCell id="XFqM0QsjCBA94ZdpaxJI-8" value="" style="shape=image;verticalLabelPosition=bottom;labelBackgroundColor=default;verticalAlign=top;aspect=fixed;imageAspect=0;image=data:image/png,iVBORw0KGgoAAAANSUhEUgAAAcIAAAMBCAYAAAB8+7R2AAAgAElEQVR4AeydB5ycxZmnfbsX9vZu73b3fHcbb+/sdc4BW8gIRLJNMDkaMMnGBAM2GAwYk5MIkpCQBAgQQQQhIRBCEhLKOeccRmkkjTTKOfLePtVdX3/d0/3N9PSMpnvq379fq0f9paq3/lVPvW+F/sxnPvMZ01s2kAakAWlAGghYAyr8gAtfnSB1BKUBaUAaEATUEZAGpAFpQBoIXAMSQOACUG9QHoE0IA2ErgGBUCCUBqQBaUAaCFoDQWc+9F6Q8i9PQBqQBqQB9YLUEZAGpAFpQBoIXAMSQOACUG9QHoE0IA2ErgGBUCCUBqQBaUAaCFoDQWc+9F6Q8i9PQBqQBqQB9YLUEZAGpAFpQBoIXAMSQOACUG9QHoE0IA2ErgGBUCCUBqQBaUAaCFoDQWc+9F6Q8i9PQBqQBqQB9YLUEZAGpAFpQBoIXAMSQOACUG9QHoE0UGYa+MIXvmBf/vKXVS5Hr1wEQoFQGpAGpIFy0MD//b//155++mlbvny5zZ8/36644oqgYfiP//iPds4559itt95q1157rX3/+9+3//gf/2Nz2KS4CvDnf/7nLiH/4T/8B/uzP/uz5khQo+5JWv7Tf/pP7v3v/t2/a9Q9yqEiKA3F6VH2kr1agwZos37wgx/Y2LFj7cCBA7Z27VrbvHmzrVixws466ywLqU37y7/8S/vFL35hEydOtJ07d9rhw4ej98GDB23VqlX2wgsv2N///d8bPGqi8i+uItFDWbhwoQ0dOtSOPfbYpkpEyfe58MILbdmyZbZy5Ur7yle+UvL9msi4SsfRC23I1rJ1xWrgH/7hH+yNN96wLVu2uEb+s5/9rP3qV7+yDRs22Mcff2xf+tKXKjZvDW1LcWTw+EaMGGG7du1ybfngwYOdPbp06WLdunWzN99802bMmGFbt251nYV77rnH/tf/+l9NYZviQIiL+umnnzronHLKKU2RgCa5xzXXXGNVVVVOOMcdd1yT3LOhBajzitOQ7CV7SQPZGvje977n2tS+ffs6Twf7/NVf/ZU98cQTtmnTJvvd735nf/EXf9Fq2zXydvHFFzsb1NTUOPideuqp9l/+y3+pk+fPf/7zdsstt9ikSZNs9+7d9uKLLxoh5RI1lV0g9d2sXEH4z//8z3bBBRfYRRdd1KoFU1/56Hhxepa9ZK9y0ACeEB35Tp062X//7/89atS/8Y1v2Lhx42zu3Ln2T//0T9H35ZDmpkzDj3/8Y5szZ46tWbPGrrzySvsf/+N/1JvXY445xj744APbtm2bs9vf/d3f1XtNQpqLqwhNAUJiwAkJynvsP//n/5z3+2Lvw/kMtjZhbLnJ0tWYvOia4vQre8le5aiBr3/96y7kN3z4cPs//+f/RG0K4cK77rrLhUwvueSS6PtyzENj04SH99577znPlzz++3//77Py2a5dO+vTp4/deeedWd/zPK4llApAzzvvvDrHi0hTcRWjsSBkOvCzzz7rejbEvRnwJPaNB8fEm3wJbtu2rREqYNxv3bp1Nm3aNCMmfNttt7nM4xL7684991wjnkzvyX9HD6p79+7uO9zs6667ziZMmOBiyzwf0TEjyZ+vz+K0IHvJXtJA02gAD+j55593MPjmN78ZtUl/8zd/47ydPXv22GWXXRZ935rsTttdW1vrwqGEg3Pz9uCDD7oJRLT/ucf4/w9/+EPHh/fff9/+5V/+Je85+a7L+a64gmwMCClYMnHo0CE3C4gYMIPC+/fvt+3btxsZ/eu//usoA8wA/elPf2oLFixws4WIAzODCheYvwEjs4emTJkSXXPjjTe6ezJ+6TMIfMePH+/GNHGhERPP417c58iRI0ZaeJa/Rp/F6UH2kr2kgabRAEM7dPjp/OMJYtf27dvb6tWrXaf9f//v/93q2qn/+T//p/Xq1ct5dMyazaelBx54wLFj6tSpeY8zWeb11193Dk6bNm3ynpPvvjnfFVeIxYKQeDeeF+DCW2NaLND79re/bc8995zrCQBFBkr9cgwGPvv16+cyDwxvuukmN2vq+OOPd70mQAbwigEh4HvllVeMWPRXv/pVu+GGG2z9+vUuXUzFzTGK/q8ZiNKANHBUNcA8ByBIe0gEizbpjDPOcDMk6eg30/q5o5rH3Hb2i1/8oosSDhkyxD73uc/lTcvtt9/uWBCP9uXeh1UD2O3yyy9v7LBX84IQdx7Pb+nSpa5QPezICL0BpsRynPUzvqBPOukk1zNiiiyAjGca+n/44YfOUywGhIRE//Zv/zbrXsSd8QoJ0bbmGVlx++nv4vQue8leR1MDjHMxbDNz5kw3/sUMeJaFDRw40LWXRzMtR+NZX/va15wn9+ijj1qhuSMsI8GRGjZsWFb7HU/faaed5rzKrl27FrxP/Pw8fxcn9GI9wo8++sjR/NVXX80Kf/qE+HDAjh073KwoxgsZy/OhT9bX+HP9Z+fOnV3MuBgQPvPMM3XuwwwtPEsWbpY446jOvX1a9VmcvmQv2StkDfy3//bfnHNA+8f8BuY5dOzY0UXOmB/R2mzDsNnGjRvdzjGF8sY8EjYZwAEqdA6RPobMWIv5X//rfy14XqHrP5NwIO/NigXhrFmz3Hgccd58z2JGEFODARJjdWSiQ4cO7v9vv/123mm0AAzDFAPCe++9t87z/XMmT57cqqcm57O7vhNwpIHy1ACdctpN1g8SEmWNIXMdGBKi/W1N5cZsWYao7rvvvmhcNDd/J598smvvieDlHvP//8lPfuI86Zdeeinv2kN/XsJncWIoFoRLlixxE2QK9WYoZIAGCK+66iq3hoaeEP9nVmh8Eo3PhEBYXJl5u+lTdpMGKkMDeErMrsfLIVx69tlnu0kz+/bts/vvvz8LCDgQ7MMZX39YKeXMxuKLFy92c0IKrZPke855+OGHs/IdzyOz/5l5Cp8KrUKIn5/n7+KEUSwIiXUzW/Ohhx7Km4kTTjjBbS7LWB1jg+wk8MgjjzgQvvvuu/IINWEhr27yCFnnSSutSgOsqWN9HBMGGQNjQgjbW7L/JkvFCBm+/PLLLuJGG4vTgQfJ3ItKWSfN0BfLHhgHZRlEvnrNDFomEuXO8fDnEk4mukeIlSV3/vsiP5sXhMCMTVPZIy43I0ycYTINGWDGDwXIYkpmltLzITzA7uO5GWK2qUKjxZVbrg31f9lPGihvDTB5hBnzbLzN8NGZZ57p9uJk9jtLKlgKRtsJSJ566inXXuIVMbGGMbP4xMRyLWs/J4SwL8NXftlIPL2sFqAzwNyQ+Pf8zWbkAJQOAqsT/vVf/7XOObnXFPh/cWIo1iNkP1J6MBQcoc/47Ewgx+AmA8MUnndpGTfkZ0iYQMMeovGEk1F2EgCuGiMsruzidtTfsp00UP4aYGgIGDLrnjdtKKHC888/34UBaR9pR3Eg+BEEJtbQ1gKOSy+9NKvtLNfyZpwQiAF8lovkppO1gewryr6ruceYU8I6RMLI2CnOl9xz6/l/cWLwIGQgF7ecSTD53qznIMxJAb311ltuiQR7yRHnZaYoU2LxEunVUHC4/v6nRvyyCrxCphITKqXAb775Zre3HDuTM4YoEBZXdvUIoY7IdL7sKw20vAYY+6M9XbRokZtAww5dLDvIVzbsUMN4IaFGwqqV8OO+LJu7+uqr3TIKGHH66adn5Q2GsO48dwyRCCNeItHE3r171zmezz4J3xVX0B6EeGR79+518WkWq+e+BwwYEK174WeRcN+JY3Me7jtrBFk/COjoufg1hCQUIJJxfuoJb5HrOB9oci09I7+8wmesvp1lNGu0uHL2dtWn7CYNtLwGCBl+97vfdZ4R7S4z3RkjzLcHM7NO/e8a4m1VQvkRBmZPVaKHMOGOO+4wtpcrlHbmlgwaNMgxaPTo0UY+vSNV6Jp6vi+ukPmRSMKY9b1zt01jDzm8QAZ5p0+f7vb8ZFbod77znYKZJSzw+OOPu6nDbK/Tv39/Fyfv0aOHGyPEXfaZw6VmuQXp8t8xEPvkk0+673IX5nMOvRDOZ41hQ3Y79/fVZ3Gakb1kL2mgaTSAd8Rv8+EFERmjTfx//+//uWElxgQ5zk824TgkLUAv1/Lg55XY9hInCQ+YFQInnniiAz77iLIjGLvQsN0mzhB/53qKjcxb0xRQIx8eQSv3eiDI3nq5s5+ICbMNEfuWJi2wzL2f/l+e5axyUblIA8VpAO+Qjj8QIELGm41L2IoMcFRXV7vQKEvTKtG2OEeM+wFCgE9EEC+YNx4j+7EyTwRoNmH+iiuEJnxwwUwQE7/77rvdRBoWSgJF3F7ASOYpaGaNEqY9GunRM8pPIyoTlUnoGsATYhcuhp2YaLJ27Vo332LkyJHG0otKmDVaqAwZKuM3GpkAQ3SRiTKPPfaYC58yUagZInjlV6HYT5Q945g1Sq+A6cKESJl0wwAwbjMhzc9+9rMCodaOSQPSQNAaYNYoE0z8wnt+zNfPwC8EGn1fh3t1vmhxUdGT4ccpWYTPNGBiwf7NDFMgWQmzoSS28tOWykRlIg1IA3k0UL5GYU0IU2SZKswknWOOOca5xMwwKnGGUIvDPk9BKE3ybKQBaUAaaBkNlC8IBQuVjTQgDUgD0sBR0ICMfBSMrF5ey/TyZHfZXRqQBhqiAYFQIJQGpAFpQBoIWgNBZ74hPQWdox6lNCANSAOtWwMCoXqC0oA0IA1IA0FrIOjMq5fXunt5Kl+VrzQgDTREAwKheoLSgDQgDUgDQWsg6Mw3pKegc9SjlAakAWmgdWtAIFRPUBqQBqQBaSBoDQSdefXyWncvT+Wr8pUGpIGGaEAgVE9QGpAGpAFpIGgNBJ35hvQUdI56lNKANCANtG4NCITqCUoD0oA0IA0ErYGgM69eXuvu5al8Vb7SgDTQEA0IhOoJSgPSgDQgDQSsgc9d/HvTWzaQBqQBaUAaCFUDnzn+lXmmt2wgDUgD0oA0EKoGPtP+9cWmt2wgDUgD0oA0EKoGBEJ1BNQRkgakAWkgaA0IhKoAQVeAUHvAyre8P2kgowGBUCAUCKUBaUAaCFoDAqEqQNAVQL3iTK9YtpAtQtWAQCgQCoTSgDQgDQStAYFQFSDoChBqD1j5lvcnDWQ0IBAKhAKhNCANSANBa0AgVAUIugKoV5zpFcsWskWoGhAIBUKBUBqQBqSBoDUgEKoCBF0BQu0BK9/y/qSBjAYEQoFQIJQGpAFpIGgNCISqAEFXAPWKM71i2UK2CFUDAqFAKBBKA9KANBC0BgRCVYCgK0CoPWDlW96fNJDRgEAoEAqE0oA0IA0ErQGBUBUg6AqgXnGmVyxbyBahakAgFAgFQmlAGpAGgtaAQKgKEHQFCLUHrHzL+5MGMhoQCAVCgVAakAakgaA1IBCqAgRdAdQrzvSKZQvZIlQNCIQCoUAoDUgD0kDQGhAIVQGCrgCh9oCVb3l/0kBGAwKhQCgQSgPSgDQQtAYEQlWAoCuAesWZXrFsIVuEqgGBUCAUCKUBaUAaCFoDAqEqQNAVINQesPIt708ayGhAIBQIBUJpQBqQBoLWgECoChB0BVCvONMrli1ki1A1IBAKhAKhNCANSANBa0AgVAUIugKE2gNWvuX9SQMZDQiEAqFAKA1IA9JA0BoQCFUBgq4A6hVnesWyhWwRqgYEQoFQIJQGpAFpIGgNCISqAEFXgFB7wMq3vD9pIKMBgVAgFAilAWlAGghaAwKhKkDQFUC94kyvWLaQLULVgEAoEAqE0oA0IA0ErQGBUBUg6AoQag9Y+Zb3Jw1kNCAQCoQCoTQgDUgDQWtAIFQFCLoCqFec6RXLFrJFqBoQCAVCgVAakAakgaA1IBCqAgRdAULtASvf8v6kgYwGBEKBUCCUBqQBaSBoDQiEqgBBVwD1ijO9YtlCtghVAwKhQCgQSgPSgDQQtAYEQlWAoCtAqD1g5VvenzSQ0YBAKBAKhNKANCANBK0BgVAVIOgKoF5xplcsW8gWoWpAIBQIBUJpQBqQBoLWgECoChB0BQi1B6x8y/uTBjIaEAgFQoFQGpAGpIGgNSAQqgIEXQHUK870imUL2SJUDQiEAqFAKA1IA9JA0BoQCFUBgq4AofaAlW95f9JARgMCoUAoEEoD0oA0ELQGBEJVgKArgHrFmV6xbCFbhKoBgVAgFAilAWlAGghaAwKhKkDQFSDUHrDyLe9PGshoQCAUCAVCaUAakAaC1oBAqAoQdAVQrzjTK5YtZItQNSAQCoQCoTQgDUgDQWtAIFQFCLoChNoDVr7l/UkDGQ0IhAKhQCgNSAPSQNAaEAhVAYKuAOoVZ3rFsoVsEaoGBEKBUCCUBqQBaSBoDQiEqgBBV4BQe8DKt7w/aSCjAYFQIBQIpQFpQBoIWgMCoSpA0BVAveJMr1i2kC1C1YBAKBAKhNKANCANBK0BgVAVIOgKEGoPWPmW9ycNZDQgEAqEAqE0IA1IA0FrQCBUBQi6AqhXnOkVyxayRagaEAgFQoFQGpAGpIGgNSAQqgIEXQFC7QEr3/L+pIGMBgRCgVAglAakAWkgaA0IhKoAQVcA9YozvWLZQrYIVQMCoUAoEEoD0oA0ELQGBEJVgKArQKg9YOVb3p80kNGAQCgQCoTSgDQgDQStAYFQFSDoCqBecaZXLFvIFqFqQCAUCAVCaUAakAaC1oBAqAoQdAUItQesfMv7kwYyGhAIBUKBUBqQBqSBoDUgEKoCBF0B1CvO9IplC9kiVA0IhAKhQCgNSAPSQNAaEAhVAYKuAKH2gJVveX/SQEYDAqFAKBBKA9KANBC0BgRCVYCgK4B6xZlesWwhW4SqAYFQIBQIpQFpQBoIWgMCoSpA0BUg1B6w8i3vTxrIaEAgFAgFQmlAGpAGgtaAQKgKEHQFUK840yuWLWSLUDUgEAqEAqE0IA1IA0FrQCBUBQi6AoTaA1a+5f1JAxkNCIQCoUAoDUgD0kDQGhAIVQGCrgDqFWd6xbKFbBGqBgRCgVAglAakAWkgaA0IhKoAQVeAUHvAyre8P2kgowGBUCAUCKUBaUAaCFoDAqEqQNAVQL3iTK9YtpAtQtWAQCgQCoTSgDQgDQStAYFQFSDoChBqD1j5lvcnDWQ0IBAKhAKhNCANSANBa0AgVAUIugKoV5zpFcsWskWoGhAIBUKBUBqQBqSBoDUgEKoCBF0BQu0BK9/y/qSBjAYEQoFQIJQGpAFpIGgNCISqAEFXAPWKM71i2UK2CFUDAqFAKBBKA9KANBC0BgRCVYCgK0CoPWDlW96fNJDRgEAoEAqE0oA0IA0ErQGBUBUg6AqgXnGmVyxbyBahakAgFAgFQmlAGpAGgtaAQKgKEHQFCLUHrHzL+5MGMhoQCAVCgVAakAakgaA1IBCqAgRdAdQrzvSKZQvZIlQNCIQCoUAoDUgD0kDQGhAIVQGCrgCh9oCVb3l/0kBGAwKhQCgQSgPSgDQQtAYEQlWAoCuAesWZXrFsIVuEqgGBUCAUCKUBaUAaCFoDAqEqQNAVINQesPIt708ayGhAIBQIBUJpQBqQBoLWgECoChB0BVCvONMrli1ki1A1IBAKhAKhNCANSANBa0AgVAUIugKE2gNWvuX9SQMZDQiEAqFAKA1IA9JA0BoQCFUBgq4A6hVnesWyhWwRqgYEQoFQIJQGpAFpIGgNCISqAEFXgFB7wMq3vD9pIKMBgVAgFAilAWlAGghaAwKhKkDQFUC94kyvWLaQLULVgEAoEAqE0oA0IA0ErQGBUBUg6AoQag9Y+Zb3Jw1kNCAQCoQCoTQgDUgDQWtAIFQFCLoCqFec6RXLFrJFqBoQCAVCgVAakAakgaA1IBCqAgRdAULtASvf8v6kgYwGBEKBUCCUBqQBaSBoDQiEqgBBVwD1ijO9YtlCtghVAwKhQCgQSgPSgDQQtAYEQlWAoCtAqD1g5VvenzSQ0YBAKBAKhNKANCANBK0BgVAVIOgKoF5xplcsW8gWoWpAIBQIBUJpQBqQBoLWgECoChB0BQi1B6x8y/uTBjIaEAgFQoFQGpAGpIGgNSAQqgIEXQHUK870imUL2SJUDQiEAqFAKA1IA9JA0BoQCFUBgq4AofaAlW95f9JARgMCoUAoEEoD0oA0ELQGBEJVgKArgHrFmV6xbCFbhKoBgVAgFAilAWlAGghaAwKhKkDQFSDUHrDyLe9PGshoQCAUCAVCaUAakAaC1oBAqAoQdAVQrzjTK5YtZItQNSAQCoQCoTQgDUgDQWtAIFQFCLoChNoDVr7l/UkDGQ0IhAKhQCgNSAPSQNAaEAhVAYKuAOoVZ3rFsoVsEaoGBEKBUCCUBqQBaSBoDQiEqgBBV4BQe8DKt7w/aSCjAYFQIBQIpQFpQBoIWgMCoSpA0BVAveJMr1i2kC1C1YBAKBAKhNKANCANBK0BgVAVIOgKEGoPWPmW9ycNZDQgEAqEAqE0IA1IA0FrQCBUBQi6AqhXnOkVyxayRagaEAgFQoFQGpAGpIGgNSAQqgIEXQFC7QEr3/L+pIGMBgRCgVAglAakAWkgaA0IhKoAQVcA9YozvWLZQrYIVQMCoUAoEEoD0oA0ELQGBEJVgKArQKg9YOVb3p80kNGAQCgQCoTSgDQgDQStAYFQFSDoCqBecaZXLFvIFqFqQCAUCAVCaUAakAaC1oBAqAoQdAUItQesfMv7kwYyGhAIBUKBUBqQBqSBoDUgEKoCBF0B1CvO9IplC9kiVA0IhAKhQCgNSAPSQNAaEAhVAYKuAKH2gJVveX/SQEYDAqFAKBBKA9KANBC0BgRCVYCgK4B6xZlesWwhW4SqAYFQIBQIpQFpQBoIWgMCoSpA0BUg1B6w8i3vTxrIaEAgFAgFQmlAGpAGgtaAQKgKEHQFUK840yuWLWSLUDUgEAqEAqE0IA1IA0FrQCBUBQi6AoTaA1a+5f1JAxkNCIQCoUAoDUgD0kDQGhAIVQGCrgDqFWd6xbKFbBGqBgRCgVAglAakAWkgaA0IhKoAQVeAUHvAyre8P2kgowGBUCCsSBCe+fZSu+r9FfbLASvson7L7KQ3MqJWBZctpAFpoBgNCIQCYRYIHxix1gYt2+7efxq51k7tvSTreDHiao5zL+i7zF6ZsdHGrd5pCzbusUWb9tiMdbvsnmGryyqdzZF33VONuzTQPBoQCFsZCM94a6k9OGKN9Z9Xa6Orttv4VTts+PJt9tbMjXbb4FX243rA9vbMjXboyKfu/drsWjvtrfIB4fl9ltq8mj229+BhO3LkU/v009T70OEj9tSYaoGwHi1jo24T1xd8PzdhvT0zttr+MHS14XGr0W2eRld2LT+7CoT1NB6VItqT31hiHceus/U79keA8KDwnwBuwYbddsNHK+2kAvl+Z9bG6Po3ygiEJ76+2Gas3Rml7fCRI1az66AtTHuFd368Sg13gTL1Gq7ZdSCyn9dEoc8Dh4/YtLU7DbuerLCztFWPtrzGKvVTIGwFBXxh3+U2Ytm2yEvCQ9qx75DV7Dxg63bst027Dtju/YfscNqL2rn/kOv55/MOyxWEvxu00micabhJf+9Zm+zsd+S1FNPweBAe+fRT23fwsO3af6jOe8+Bw3YwbWdn632H7K05tXb+u8sEg1bQVhSjl5DOFQgrXNwX9l1mw5ZuM+BHw7Vt70Ebvny7dZqw3u74eJX95t8Acvew1fb81Bqbvm6XawA5j0bwoVFr6zRu5QrCV6fVGF4gjfjMdbvtkn7L66Q9pIrbmLx6EALBIUu3WbcpG3LeNfbi9I327oIttqBmtx04lNIUoejXZ22yH79ZPmHyxuRf15RfSLJcykQgrGAQ4tH1mFpjO/cdchDEC+wxuSZv751ZlVd9UGXjVu1wPX6AMq9mt/38vWyglCsI+y/Y7DxaYDhk2TYjVFoulahS0uFBiEd9/+jkMdXrBlTZBwu32P40DOlg0amqlLwqnaofxWhAIKzgBvVXH1bZvA27nZeEl/fevFo7vZ5e+2+HrLLa3QcjcHaauD6rcStXEA5YtMWFfvF8P1yyNSvNxQg+5HOLASF2+sX7K7LGZT9asFl2r+D2ImTt15d3gbBChY1H9PDYdcaYDhDcsuegnf5W/WNmTHyYuCY16QTvasCSrVmTIfKB8OTeS6zzuGobvnSrTVqzw8ZUbbfXp9XYBUWMG13Vf7m9NaPGxlZtt8lrd7oZrW9Mr7HLcjzSuGC5f+dx66z7hPU2Pw18xjkX1Oxx3/E970LjV+T19sGrbMC8zTZx1Q6buHqnfbxoiz00Yk3ispAbB660ruNTz71t0Eo7pfdi+/3Hq2zwoi02ac1OG7Y0P4gpk1sHrbT359bahFU7bNLqnTZ08RZ7rIhlKKf0XmJPj622IYu3uPS6NC/eYk+MWms/qaeTE7ddvr+LBSH26zRpQxR2X7F5b0EQkneiC72m1Th9TF6z00at2GY9J6+3S/tmRx3iabuk7zJ7eky1K8dH06F6ohe3DVllH8yrdXqbsHqHDZi/2e4YkjzrucPote4+HUatNe7Lc67ov9zeZrnNyu2uPIYt2eJmGDd0WRCT0O77ZLV9NL/WaYh8jVy2zV6YtN7O6aNx03hZVvLfAmGFgvBnby+1DxZsdhAEhEMXbSnYSOUKtNfUDW6skLGiCat3Zo23xUH41tzN9uSYatuwM/9sw90HDlvXSesLQoUGDdANXbLVDh3OLHcgvf598NARG7R4i0tD7qL4mz9e7cYy/bmFPm8fkr2GkAb8qg9W2Ox1O6MJQvFr6QAs3Ljb7hy62mjo6thn9qZofGzMsq329qxNbsmGvwezb+PX8Lwr096Tn5Dkz+WTpR7LavfYHz9ZY4Aufq3/m/E3li54bz1+vb/Hyi377IGRawvew9+r0GexIOQ+942qdhOvSEPtngN5004H7O3Zm9wkptx08//New5a9yk1hmZz0/bHT1a7yVyct2rbfrdJwsjl22xfOiQbvx+TeIYv21oQQEwM4/yaHfudbt+Ytcl27U91FOP34W9s+csBVek3sKwAACAASURBVHXS49NHOf1x+BpbvHGPG5vOvZ7/o//eM2rsp2W0xMinX5/FhYYFwgoFIZNF5lRnlhM8Ws+YT7xiXPHecus0ttq97x22OquBioNw2ea9tn3fITemuHHnAVu1dZ9Vb9/vxiT9Or6tew7ao2Oq64zZAbWbPlpps9btihoSJuis3rrPlm7ea2u27XMzWWlQCHdOX7vLrh+4MmuHmF9/tNKW1u6x6m37s4C4e/9h9x3f8+Y5Pn+nvLHE7vlkjW3YmWoUuXft7gO2Yss+W755r2t0ARnPJS13f7ImyyPmPr1iICS/TBohv0waYXwNm/jnAVKAunrbPndPILt598HoedjNP4975QPZaW8usZ7TalzDSroYl6NRx/6ke/PuA1H4mxnAj49dV7Dz4dOV77MxIHxgzDrblY46cH3ufS/ut9wmrNzu0oeNGK/GFpTx2m37bW/6Wmz32sxNdbzaOAgBy8x1u5wetu896O6D5mp3HciayYpnfmKeJR0ehFxbtXmv6+ztPnDIaXbl1n22YceBaLIYdq7asi+rE+jzhrf45Pj1UaeE8t+wY78tqd1ri2v3urLxY6fMZO43v9ZYv+uv12dxECoHewmEFQrCK95fYSu37I0a38veX9EkFTEOQhoLQNdvwRa7b8Qau/GjlXb7kFXWdfKGWMP/qY2s2l6nl35Rv+U2asX2KKxGw9R1yga7+aOVznsihNh9ao2tTQMEYDHblaUgvmKwqJvzeObE1TscjPC4CO3ynX/HG6EbB62yxZv2unNppMau3GEPjaq2Xw2osms/WGH3j1xjo6tSE4bI34zqXXb+u5ln8uw4CDmHSUijV+6wF2dssmcnb7CuU2qiNF43cKXN3YDX8Kl7T1y10x4ZXW1MNrnmgxXObuTLz8Ccs54JStlldXsMpDSw78/fYn8Ytjq9hVyVu9+UNXi3qVmceCmX9c++h7dZ0mexICQU+9KMjZFXvbBmd5RvnnPW20udN+/zDrjx/G4etNKNL/5u8CrrPac2Agp2JF/xNMZBiK33HzxsU6t3GWPXtwxa6TT38Ki1NnzF9sgrB6rYNn4f/vYg5D6kaVntXjcL9vdDVtkNA6tcB6nfvM22dW9qchm2fnn6xjr3+fXAlQ6e3IdlR+8v2uJ2Lrq8/wq7rP9ylweiGPsPpbxNlin9acSaOvfJTZ/+X76AFAgrFIRXDqiy9emQ5Z6Dh+2cIsbrkipkHIT07rtM2VBndxl64x3Hr3MQprFYUbvXNVr+vnhlT49fH41f4rUxSSd3pif3+f3Q1YbXlGp0DluHcevqeGjcNz5ZhnFN/6z4J6G3/gu2RNCZtmZnnVmxnM8epbOrd7ln0hg+Mip7BmUchDR2r83caBf1XV4n/QCYNXbeO5i7fpddkQdQP++33Kanx2UB4tPj1mfdq/u0jVGjunDDbjs7Twjx2gErbHntHpdmAH/fyLVZ94jbodDfxYIQyAMTyoY3uxPF7/3ImGoX9uTYpt0H7J7hdUO/p7+91NihiDA8501dszPrHnEQ0hliDPbqAVVZkQGe+csPq2zuht1RWl6ZsiHrPpwTB+HS2r0utJkbimbt6Ug6aEdSXv6YVTvrPKv3jI2RB84yk3xjgYxLM25NniiP1+fU5vVS4/bS3wJhHdFKFKWJ4qoBVbYxvVMI4bp8lbUxNo6DcOJKPLT8EwLYes03bvSI/xjrEZ/x9lKbkQ7b0jOnd587/ufTxvcvTq2JGp6pq3cY1/vj/rMhILx58CoXEqNxYjzpug/zjwERznxi3PoImGOXb8t6XhyEeDmFthsDFEs2peDE8wjt+vTGP8nj/aOqI2Bi13gD3Wt2bZT/kYvzj/WyVKbn1A3ueTzz8THVBW0af3b874aCEPswoWj+xj2RR09nJe6F0gn4eNn2yFv8aOGWrDzFn3vL4FW2cnMKqPsOHrFzY5NM4iAk5Iz3l9th4l7Yq++CLdHzhuXpDHkQoks82UITYnpMXu88T3TCln3n9MnW22Mj19i7czZZn9mbXJnmSw9peje2C9PgpdsUHq1Qp4KylEdYoYUXByEhp+YA4RtzkvcaZRIEjQljYjT0vvHDO2Ucj2OEPq/8ID+Q/Pl4AMCU83cUgHpDQPjQmHVR+IwwXqEGjOfe+vHqaBIQY1o+LXzGQch+rfFj8b/vGrE28nqXbNyT+LzrPsqE29Zu35fVSHeLeYRMTCo0yxKgAgTehToW8fTl/u1BiJ3J8+z1u7LehG3ZxLx2z0EHQNaaci4Rh6fHrbNTYuNyjMsuS3cCOIdwaO7z/P/xnkav3O7uxblA1h+Lg5D05fOo/bmvzq6Ndhdi9rH/3n96EBLOf2zcujrH/XmPj14bjV0y5pe7lhbbMgGKd5KGmDlKfniPWFF3eMA/T5+ldfqPhv0EwlYAwubyCOvba5RJKDQCgPCBGAgZB/INxNRVO+yiAl6lFzgTf2bH9hEljOqP+c/6QMh41sszM/ukTqrabtcPWlnw/fjY6mh8kskg/jl8xkHIOGf8mP8bb+O5KRuy8pn0vIdGV9uq9Jguk0Liu7SQX0KQfgISM0f7za01PKmL31tu57yzLAucPg3FfsZB6Mun0CeePBNdmF35zPj1xoSe+PPuHbk2ikjsP3zEbhxc2NY3Dl5lI6t2RLZ6fVomrJkLQsbh4s+J/x0vl3Erd9Q5LwuEYwuD8LFR2SBk3C/+HP83HQ46mJf2X+HCrC9O2eDCw31nbzTeM9Zm8iQQlj/sfLnm+xQIKxSEjBH6ir/v0GE7txnGCBsLwmdj44dDlmy1c+rZE/S8PsvcXqm+UX5qbMa79KKtD4SMD74fW07i79WQT8aL4rMQ4w1uIRASGn5nbm3UuDfkOf4cnhdfE8izHx6zzoU94/t8MvbITNOJVdvt2Ukb7KZBq7Jm+HrbNPTTgxDIsTn7kk1767zZxHzm+t02bMV2e3HaxryTUnge6WW3GZ+nYj77z94UgadcQQgAnxi7ziav3hEtH0nKo0AoEEaibmiF1Hmli+by91e4SSpUTjyJXxUYnyrW1vExwsaCsPvETMjow0Vb7Kx6QEijw1pD39A8O6Fub74+EDIJYtCiLdE9gAgh44a+6f17WzUEhIyR9Z+fWcdZ7PNOy5luTwiO8CLPnrNul9sggckj3iYswWC5B/BlxnBSyM7nI/fTg5BNGF6YVuNmtjK7Nf5mNibjwvXd/9Fx67IA0VA7c17fWZlJN+UIQsaE+8yrNZZhYH/WNK6o3eM2SWB7v4GLt9qHi7ca4XdfPgJh6W1arl6P5v/lEVaoR8gsxmmrM6GZrjlbpSWJ6DcfVRmL5Xl3nLg+a/JCU4CQ8STfQHyydFvW/fOlizGkMcu3Rdc8NrruZuD1gRDYDliYAeEnS7baHZ+safC7WI+QReTvxjzCUcu3NfhZpCvfQn5swy42V3+wwm4bttqenrje7WZTtSUTNmUiCI3uBbFlJvlsmu87D8KG7DWa7/r4d+xqtD29DIFdjYqxNbN2/b3KEYTMiPY7Nq3fvt+Vw/UfrbRL/y2ET6eN6AOw7DUtExoXCAXCSNRe3PpsflEQmmONlgfOlNV1x0wKlQOz4fBgeLPO7rxYWLUpQHjDoFXRLMjZ1dk71+RLE5MVFmxILWfAu2WqfO559YHwp28usVdnbYrsMXRR4/fFbIhH6Dc89/YfsST/bM/cfBTzf5ah0OBe2G+54SXjTfE8lmAwxlmf15b7rKYE4Z9Gro12hGEyTaEZmrlpyP1/OYKQX97AzuSrw4TCOyc9r8kydeppbvlWyv/lEVaoR4jA7h1VbdvSvXI8hcsa8NNEzIibm67ojEf1mZ/dgDcFCM/us8zNPKQxYeLHtR8WnlFIPgjrMnWe81kSwvW5Fag+EHL+Q2PXGdPzuQ871zRmZiX3aQgIOY9Zoyzu5nnMBG3M8y58d5k9Obra+HX4Dgm7AwHeN2OgH7ZoS0GvMtd2/v9NCUI2RlgemzUanwnqn9eQz3IEIR6zK9Nt++w3g+tO3PL56jOzxp3HufIIm7/z7+3eHJ8CYQWDkKnmk1fvjGYbjqvanjgex3TwR0evjTwLZnvm/iZhU4AQb3Xksq2RV0gIkYY8n4CZNPJhepIL0/XZ0Jrrc89tCAjj6whpnDqNz57yH78ntmA/0ms/rKrjzTQUhKwjXBqDwXMTCz8PSDK2B/TjM0ZpaNmKjPQSjmPiUDyd/m+uf3RsJuQ8aimbpde1kz8/32dTghBPdWhsHSG/Zp80Fkzn5pYhq9wM2HjayhGEPixKp+z2Yavzet6ERydUZZaECIQCYd6KGxe7/m4ekRAao3FkVw8a0v0Hj1jfeZvd9lY09HG7n/7WErev5vya1HZghCDHrNxeZxZiU4CQRptdRgAt6SKk12H8OvtZzgQRdlBhjJLlBJzHcow7P1mTt+FpCAhpnPrN3xwtXGdt4v2j1tZZEE8Y785hq93+pkxAeTDHE2soCJkw03t2beQVMlb28Ohqt/VY3PaUxW0fr3K/fgD0Hh+3LvIeGXdiKYBfOsGvTuT7RQ7Cx/yaA3bi3Jen1UT3iD8r6e+mBCHPeXBUdaQ9PGMmmLAUJh6yRQssiaBc0MOHC7YYYWyfznIEIdsBYmcmK/VdsDlr2z/Kkp+nemcO5Z6ZzDSqKnuIwedPn9ntULnaQx5hBXuEiIr9HnvHfh2BtV/TqnfZq7Nq3Y4uz0xYb92m1tgHi7e6WYdM3aeSMwGDCQC5wmwKELp0vbPU3p5bG006IPTJbDt2mWFXFD4HL9ka/WIBMHxzTq39rMAM04aAkOficc3ZsNvtQAIw1u84YO8v3GLPjF9nj4xaa0+NW2e959a6DZfdWrmDh63b5My6Nu7RUBByLpsBsDemtyteBGntOGG9e96T49bZa3Nq3QbaPI8QNhtsAwiup2FlE23/qxNs18W+qj2mbbQOY9dZh7HVrvzGrtoR7eQDvNkPk+uLeTc1CPEK+86rjX5ZhE3VGXPuNqXG+EklJj29MH2j8dNF3suavW5X1s+FlSMIe06tiTb5Zq/RUSt3uHw8N7XGbaU2vXpXtCCfusSbPOYuzC+mbHRucVpuansJhEU2Jk1dAE1xP7aIovL6X6onxOin8zOzD8j4hvrIkSNuej5hvXzPbioQcm8meby/YEvUaJAGvMMtuw+4T58mGsn35m9OnAnZUBACGDbeXhDblxK4MBV+864Dtm3PwWhrNRruN2fX1tmVpxgQ8jx+JWNWeu9SGkXGXuPPoyz4nkYVjz33dxwBCnD0k2EAODZhhxTe/IKC3+WFX0EAnPHwar5yzPddU4OQZzDjlx+E9nkE9tgVW1PO5IO08/2MtTuNH5OOp60cQciM7NHp/UgpN9KPx0v5+XySx2HLMjOdl27cYzcUqFPx/OrvlgVeIfsLhK0AhBQu4b5rB1TZ+BXbsn6yiIrMG+jgSbwweUPWLNFcYTQlCLk3YbDHR1Xb8tjOKT5NNPjsqIL3EA+X5aaJ/zcUhJxLaA64vDF9o9u6zUPEP5eQF2vA+EmkfM8tBoT+eeyP2mtqjVuonvs8IMD+oPxUFusH46FDn1fGUPkx2jnrdkbbiPn08smvMoxfud1uHbyq4J6e/l6FPpsDhDyLcd67hq22+Rt2RZ0Mn3bKmH1KX5ux0S7Os3F5OYKQ8mE3pLdmbbJte1ITZ3x+6OQsrNljd32y2i0LYjMLjtFh+ePIust+CpWFvi8vIAqErQSE8YrF4vJ7hq2259K/ss6WUvxwrA/Hxc89mn8ztvLU6GrrMWG9+/xFwnZaTZUuAHPTwJXWaew6e37ievfr5EySaar7596HDsn1H1ZZx7HV7nn8+jodlNzzkv5/bp+l9uCINe7X1rv+2y49/EJ6vo3Ik+7REscACD8xhd5YWkDabxuyMm9noyXS15hnMvTwp0/WOM12HrfO/ZxTfM/VxtxT15QXBCkPgbAVglAVrfwqmspEZSINlK8GBEKBsChvRZW5fCuzykZlIw00TgMCoUAoEEoD0oA0ELQGBEJVgKArgHrQjetBy26yW2vSgEAoEAqE0oA0IA0ErQGBUBUg6ArQmnq1you8NGmgcRoQCAVCgVAakAakgaA1IBCqAgRdAdSDblwPWnaT3VqTBgRCgVAglAakAWkgaA0IhKoAQVeA1tSrVV7kpUkDjdOAQCgQCoTSgDQgDQStAYFQFSDoCqAedON60LKb7NaaNNA6QfjaImuvt2wgDUgD0kAzaaB1dQQqF4SvLW6mAhZE1YmQBqQBaaDRGqjAKFvlgVAAVAdAvXxpQBoocw1UlsdYWSBsMggutPavFfNW77DRvUM1WGXeYEnb4Wi7Jdq8ygBiZYCwUQDMLfQF1v5VvWUDaUAakAYapIFEZ6HIDlSZh0vLH4QN9ihywbdQ4BP4pQFpQBpoCg28tqCeKFpDwFi+3mH5grDBXmACAHstsPbp9wm95pvesoE0IA1IAw3TQPte86P207WjHqileopl6B2WJwgbBMGGADBV4Me/Ms/avTJXb9lAGpAGpIEGaoB2k/cJr8yzLCh6IPJZEIr1eIhlBsMyBWGSEfMAELfdF07kBaYgmALgHGv3cs77pTnWrth37j30/7p2lU1kE2mgvDRQajv3ytxsGPq2Nv7ZGCCWEQzLD4SJY4K5EIwB0BdKGoSRF/jSbGunt2wgDUgD0kAjNZB2IvAOfbjUt7e5n3mBmODYlAkMywuExUAwtwD4v4PgfGvnQqF4fLPthJdn26/6L7Kh8zfa5KW1essG0oA0IA3Uo4FJS2vt1cnVdk7v+Sl44uXjGfbKCZPS5uZri+sAsRAMy2MCTfmAMHFcMO4J5jF8Vjg0PR5Iwb002656d6Gt3LLX9JIFZAFZQBYozgLjV2y1dj1n1YFh5BlGbW+edrmhMCwDr7CMQFiox5AAwXgh9Frg3PbjGQh2EJzjCrDjyCrbvf9QcaWvs2UBWUAWkAXswOFPrd2LMzMwfAXPMDWJJmsCTbwtjnuIdZZdFGjnWxiG5QHCgt5gwyFIoUTjgmlvkJ7Mc6NX2h6BUFVaFpAFZIFGWaDdCzMyIEyHSAmTpkDIEoucZRZAsWgYtmyItExAmK+X0FAI+oKglxLzBhkY7zlTIGyU9HWRLCALyAIpC7R7YXrKK3STjVJjhYAwe2lFfTCMt+f52vvQQdgQbzDeu4i74K4nwjKJ2DpB7w2+NMvavThDIFRtlgVkAVmgBAu0e36a1fUKUyFSHyZNjRl6p8RPXMz1DOuBYQuGR1veIyw4UzRttHoh6GeJ1vUGKbznRlcpNFpCJdClsoAsELYFUiBMe4Vu4oxfTuE3KUkvvE87Jlmh0nj7nTVeWF5eYZmCMNZziBsy8gZTPQ96IamlEvOs3csehIREU95gu+en23OjVwiEYddj5V4WkAVKsIADIV7hi7GxQsKkbuJMBoa0xXk9w3gbnjWTNA8MW8grLEMQNgyCqYkxhESzl0u0IyTac2bKlX9+mkBYQgXQpbKALCALHNdjqkXhUWaQ+o0JGIZyk2f8uGGqPc7AsBEh0iBBmDcsWj8I2fsu8gTdvnl+uzR2kcEbBITTXeHJI1RFlgVkAVmg8RZo22OKHff81FSb6r3CaG3h7DowxEnJzChNw7DBXmHLTJppWY+wDgjrgyBG9csk0p4g7nk0QSY1UzQCYY+p1nWUQqONrwK6UhaQBUK3QNvuk+1HPaakvMIX42OF6e0rI88wEybNwDCPV1iG4dEKA+F8t/lrFA6NlkukC4ReiguLprxBCq/LqOUaIwy9Jiv/soAs0GgLtO02KQVCQqR+KUU8REqoNA8M64RII68w5vA4KOaMFbZAeLT8QRhNkMnjDXrju5g1EMyERYlr/6j7FOsycplA2OgqoAtlAVkgdAu07TbR8AqPS/IK68CQiTM+RFpkeDQoENYJi9IriPUUfO8hAqH/WaVCIVEPwRnOhafQKDyBMPRqrPzLArJAKRZo+9wEi7zCrLHC2NZr8Qk0bt5GasF91lIK2nLfrsfb+lwWhA3CJAimvMHUwvk0CN24YGpjbTeLKeYNMsOJAd623SdZl5FL5RGWUgt0rSwgCwRtgbZdAaH3Cv0M0vhYYXpTbgdDP5OU8cIEr7C+NYVHGYYtFxrN7QXEewi+1xDzBulZRGODWSHR9EzR2JKJdj2mWtsek13hdRkhEAZdi5V5WUAWKMkCbbuMN+cVdk+PFbKm0K8rjG/IXccrzAPCMvUKKwaEmcXzfuF8zBvMWTLB+CDeIIUnEJZUB3SxLCALBG6Btl3GpUCY9grbER51267hFbLIPra2MGusMLXMreBSirjzk+sYySNcmIkjxzzCumHR9ExRDO+9wfTaQR8WTYFwiUKjgVdkZV8WkAUab4G2z461tl3xCuPhUT+DdEb2zzTlCY8KhElUz+0BxHsHeUKjEQjrDYsyPpgKi7Z9brx1GSEQNr4K6EpZQBYI3QJtnh1jGa/Qh0dzvcL4OKFfZJ8aJ2xfaPZovM3P5UESO5rhWMWERqOdZHJBGE2SSc0WdeOD3Senei9dAeFieYSh12TlXxaQBRptgTadR8dAONFNRKSdrRsejcGQdtrNHmUJRYFlFALhYmuf2wOIjBKbYhsLjWaB8KXY+GAEQhbRT3ULP1k24QZ3u4y3LsMFwkbXAF0oC8gCwVugTedRdmw8PNojttOMW2BfIDyaBiFbYmYto/ARv6jNZ8VAyy6qLz+P0BspBsE6M0b97CQ3Ppj+pQk3Pshs0dSyCUB4bJdxAmHw1VgGkAVkgVIs0KYTICQ8mhknpJ2NJs3k23YNZyUNQpwYgbBQPDerB5C0hjD1k0tZSyciEKa3VGPm0vMpjzAbhGOty/BFCo2WUgt0rSwgCwRtAQfCzrFxQmbkC4RNtDt4k4NwmrnxQTxCpvl2neDc+RBAeOjQIdu9e7cdOXKkSSrs4cOHbe/evcanXrKALBC2Bdp0GmmMExJhc0NODoSTXXubGSf0u8zExgnTO8zIIyzkDfJ9s4Nw/FED4fDhw+3999+3pUuXHvUaA/x4/tNPP23Tpk0r+fnAb+rUqdapUyebMWOGYFiyRXUDWaCyLZAFQpZRdJvktq/MTJiZFltPmARConuxOSBJu8sksaMZjpXJGGF9odHUwkwXc2Y2Ut7QqPcI00snugLCMUclNHrOOefYt771LevVq9dRVzze4K233mpf+MIX7Kmnnir5+fv377eOHTva5z73OXvuueds3759Jd+ztdxg1qxZ1r9/f5s+fXpryZLyIQvUa4E2HdMeoZ8w4xfWRzNHGwlC5oNEE2Y0WSZmjPyL6Zl+W3CMkC1+3BhhARB+0vxjhC0Jwk8//dRmzpxpr7/+epN4pHiYixYtsrffftuWLFnSZOHWemtbBZxAB+HYY4+1zp07V0BqlURZoGkskAxCFtYXAmFmwkxqskyORygQFhsaLQBCv3QiDkKWTrgxwrRHWKYgPHjwoBuHq29cD9DhpXF+oRfn4BnyWeh14MAB590lneOvbcj9GEOsz1skb3v27HFp8/fO90k4lvMaMiZJ2shLPntwjDTluw825F3fK6lcHnnkEfvSl75kTz75ZMHbFGPngjfRAVmgjCzQpuMIy1pCkeURJoAway1hatJjVmhUIGxqEKZ+iNdNlskC4WjrUkYgBAyrV6+2xx57zH7wgx+48ONPf/pTe+ONN2zHjh1Z0qcxnz17tl177bX2+c9/3n74wx86T+Tdd9+1s846yzp06BCd//DDD7vvXn31Vffd/Pnz7aabbrLrr7/eVqxYYX/84x/ta1/7mn3961+3u+66y9atWxddm/sHIOjdu7f97Gc/M55Fw15TU+P+//vf/95Gjhxpd9xxh331q1+1f/3Xf7W7777bVq1alQXhbdu22csvv2wnn3yyy+P3vvc9N4a5YcOG6Dygxf+7detmP/rRj9x5J5xwggvHbtq0KUoWYAM8pGfIkCEu/Es+gFJtba398pe/NDzyjz76yG677Tb78pe/bAMHDnSeLDacO3eu3X777fbNb37TPePyyy+3MWPGZIGUclm8eLHLiz/v7LPPdvck/xz7xS9+Yd/97nfdPQgbX3DBBc5rJqHYbPLkyXbDDTe4siINnD9ixIh6OwtRRvWHLFCmFnAg9Eso3Bhhaqu11BihQGjtSxm0LGqyTMwjzLeYnnUsbALrNttOe4RdxtuxncsLhAsWLDDA941vfMPOO+88+/nPf26nnXaaG98DMps3b46qwpQpU+w73/mOAw4N/aWXXmqnn366tWnTxgHoD3/4Q3Qu0ANKQIUXY1mAg4b7iiuusAsvvNAuueQSAzSMJd57770RkKKbpP+g4ec+NPbPP/+8A+H69evd/7kfgOB+pOekk06yL37xi0Zadu7c6e6wa9cuByRAecYZZ7g8kn7OA0Jr16515wFo0sb33BNbkGaAfc011zj4ciKeJ2OgpOeUU05x0OS+L730kgNh+/btHXxIC/k788wzHeiAG3A69dRTXSfioosuimyAXd97773IU2XMr23bts5e8bx5mwLC3/72t+4cOiXHHXec66AAXyDYt29fV1YA/eKLL3bPOf744105v/baa3k91LS59SELlL0FCoHwR34JRaHQqDzCBiyxaCwI45NlotBoCoQ/KmMQEvrzwLr//vtdQ0+oDjjiXQAOvCgacJZC/PrXv3YNPN4XHhyeEWN2NOw00A0BIfB45513bPv27S70yEQPGnG8HtKT75UEQrxY0rh161YHKLxDnkHjv2zZMne7Dz74wKXvsssuc54U96uurnbgwJN74YUXXF7wir/yla/YjTfe6ODIecCR/wNrjmOLOAjpRAwePNg9C2+QfHkQXnnllTZ69Gh3DChjQ+D3/e9/33r27Ok8bu5FmrE16cOugBvw8kzG/sgbtsZr/Pa3v214s6SL0DPl5tPG/70nee655zpvGzByP2w7aNAgJYmtIwAAIABJREFUA4Z0Hrxt8tlb38kC5W4BgbAUj6++a5sBhKmfXypPjxCvAq+DMabcZRYACk8DD4nGffny5c77ATKE9uIvQpvFgJCG2b9okPFEuS9eXr5XEghp8IGxfwEbYIYnhxcKGPDsAA0zaAl/+hcTeghxfvjhhy6UCjzz5Q9QAWqADeziIARo8XsSTgaEeJXcN34Mu3F/0oY98dx4Azk8VDoUEydOtIULF7pyIZxJ2Nq/OBfPGDhWVVW5r3PHCHneW2+95bzB6667LvIwOZl0+47Piy++6G+rT1mg4izQbCCMZoxqi7XYesL0Eoq8W6zFQqMJHmE5h0bHjh1rxxxzjANH7qQNGmMabUKENMas3yPMx3c+5OhrD0skGgpC4Bp/Fg063if39SFKf1//mQRCrsU78i/OBVqEKkkzYGQsk+/GjRvnT3OfgIXjgGjOnDkuhEk6+H/8RRrxoghf0nmIgxBvM/7yIKRzMX78+Pgh5zlyf7xQQsqMq/o3S10IMTOWiOdXqFzw7EgzaeeVC0K+pzywM55u7ovlJ3QUAKJeskClWqBNx+EWbbMWGyOsNzT6Sj2zRgXC3MkyrCFJAmHOr9PH1xG65RPlP0bIxAnCdDSMeE7xF54ajTYN9cqVK43xQcJqfAcI4q9iQMizckHIGBj3bSoQAhUPQsBEHvmOPBR64R0CJ9KRO8OTjoAHIWHjxoKwX79+7v6khfFMJq/E30wkwvuMl0tuWnLTnwtCOgKPP/64ew5jgbkvwsh4x4Re9ZIFKtUChTxCInBuv9FCY4TaWabYMcIYCAEiXmGDNt2O7zWaZ7LMs+UzWYYZoHghhOA2btyYVSfwZoACHhfH8BCZ/MF38XAdFz366KMN9giPNggZN2OmKF7YgAEDsvKIdwV8mRBEqPL88893+WP8MP4ixMrYHEBds2ZNo0GIp+dtGp+ExLMIafrOCM/z5RI/j3MIH5M+77V6EPoZu9yDCUXYmfHDeGgWqDJbl7At4516yQKVaoFCIKx31qhA2AQgjGDY0E23W3ZBPeFAGkU8mNw3ITQaWcbnmGzBuBKNKw0nkzOY3k9474EHHnDjTFu2bHETUAi5MTsSiHAu33OPhoZGjzYIqeiEA2n8WcpA3nhhD79MAo+W5RXMwsQWfE/4kRdhYMYR6SywbAS7NdYjZCIMgGOskZAq9+HFPdkwgJmi/E3Hg3FE0swEF77D1gCQGb2A3Y/TAkDSBuA8SPF8f/KTn7iF9oyfAkDeeLN4vZQrs1f1kgUq1QLJIJyWsKA+9cO82ms0acJM1mSZPB5hBEK8w4TQaM/y2FmGhpSw40MPPVTnPWzYMNfAMquQsB/jfzT4r7zyilu7BrDwkPxEFBpipuTzPY05XmCPHj3cTFGWXpQzCAEIk1Hw6FimwaQZPCLG4X784x9H25MxhghkGAtkHSTnPfjgg259Jcsk8KB5NRaEXIt9uT+gAmKEL7E7S0kANUDG1sysZdkG4GJyDJNybr75ZgexW265JVrjyW47lN+JJ55oXbp0ceOgTEbinlzP8hDAzuQYQI5nzLIYD+FKbQiV7rAt4EAY/03CrAX1hUCYGR8UCAMCIWG4Qm9Axlgdb7wTpu4zdkTjSRgQj5DJJt7LoNrhJQEHGl3Ax1gXSwuuuuoq939mj/qXn51II8zLryNsCY8QsJAXQAKEgAFeEQvfGZPD4+LF+BqbhTPbknRyHl41/2dikR+vKwWEjFmyOQBeNPamE0GHhbQBYtLAC4+b8wA4Hh/n+g4I4Vn/4u/f/OY3zv6c40OebDhAR4Wy4nrKlTHeJ554InHzAn9ffcoC5WwBgTAJZKUea0UeIWE4ZjsWehPSBBC8GEcjHIfHM2nSJDczkiUT/ni8QtBQM0ZI+I2ZloRX8TAAo2+EOZ/78Ww8HF4AF8+MiTfx+wIhxr04l3Tke3E+9+Ecny7O5f9c60HGtZzLrjI8Kz4pB6ATFmWskyUKPu0ebv65/B/bzJs3z53HjjjkMX4ez2CnGZ4fXwrCPXgO447ks5DXhQ1JN52DCRMmuDSRtvgzuJe3DRN5KBfGMX3I1qeX55FefuWDcCf39S9C3diBX+6gvEivD2n7c/QpC1SiBQTCUmGXdH0rAmFziJtGv0+fPm4skQaYN9BhzAsPa+jQoc3xWN1TFpAFZIEsCwiESSAr9ZhAmCW23P+wxo3QIqFQJswwEYflFX4sirCfXrKALCALNLcFBMJSYZd0vUCYqF/CksDv6quvdmNcLLZnMgZT+BmT0ksWkAVkgaNhAYEwCWSlHhMI69Uw4VDGoZiKzzgbodH4WFy9N9AJsoAsIAuUaAGBsFTYJV0vEJYoT10uC8gCskDzW0AgTAJZqccEwuZXsJ4gC8gCskCJFhAIS4Vd0vUCYYny1OWygCwgCzS/BQTCJJCVekwgbH4F6wmygCwgC5RoAYGwVNglXS8QlihPXS4LyAKyQPNbQCBMAlmpxwTC5lewniALyAKyQIkWEAhLhV3S9QJhifLU5bKALCALNL8FBMIkkJV6TCBsfgXrCbKALCALlGgBgbBU2CVdLxCWKE9dLgvIArJA81tAIEwCWanHBMLmV7CeIAvIArJAiRYQCEuFXdL1AmGJ8tTlsoAsIAs0vwUEwiSQlXpMIGx+BesJsoAsIAuUaAGBsFTYJV0vEJYoT10uC8gCskDzW0AgTAJZqcdaCQj5BXV+wZ3P3Be/gp77S+i55zT3/0kXv77OL1no1bwWOHDggNXW1jo98Ov0/GJ9Y8vf60rl1rxlprvXbwGBsFTYJV3fSkDITyNdf/31tnTp0jqK6t69uz333HN1vj+aX2zdutWuueYamz179tF87FF5FpBZu3at7d69+6g8L+khO3futN/97nd24YUXWteuXe2FF16wnj172r59+5IuK3hs5cqVdv/999uMGTPydrIKXlghB+ic8bua5VB2FWKyFkumQJgEslKPtRIQAkB+SX7+/Pl1hHrvvffazTffXOf7o/nF3r17rW/fvrZu3bqj+dij8iwgf+2119rkyZOPyvOSHgKQX3rpJdu4caONHDnSXnnlFVuxYkWjIbZlyxYbNmyY8yqTnlupx9DjAw88YGPGjKnULASTboGwVNglXR8gCAmXzZs3z8aPH28LFy7M6g3zi/R4AfEf3t22bZstX77cCLn51+bNm52XMHHiRNfQxs/HK+Ee9LTxJGhsuHbZsmW2a9cufwvXOK9evdoBhPO4Z77QbnSBmQuvAv1Jkya5PJCXpBf3I/14oj6tuWFCb48JEybYkiVLDGj7F+fibRNqJB88l7Tu2LHDnUKap0yZYscee6z17t3bqqqqXF6BI39jz+nTpzv7cQHXYftx48bVsT3HCUECLp4za9Ys4z65NgFOpIFzAJ8PW1IG2Jj88j3p4oeUc70d8rt48WIjvxynvAq9sAX58PfwZcszFi1a5O5Befg0+PtwHvfmGWgnrg/O4b5cT5mgwfhxvDR0QT651tubEO+mTZtceuh0eC1xLWnwNs3VBEMGlKvXjM8L9x81apRddtllznOmnL2tuYbnYUPKj/LPffGcuXPnujySl9zn5p6v/5dmAYEwCWSlHgsMhDRgf/zjH52H+PTTT9tNN91kTz31lIMQMp02bZrdeuuttmHDhki1fHf11Ve7hokvaeAIcz788MP2zDPP2HXXXecg4AFCA37JJZe4e19++eXOM6HR4W8aPV4A5v3337cLLrjAHn/8cZcmnguwchtVnxAaJ8K8eF8dOnSw3/zmN3b33Xe7ht+fE/+kUQMqd911l91555325JNP2sUXX2xvvPGGGz/jXGB9xx13ZNmjU6dODkAcp3F77LHH3HMeeughe/TRR909fv/73zuA0Ehih29961vuHq+99pqD3ejRo+22225z31155ZX21ltvucb9nnvucffq1q2bsw/3A3b+1adPH2cn8uevX7NmjTtMfvD4eTbhyieeeMJ+8Ytf2IgRI1wDTl6uuuoq69KliwuPkl5szrM8aCgHyuy3v/2tPfvss66sb7nlFudB+jTEP+nQYJ+ZM2e6rylbnvnggw+6NPzhD3+wn/3sZ/bJJ59El5Feyub22293Nr/hhhusV69eEUwBGGnge8oE/fzpT3+KOhfYAztx7/POO89pA3CjUx/2JcIBuOhYEAJGO5Qb32MXdM6LfGMP7MKzOP7II49EnSOiJT/84Q/t17/+tYtYoD1APHjwYPcd55K2iy66yAHRZ5I0kj+eS7oYlsCedHz0ah4LCISlwi7p+sBA+MEHH9i5554bjYvQ2/75z39uQ4YMcQAaO3asnXPOOVmhML47/vjjXa+Yik6lp9GhQeMN0H71q19F45P0vI855hgXoqNxpjGiR92mTZtojBC4tm/f3vXiuQfHaVBolAt5KB999JGddNJJrhdOrx6vB0Dfd999UU8+XgUZFwMoNKh4c1xDg849+MRLJSwGFAglchzIAy6ABHhJ2y9/+UvXKOKd8H/OIS94Jd57adeunQ0dOtSBE2ANGjTIjjvuONdBAD40nDTIQAxQeG/iiiuucNeRbjyQb3/72+7/pIU004D78V1sBCA6duzo7MU57777rnEPbMH1pAOArl+/3tnxww8/tFNOOcU9k84H/+eeeKWkgXzTOQDg+V54UnRq8LZ4UbY/+MEP3PnkCxABizPOOMOVM50hOh50tsgz9sIr5Jl4f9iGTgEdIOBGHgAamgOOHCef5Ang0pFBDzyLfAEkvDB0SPmR/xtvvNF1sMgP6QWw7733nrsX5UBZ+cgH3i354TrKDk8O7XK+78j5PFNXyB/Pf/755129oUx4oQ86AOibPGAX8kRdIQ96Nb0FBMIkkJV6LDAQvv3223b++ee7CgwoeNOI0tBQgesDIY0pjQMNHA0Pn0ANmBJG4kWjQMNIg+JfhBA9COl10xPHq4m/COtx3dSpU+Nfu7957qmnnurgGj8IjL785S+7hj7+PX/TyNPA+kbcHyeEyXc0skwqoaH2L9JGowccyRtvQIhXGH+RTjoAvMjbCSec4Gznz/EgpFHnhW1pMLGdtxt2B/wvvviiO4dG+pvf/KYNHz7cnQOIARqg4IWdAQqfNNq88dhoyAnxeRAyNuhfwPvMM890YVa+4xogQhpID/nD48FjzvfyUPA29GVLKNK/OEZHibAlz0NfXgucwzP69+/vvgNeP/7xjx1I/PV84kEDcfLrQfjmm29Gp5BmQIj3xz14AVoiAnzHcfKGJ0gnjc4R31G+PXr0iO7DH9gXGPMiBEtUhPLyL55LB4vr/Qt7ATrgyAsPF22hMTp6PJsODmnSq3ksIBCWCruk6wMDIRWXBoVQEA0EDRQAonfMKx8ImUjgPUIadBpwetTMRqTR4X6MkdFI8uKT3jKNtH/FQUgDTGg13tBxHufQ2OD55b4ANcCLQ4tzaHy+9KUvRQ19/Dq8gFwgx48DFJ4XTyfHCfPRgHqPBii++uqr8Uudd9CvXz/3XSEQ0jnwITpO5DxCbi+//LJ17tzZCF0CUMK9vIA9E10Ys8I7prEmVExnBUBjl5NPPtmFkik73tifUDH39SCMQwjYUxaEcHkBJaDJJBo8VLww7kkZ5nvlA+FZZ50VwZlrKBP0gXeETc8++2w3jpfvfsASr5dIRPxFGbRt29Z5bh6EeGn+5UFIp8FrlfzSCcAD9PYgDEzngo4LHQjsS+i40CsfCIkiEA6Oe3Z0SogsUC68GDoAoHijPBtA0pHhPL2axwICYRLISj3WSkBIT5wGhrBd7ovePiE5/wJEnMdYGd/TcPD/uEcI7PyLhtODEI8GT47QF400DRjgYCwnDkIaSxoZ/4qDkN41XlYuXGgk8SZo1HNfAOUrX/lKndl9PB8Q5ss3jfjpp5/uwl+59+P/hEcBIbaLvwgTX3rppQ5igINxqddffz1+SoNACOy9VwHMCD8ypoT3Q6NJiI+G3IOQBwBDOiY0rIzD4Zn4sDVeC1DDq6dx92/Khw6BByEw8q84CLk3ZcWYHCFS8g0sGOsqFoTxso2DEJsSes+1qU8PHRp0muv1k2dASLjUg9B7X1zrQUgnIg5C8oIe8fK8Pfgk9IueCL8z67XQKx8I6RxgD+zlXwAOO9GB8S/qEWOm6JjzKVvSr1fzWEAgLBV2Sde3EhACCrwylijEe7JUVnroeBpUZnrZeH28OI8GlMaEhp7jhBpzvTkaTQ9CGnDg4UNl3IexH4DTUBDi3TBRh4Yj3oOmUeHZ+ZaA0Cgx8YOJEPEGCjh897vfdY1ebvWjQeUaQOJtwidhLWBB3hkv+vjjj6NLCXORNsbifAizoSCMT8EnXXEQAgDCeHgPPIMXHhTA9SAEjDTCPvTH8xl/Y0yWF14d45d+rI3vsCVlzGd9IOS+jDfSMQLw/no6JU0FQsDKOB5w9i/G2AhHY3PSgKdM+Jk0+xe6/elPf+pC9A0FIR47HTLGTLGVf2Ff/o9OsB2TmeLlT0fLh7UBIV5dPApBHcErp3z8i7+pR0AVzeKtUw68uDf1gnFNogT+Wf5afTaNBQTCJJCVeqyVgJDKRyNLZaVhx1MiNMj4D2MZNFCcQ4OE10WjxHgMUKRhoiHwjSljSoCTyk1l/8lPfhKBkAaBRoKwHuNE3IfQId4ayzF4AcQkj5BzuBZ4El4lbfTgASOTV2jY873wIgjj4SkAMZ5H6JO0xhtVfy2NLg0uXhfpxMulweW5eIt4FngYgJ3jgGTgwIEOnjR43LMhHiHpZQIOY1VMpuC5uSDkPh5qAI1JGsxi/OpXv+pmG1I22OR73/uevfPOOy6teBfAlFAdLxp+vERmZOJ5URaMB/Id5V0fCGnAiQKQX0DF/bHd17/+dXfPfA14odBoIY/QwxZgA3ZsjgdLKJ7/8wy8Uq9TjpMWxgfJNzZvKAgBHZ0cJvsAIMKV5InOBOXMcbT4/e9/35Urz6IDh/6Z2MSLa5hJyoxPNEX6+CS9dIioA5QLoVKgShmQRuxGvSLES5njhWJXyiOfHd3D9E9JFhAIS4Vd0vWtBIQojJ4ws9kAF+NpTLygkaSB9JWTQX1gSOPAOXh6hHb8TE0aS0BDw8RxPCoqvfcIuQ+eG6FQjgMAYANMuc43PvWBkPvQwBD64z6kB1AQzir04hoaMhogriGNjDPmg6C/B54y40Z4y1xDOvE4vT28zZgJyXEgSUfCe20NASHPwov4whe+4Cam0LjmgpBzgBVh6G984xsOPqSLcSc6FZQLaQL2NNSkhSUZhP3wJv2LMV4aaF9+dFrwRLF7fSDkHkAGD4nNF772ta+5UB/gYBIOYe/cV7Eg5Ho6BoxBEgIF9HjdjFt6758OCF7Zaaed5vJJ+JKogy/HhoKQZwFewEqHCJsRHWDs09sMm9Jhwk4cZ8IV3iDX8aKciYYwyxnPkDSSDoDK2CNlRSePMoprE4+TyAIdF+574oknOuDHPVP3AP3TZBYQCJNAVuqxVgRCrzgaGnquNK6FXjQEjNvlO4fGgwoNRGhg871oMLjeAyPfOQ39jvEfgOPhVN915I+0Me7W0JfPT6FnYA8aT99ANvS+8fMACe9Cz+Bc7EnakxpMf06STYAN9i9UPvF05f5NQ086uX9zvtAGOvQAzH0WtuZ4KTb39/R6LBRN4HghzXh75F6Lbb02/XNyP71uitFi7j30/4ZZQCAsFXZJ17dCEDZMVjpLFpAFZIHKsYBAmASyUo8JhJVTE5RSWUAWCNYCAmGpsEu6XiAMtmIp47KALFA5FhAIk0BW6jGBsHJqglIqC8gCwVpAICwVdknXC4TBVixlXBaQBSrHAgJhEshKPSYQVk5NUEplAVkgWAsIhKXCLul6gTDYiqWMywKyQOVYQCBMAlmpxwTCyqkJSqksIAsEawGBsFTYJV0vEAZbsZRxWUAWqBwLCIRJICv1mEBYOTVBKZUFZIFgLSAQlgq7pOsFwmArljIuC8gClWMBgTAJZKUeEwgrpyYopbKALBCsBQTCUmGXdL1AGGzFUsZlAVmgciwgECaBrNRjAmHl1ASlVBaQBYK1gEBYKuySrhcIg61YyrgsIAtUjgUEwiSQlXpMIKycmqCUygKyQLAWEAhLhV3S9QJhsBVLGZcFZIHKsYBAmASyUo8JhJVTE5RSWUAWCNYCAmGpsEu6XiAMtmIp47KALFA5FhAIk0BW6jGBsHJqglIqC8gCwVpAICwVdknXC4TBVixlXBaQBSrHAgJhEshKPSYQVk5NUEplAVkgWAsIhKXCLul6gTDYiqWMywKyQOVYQCBMAlmpxwTCyqkJSqksIAsEawGBsFTYJV0vEAZbsZRxWUAWqBwLCIRJICv1mEBYOTVBKZUFZIFgLSAQlgq7pOsFwmArljIuC8gClWMBgTAJZKUeEwgrpyYopbKALBCsBQTCUmGXdL1AGGzFUsZlAVmgciwgECaBrNRjAmHl1ASlVBaQBYK1gEBYKuySrhcIg61YyrgsIAtUjgUEwiSQlXpMIKycmqCUygKyQLAWEAhLhV3S9QJhsBVLGZcFZIHKsYBAmASyUo8JhJVTE5RSWUAWCNYCAmGpsEu6XiAMtmIp47KALFA5FhAIk0BW6jGBsHJqglIqC8gCwVpAICwVdknXC4TBVixlXBaQBSrHAgJhEshKPSYQVk5NUEplAVkgWAsIhKXCLul6gTDYiqWMywKyQOVYQCBMAlmpxwTCyqkJSqksIAsEawGBsFTYJV0vEAZbsZRxWUAWqBwLCIRJICv1mEBYOTVBKZUFZIFgLSAQlgq7pOsFwmArljIuC8gClWMBgTAJZKUeEwgrpyYopbKALBCsBQTCUmGXdL1AGGzFUsZlAVmgciwgECaBrNRjAmHl1ASlVBaQBYK1gEBYKuySrhcIg61YyrgsIAtUjgUEwiSQlXpMIKycmqCUygKyQLAWEAhLhV3S9QJhsBVLGZcFZIHKsYBAmASyUo8JhJVTE5RSWUAWCNYCAmGpsEu6XiAMtmIp47KALFA5FhAIk0BW6jGBsHJqglIqC8gCwVpAICwVdknXC4TBVixlXBYIzQKfVnCGBcIkkJV6TCCs4KqhpMsCskB9Fjh85Igt2rDOnhj9sV3U/0373eD3bMLyxbb/8KHo0u5Txtl9IwfbrgMH3HdHPv3UhiyYY3cMHWDjq5ZF57XkHwJhqbBLul4gbElt69mygCzQjBYAaFNWrbCTXupiJ7zYye4Z2NfOe7W7fanr4/bK5LF28PBh9/Tz3uxp//jsI1a7Z7f7/8QVS+3bzz9jV/fuaVv37mnGFDb81gJhEshKPSYQNlyJOlMWkAUqygLb9+6x6/u/aWe88bytqK1xacdDvGdwf2vbs7PNXrvKfXfWGy/YZzs9ZLW7d9vy2o12yuvP23Hdn7SNu3aWTX4FwlJhl3S9QFg2QldCZAFZoGktsKi2xv7u6fvtgbGf2KEjR6KbT167yv7h6QfsuSnjDK/RgbDjgzZ3wzq7fkAf+2a3J23CqhVWTmOKAmESyEo9JhBGlUN/yAKyQOuywCdVS+3vOz5ob86ampWx5Zs32fd7PG33jBxiew4ecCD8q6f+ZLcPfs/+tsO99uT4kbb/0MGsa1r6PwJhqbBLul4gbGl96/mygCzQTBYYvHSh/VOnh63v3BlZT6jaUms/6tnZ7hw+yHYd2O9A+GeP3WX//MwDzoO8bVB/21YmY4M+4QJhEshKPSYQep3pUxaQBVqZBSasWWl/+9R99tL0CVk5W7ypxr7c9TG7f8ww23/okAPhX3b4oz30yUf20IjB9uUuj1m/uTPs00/LJzgqEJYKu6TrBcKsCqL/yAKyQOuxwJrtW+073TrYb4cOsF3797uMAbeBi+fbP3Z80PrMme7GAf0Y4bod22399m125juv2BeffcTWbt9aNsYQCJNAVuoxgbBshK6EyAKyQNNaYN/Bg/bMuBH27a5PWO/pk2zdzu02tXq1ndnzWTu/Ty9bt22Le2A0azS9fGJS1VL7crcOdvWbPY17lMNLICwVdknXC4TloHGlQRaQBZrJAjU7ttvdwwbad17saN/q/pR9o8dTdm6fV23WmtTSCR57y4A+dtKr3W3r3r0uFYc/PWI9xo2w77/Q0YbNn1MWIVKBMAlkpR4TCJup+um2soAsUC4W2H1gvy1eX22jlyy0WatW2Obdu7KSVrVxgy1btzZaYM/BXfv22ZLq1VZVs94tsci6oAX+IxCWCruk6wXCFpC0HikLyAKyQHEWEAiTQFbqMYGwODXqbFlAFpAFWsACAmGpsEu6XiBsAUnrkbKALCALFGcBgTAJZKUeEwiLU6POlgVkAVmgBSwgEJYKu6TrBcIWkLQeKQvIArJAcRYQCJNAVuoxgbA4NepsWUAWkAVawAICYamwS7peIGwBSeuRsoAsIAsUZwGBMAlkpR4TCItTo86WBWQBWaAFLCAQlgq7pOsFwhaQtB4pC8gCskBxFhAIk0BW6jGBsDg16mxZQBaQBVrAAgJhqbBLul4gbAFJ65GygCwgCxRnAYEwCWSlHhMIi1OjzpYFZAFZoAUsIBCWCruk6wXCFpC0HikLyAKyQHEWEAiTQFbqMYGwODXqbFlAFpAFWsACAmGpsEu6XiBsAUnrkbKALCALFGcBgTAJZKUeEwiLU6POlgVkAVmgBSwgEJYKu6TrBcIWkLQeKQvIArJAcRZwIOw0yo59doy17Tre2nabaG27T7Z2PaZau+enWbsXplm7F2dYu54zrd1Ls6zdS7Ot3UtzrN0rc63dK/Pcu32v+da+14LU+9UF1p73awtj70XWPs6EJHY0w7HPtG+GmzbonvFMu79jRvGGcobDgPPTBp1r7V6ekzY0xp6VMj6FQIH0mOoKyBVU1/Gu4Lp8ssj27D9UXMnrbFlAFpAFZAFngWQQTi0AwtlpEKZgKBAWAm0hEGZBkB5EI0HYBRCONoFQtVkWkAVkgcZboBAIj3Mr4MYHAAAgAElEQVQeoUBoDfL8mhOEPWdZuxdnWrsXp9f1CAFhZ4Gw8fLXlbKALCALmLXpONza5AmN/qjHFGv3fDEgTIdHvbOj0Oji7HhwPDTqjeTjyc4jTMWZXcw5HhrNASE9FGLXLjQqEKoOywKygCxQsgUaD8LMOKGP7LlxQt/GC4S5ICw0PuhDow0DIT2UXBB2HLrQdu8/WLIYdANZQBaQBUKzwKEjn1qh0Gi9HiFOS3rCjEDYoNBo04Cwrkc4xn791jSr3ronNP0qv7KALCALlGyBWau3NB8I8Qwjr1CzRmPGWJiaVouBCoVGmZbrpufOtnY5oVE3a7RHOjTqZo2OtXZdxtjdA+baxCUbbO7KTTZ35cbUu2qjzXXvGptbVWNzV/j3Bpu7Qm/ZQBqQBlq7Bnybl24DaQejdnGjfThzlV352iRr02mktek8yo7tMjZr+US9k2Xq8wgFwuYJjUYg7D7R2nadYMd2GWdtOo+2H3Uebad1H2tn9hhjZ3YfZWd2G2Wndx1pp3UdYad1GW6nPTss9e481E7r/HH6PcRO68R7sN6ygTQgDbQSDQyx0zrzpp0bmmn7nv0k1RZ2HWGnP5dqI0/tMjLyBmlHaU/bPjchNQejh19HmDBZRiBcXP+M0qzlE6WGRtPrCJ+fam3xCLtPShVYl3FuLSG9GWY9uVj3M8OtzVPDrM2TQ+0HT35sx3QYYsd0GGzHPDHIjnn8o9T7sYF2jH8/OtCO0Vs2kAakgUrXgG/T/Kdr7wal2j7awA5D7IdPDk21j09/Ym1oKzumvcHOY6ytByHtq0DYAMgVGheMf98UIMxdUP/8VIsmzDyHVzg+7RWOca69K9SOI1IF/PQwa/PU0BQQO6SB+EQOED0Y9ZnpJMgWsoU00Ao0AACBXwqAP+jwsWsLnZMQQXBEyoHAG3w2HRbFI3QgnJLeWSbBI3QTZeIL6nOWTyg02kSh0TwgdOFRv4SCQkuPFeLapzzDtLtPb4cCxzt8aqjrCSEG3s5LfGKIHRO9ASTv+Hf6W/aQBqSBStBATvvlomBDXFtHVCzlBebxBImiEU1jazW8wa4TrC0OBu0rawgTt1jLt7OMQFg3VNosHmF6mzWWUXRLh0cpvChE6mFImDQNRGAYAXGY/fCpYU4YiOOHHfSWDaQBaaCVaYC2jbdzAnAEhqXaQBcKHZFqGyMIMjYY8wbT+4xmg3B6nr1GGwDCaMYoQ2OaNdqAWaMN3GvU7zcaX0+Y9goTYYgAvIfowehCp2mRxAWjv9NetGyTiibIDrJDhWmAti1q59Jjgc8AwFwIjslA0HmDTJRJjQ/WBeHM1Cx+P6OfT2263YBxxNwegO8dEDeus3yiEAj9EooZ1u6F9DZrbsLMlNSkmbhXyK7puZ5hNIkm7R368UMPRn2mOgiyg+wgDbRODXj4ESHzXqALh6bHBaOQaHq2aFZYNP3rE2xxyVaXLGeLQJhZTM8vUGjT7fgEmfjfhUD4WhII56V/fSJ3LWE2CN04ofMKJ6Wm+tKbcW8mz4x1Me9ozNDD0M0qBYgxKDqR+J6SPlM9RtlBdpAGWocG0u0dbV9BCI5Pjw0mgXCGQNjojbcLgjD/onr/u1apn2HKBeFMa/eCX0IRGyd0k2ZiY4UOhuMyMHyWMcP0uGEciF4Y/tP3lvz/9ZmqOLKD7CANVIYGCrVhtHvRe7RzEtwMUecJpiFIu8nYYDos6rZWiybKxMYH4x5h1hpCeYR1J8l4r7BIEB6f/oFHB0KMHLngsd8kjIVHj2MDbremML3TjBsrTM0idT8u6cKkae/w2THWJoJiDIyRQOJi4W8PUH3KFtKANFCuGshtt3L/n043bZ9rA9NjgrkQpO0Egt0nu+Vpqdmi/kd5YyCMfpR3dipyF+0zKhA2GQhP6OU33p5T+Md5AaGD4VQ3tTdaU5i1nCITJm3bdVxq3LDLWOclEjZ177QovDjin8d2SYklOtdfo89sG8oesoc00MIaoIOf/82vzee2Ya49ZC6Fe6fbyW4ZCOJY4GBklk3Q3hYIi2Z5hKnflI22zfTzQPy8EPepWaPpqbPJu8ucUOdX6mNeYU9+k5B39lhhyitM/yKFhyEFG3mHMQ8RKOotG0gD0kBwGsiBH6FQ5wWmw6G0nd4b5PcHmZ3PG6eDNpe2N+4Nsh+0QNiAGaOER4sMjdYBYW54NAJhDIY9proeDFN93SJQP2bo4t3pws6CovcW/acXSCxW7sYZ/XF9piYhyQ6ygzRQ3hpoQFtGW+gAGBsTjEHQeYMehC765r1BQDg786ZtdiCcZwxpZc0Y5ccU5BHGIFkUCFO/S5gKj7JlT2541C+jiHmFLkRKzyXlyjsYRkBkNml6RmkuFL0Y9JmqFLKD7CANtH4NuHYQDzDbC6TdzEyOiY0LNtAbpM3OAmEEwfhPMGlBfcwzjIVG/RKKnPWEyV4hMMwJkebAkB4NhZo9duihmPvpReE/c4/r/6nOhOwgO0gD5a8B3475zwJlFvMAaSedF+hmiBaAYHymKF5h5A2m9hilzc4Pwnh7nzM++FrMYfKTK5v58zONXv5QasLqeIQYI2Yc33OI/S4hRk3NHq3PKyzsGTLQS+Eelwbij4h9p99R+DQthnz/9+fqM2M32UK2kAbKUwP52rD4d1nllm4TaRvrANCPCcY9wVwI5owNZsKi6T1GyzQsCgNbDoQNHSfM8QqjZRRuam6BECkFlDtmSAG+kB7kdXFuejjpd3omVAqQHpT5P92MKT9zSp+pGWSyg+wgDZSlBopq03x7GH2mJ8S4ttNPjPHjgixbi+8kE18yUY83SJsed3pynaJSnaxGXF9xIGzfKzUAm1pgPze9lCI2gxT3nAKKYOi9w/QkGg/ECIoF4BiJIQbM6Dt/jT6jGWR+Jpk+M7PqZAvZokU1kK/tKvRdrC2jbXTv9HI0NzPUAzB3K7X0JBk3OSazrVrGG2R+R/rto3xJEASKjQBZqdeUGQhj4VFvtCyPMD1pxi+u9793RSHEZy35v7NgmAaiX2LhezlZn14A+T7Tosg6X9+5KdSySWoquewgO5StBvK1aXxXqA0DfP6dnnvBHIxcLzDPuCBOygm5s0Xj7blAmDMIyqBorlscN1LceL5XkR58zQ6Res8wNoU3DsNCQIwKOl3gLA5171xxeEHoM1M5ZAvZQhqoGA0U3a6l4eeGmAoAsA4EUyHRRG+QNj3exue2/y3gDbb8GCGZzjVE3Eh5QZjyCgmRRvuPxj3DJO8QINaBYk6B+4LXZ3qcVfZJjTfLDrJDYBrw7SWf3rGIf2aFQ3MhmGeCTH0QbKGwaJmCMBYeBYoJMMxsu+ahSGGkvUMHxAIhU7cLAoWrt2wgDUgD0kB+DeSJsNGu5gGgC4dGawZjEIzPFBUIc0Kicfe3vvBo3jWFfgB2vmWWVOTA0C+69wXH1F73zlO48V6O/s7f+5NdZBdpIEANpNtN3446CKYdDheJS7W7mYXzlQfBMvEI84VHc7zCemDIgk0GZzOhUv72hcVMpnQvJl6YERg9IPWZ6ijIDrKDNBC8BuJtpYNfuh2N2tVMe1sQgnFvkDY8Gvaifc/zjjtIR/nvlp016jObzyjuuzwL7HGvo4kz/m96Ial3ZhKNLygPxPinL9QCkMwVQZYQcq4FsnrLBtKANFDOGsjXpuV+Vyf98TbT/+3b1fjMUN/++vY4/emHtbIgSJueB4ItsJtMfMlFmYCwIV5h0nihLwBfIKkdaBoGRV/A+sx40bKFbCENSANeAyn40Z76t3c8srZP8w6KB6D/jDzBQhBsmbWD5QdCPMO8Y4W5IdIcGNbjHbqQaTps6guwLhwzPZzs0Kq+lz2kAWkgXA3E20yGnjL7hnqHwzsgsU8PP//ZEAi2sDdYHmOEPjzqYJjPZW4MDGMF43sp0eavqQk2FKresoE0IA1IA/k1kOj1Re1quq314POfDQqHptv7OANa6O/yCI3GM583fpwHhrlLK3wB8JlbSPq/bCINSAPSQNNqIN7m+r/rADAhHEpbH2/7W/DvMgRhofFC7y3GJtB4t9sXQu6nhN+0wpc9ZU9pIGwN5Lax8f/79jjr07fb+T4TltUdZSiWHwgxQMHxwgKeYZJ3GC+o+N/FVuj4tfo7e6MD2UP2kAbKWwPN2d5lgS/uqOSDn/+ufCBYfmOE8V5AwRCpN2Tc4Dl/q1KWd6VU+ah8pIHK1kDeEGi8HfbtdL7P8oJgeYOwXs/QGzhu/AJ/v5pntqkqYmVXRJWfyk8aOHoaKOj15ba5vl0u9Fl+ECx/EHoPsV7vMG703ILR/zM7OsgWsoU0IA00lQbi7W4D/vbteRl+lucYYT5DJY4b1lcITVXwuo8aEWlAGghVA/W1swWO52vPy+y7ygGhN1xR3mGBgtE9CmxzJHvl3/5JdpFdpIHiNVCeYdB8SzYqD4QAsSTvUIIuXtCymWwmDUgDRWjAOy4V8lmZIIwbV1CUdycPXxqQBspAA5XjAeZ6hZUPwjgU+duBsdBnET2avBWr0H31fbLdZR/ZRxpoOQ00Y7uX2/5W6P9bHwgrtCByeyj6f+X2LlV2KjtpoLI0IBAKnGWz358aj8pqPFReKq/WogGBUCAUCKUBaUAaCFoDAqEqQNAVoLX0aJUPeWfSQOM1IBAKhAKhNCANSANBa0AgVAUIugKoF934XrRsJ9u1Fg0IhAKhQCgNSAPSQNAaEAhVAYKuAK2lR6t8yDuTBhqvAYFQIBQIpQFpQBoIWgMCoSpA0BVAvejG96JlO9mutWhAIBQIBUJpQBqQBoLWgEDY2irAa4vslJ7z7PTO0+2spyfb2XrLBtJAyRqgLp3RaZqd+sIcO5F9iFtbuxF4fgTCViSAn3aZaT//3RC75vK+du0lfeyXF7+jt2wgDTSVBi7pY9dc1tcu/80gO+OZqQJiK2o7BcJWUJgnvbLALr57hP36nN56ywbSwFHSwM9v+9hOfnm+vMNW0IYKhBVeiD/uMccuv+kj+/W5b6oBPEoNoDoc6nB5DVx17fv2k+dmpn7+rcLbkpDDvQJhBYuXscBLbhtq153/liAoCEoDLaGBc3vb5dcPNDqkIYOk0vMuEFYoCE98dZGd88h4++Ul76gBbIkGUM+U7tIa+NWFb9uF94y0k3otFAwrtD0VCCu04E59ca5dccNANUYCkjRQBhq46pr37bQuMwTCCm1PBcIKLbjTOk1XSLQMGkA/VqTPsMcNrzvvTTv7ofHWXksrKrIzIBBWIghfW2znPjBWnoBAKA2UkQYuunO4MYO70sfLQky/QFiBIGRB7yV3D1cjWEaNoDzCsD1Cyv+y3w6xU16aJxBWYJsqEFZgoQHCS/8wTCAUCKWBMtLA5bcMcrs6hehRVXqeBUKBUI1pGTWm8iwr17MUCCt3E3KBUCAUCAVCaaAJNCAQCoSKix9FoCo0Wrlegzy+1lt2AqFAKBAKhPIqmsCrECgrF5QCoUAoEAqEAqFAGLQGBEKBUCAUCINuBOXJVa4n11RlJxAKhAKhQCgQyiMMWgMCoUAoEAqEQTeCTeVV6D6V61kKhAKhQCgQCoTyCIPWgEAoEAqEAmHQjWCzeHLn9rbfXPS2XX9u5XpJzWKXMu1wCIQCoUAoEAYJwtuvfNe6PDTCOt3/SZPn/76bBti7vabbE3cNbvJ7hwSoo5VXgVAgFAgFwiAbayC1ctkmWzi7usnz3+2xkba6arO9+9rkJr/30YJDSM8RCAVCgVAgDLKxfvLuIVa9aostXbghMf+3XPKO/f7Kvnbj+W/VOe/GC95yx266IPvY7y5/1x65bZDdeU2/Otdwr1t//k6d70MCT7nlVSAUCAVCgTDIRrk+EN5w3ps2fNAC27xxl+3YtteWLaqxp+/9OBr3e+yOwbZo3np3rHr1Vps0epmtWLzJnvnTUOvRYZStXFZr/V6fZrde+o5Nm1Bl82ZW26wpq23b5t22feteG9hnVpB2LzcIkh6BUCAUCAXCIBvkJBAyyWXkkIV28OBhmztjjY0YPN9q1m+3LZt32R1X97PfX9XXFsyutp3b99rEUUts7CeL3LlbandZl4c/sVeeHWfbt+2xwe/Ptt9e1seWLFhvBw8esnkz19iwD+e6Y9u27LEOdw8J0vblBkOBUCAUCAXCIBvjJBDeeXU/27p5j1Wv2hqFMd/uOdl279pvA9+dYQ/cPPD/t3ee71FcdxvmX3q/vp9CwBWXGDvYcYsd4hL3mpC4xP2N7cSOu53YcQGEAAESHdGRbJARvansqreVtFpJu9q+PO91lgyRHa+Q0O5qZs79QdfKlrTsnHOfc/+eMzNnFI+ltGfzOT3x72XO08e6NJUIezrDeutPF8S3r/asYtGEvvzggJVtjwi9Kx63Pb+QxzCVUWDF6nyePuGe2wmmEqFZAp2IJXW8ofOiqD54bWdedEcb2vJXmiYTaa3+/PDFnx85FJxShIGmfr365Kb872+vOaFYLKlvPq6/+Pduk4NNn4dE6F0xI0JEyCQ6i/vSphLh689szqe/M8f+c0XpJ2/tVSQc08H9LXpz2XYlk2mt+/roxXOGlxJhy5l+vfz4RkQ4iz4rlZwRISJkabSMQiURui8RBpoG9Mw95rzfha+n716bv8Clsy2s0ZGJ/AUyT9xRqd2bz8qkwE/f3qvnHqjW8GBUp45064WHqvPnDPt7IlMmQkTonr7/sVARISJEhIjQymTpJMJcLqd0KnPxKzwY1V9+v03vvVqrRDylRDydvzI0k86q8bs2mVslHr1tlTatOZb/m9h4Mn++0LzHVOcIESEiLNYpFt7nP+JmabSMAisWeCRC90yGy+6rUuW/DmrbhmM/+NpQcVh/vG9dvjh4+YmN2lFzUgdqm/TNJ9/mrwB10sSz967Vyn98l//Z+pWHdeZ4t4ZC4/rrC9v1ylMbZd7nnZe365ElFfrmkzot/7Rez9yzJv++776yQxtXN+q1Zy4slTrvyevc8EEi/I9YijXXlet9ECEitDLJuUEWZh/Rrz6o1/rlR/TOCzv12Vv7FR1PqOlUn4wg3fAZ+QzTlyoiRIQsjZZRqCTC6U9Obp7IH711lSr+cUjm/GJX+7D6e0Z17lSvPnhlNxJ04cUwl2IJESJCRIgImbwvY/I2O8a8/swW/f2lXXrnxZ3686M1F68gvdTEy8/dVRAhQkSICBEhIrwMESIzd8lsNv2BCBEhIkSEiBARWs0AIkSEiBARWj0JziZJ8Lf+SIWIEBEiQkSICEmEVjOACBEhIkSEVk+CpDp/pLrZ9CMiRISIEBEiQhKh1QwgQkSICMstwmU7rZ50ZlO587ekt1IwcOfjW7Xwn6eYC8s4FxZr5xl2lvFgp/3s63O65YV9iJAEBgMuYuC2p2u14IvTiNCDcyoi9GCnmSpo0dsNun/xSiZCF02EpUgZvKc30qsZizf9eb/mf3UOEXpwTkWEHuw0I8IrPzmhe36zAREiQhhwAQO/uatKi945jAQ9Op8iQo923M+/PKubn9+n+2+uYCJ0wURIcvNGcitFP5k0eNtTO7Tgc5ZFi3XOrtzvgwg9KsJ8Kvz4uO56YBMiRIQwMIcM3Hv3Ol3z/hHSoIfnUkTo4c4zMlz07mGZZZlSVLq8p70ph76fXt/fd8sq3fDmISTo8XkUEXq8A40Mr32vUb9eWq37b2GZlAl8ehM47TS7djKnJEwSvO5vDUjQB3MoIvRBJxoZmvMTtzy/V3f/tkZL71ir+5AiKXkOlwv9KFojv6W3r8kXnUuW7dYVn51Egj6ZPxGhTzrSyPBnXzfpik9P6Pq3DuUv5b75T3t08x/5og1goBgM3PTift3wl4O66uPj3Cbhp3nzmyYhQp91aF6IHBOVOgzAAAxMmwFECCzThgXJencvRfqOvoOBwgwgQkSICGEABmDAagYQIQPA6gFAlVy4SqZtaBtbGECEiBARwgAMwIDVDCBCBoDVA8CWipfjJN3BQGEGECEiRIQwAAMwYDUDiJABYPUAoEouXCXTNrSNLQwgQkSICGEABmDAagYQIQPA6gFgS8XLcZLuYKAwA4gQESJCGIABGLCaAUTIALB6AFAlF66SaRvaxhYGECEiRIQwAAMwYDUDiJABYPUAsKXi5ThJdzBQmAFEiAgRIQzAAAxYzQAiZABYPQCokgtXybQNbWMLA4gQESJCGIABGLCaAUTIALB6ANhS8XKcpDsYKMwAIkSEiBAGYAAGrGYAETIArB4AVMmFq2TahraxhQFEiAgRIQzAAAxYzQAiZABYPQBsqXg5TtIdDBRmABEiQkQIAzAAA1YzgAgZAFYPAKrkwlUybUPb2MIAIkSEiBAGYAAGrGYAETIArB4AtlS8HCfpDgYKM4AIESEihAEYgAGrGUCEDACrBwBVcuEqmbahbWxhABEiQkQIAzAAA1YzgAgZAFYPAFsqXo6TdAcDhRlAhIgQEcIADMCA1QwgQgaA1QOAKrlwlUzb0Da2MIAIESEihAEYgAGrGUCEDACrB4AtFS/HSbqDgcIMIEJEiAhhAAZgwGoGECEDwOoBQJVcuEqmbWgbWxhAhIgQEcIADMCA1QwgQgaA1QPAloqX4yTdwUBhBhAhIkSEMAADMGA1A4iQAWD1AKBKLlwl0za0jS0MIEJEiAhhAAZgwGoGECEDwOoBYEvFy3GS7mCgMAOIEBEiQhiAARiwmgFEyACwegBQJReukmkb2sYWBhAhIkSEMAADMGA1A4iQAWD1ALCl4uU4SXcwUJgBRIgIESEMwAAMWM0AImQAWD0AqJILV8m0DW1jCwOIEBEiQhiAARiwmgFEyACwegDYUvFynKQ7GCjMACJEhIgQBmAABqxmABEyAKweAFTJhatk2oa2sYUBRIgIESEMwAAMWM0AImQAWD0AbKl4OU7SHQwUZgARIkJECAMwAANWM4AIGQBWDwCq5MJVMm1D29jCACJEhIgQBmAABqxmABEyAKweALZUvBwn6Q4GCjMw76bVrUyEyBAGYAAGYMBaBuZNpLI61D6qP+7s1PWVLbpqZbPmA4S1QFA1Fq4aaRvaBgb8ycC88+fPy3xlsjm1h+OqPDGkp2u7dOf6oBYu9+dBAzP9CgMwAAMw4DBwUYSOEM1rJJ7R0e5xfdoY0rKdXfrlmlZSIimZlAwDMAADvmTgJ0XoSDGTy6l3LKn6jjF9cSSkR7e0awEp0ZcgOJURr1TJMAADtjEwpQgdIeZy5xVPZdU3llJ957g+/LZPi7nIBiFSHcMADMCADxiYlggdIZrXnDmfmMspEk+rtjmsRzaTEm2rnjheEgMMwICfGJixCCdL0XyfzubUOhjX5w39unNDm25c3cpFNj6okPwEOcfCpA0DMDAVA7MW4WQxjsYzqmsb1Vvf9umhLe26obKFZQOkCAMwAAMw4GoGiipCR4qJdDZ/K8bm5hG9Vd+nBza2aeGKZlc3xFTVAj+jmoQBGIAB/zJQEhE6QjSvo4mMmgcntKlpRK/v6yElUhlSEMEADMCAqxgouQgdKZpziWOJjALhhKpPD+uBjUFXNQTVnn+rPfqWvoUBGJiKgbKJ0BGi85rN5XQ2FNO79b36xepWLVjO0ulUHcXPGMgwAAMwUBoG5kyEjhDN62A0pdqmET1V26k71gd1bQUX2QB8aYCnXWlXGICBHzPgChE6Ukxlc2oKTWjl8SE9t7s7v98pO9kA7Y+h5b9hAgZgoJgMuEqEjhCzufMKx9I63D2ur44P6oVdXbp+FSmxmB3PezGRwAAMwMAFBlwpQkeI5jWZyWpgPKXDPVF90RjS0uqgfs5+p1xoxFV3MAADMFAkBlwvQkeKZmu3ZCan8ERaDZ1jen1vt37OBTYMhCINBCpj0hEM2MuAZ0ToCHHy63AsrZrTQ3pwU7uuW9XCTftIgcIABmAABmbMgKdF6EhxIpXVyd6oPjzUr99tac8/P5HlU3urOyp7+h4GYGAmDPhChI4Qzas5n7gvENG7B/v12NYObsWgOpxxdTiTAcTvMuHCgPcZ8J0IHSma5ycGh+Pa3hrR+wf7dNe6ABMiUoQBGIABGPgvBnwrQkeIZgeb8URG7SMJbWsZ0Yu7unRNBbvYUMV6v4qlD+lDGCgOA74XoSNE85rLXXh+YmckoVVHQ1q8pvW/KgPAKg5YtCPtCAMw4BUGrBLhZCma7809io3d43pjf49uXRfUolUtms+yAcUBDMAADFjFgNUidMSYyebUE0mo5mxYz+/p1m9r2nTVSpZPvVLN8TlJHjAAA7NhABGePy9HiOZ1PJnRuf6YKk4N66W9PfpVVYCdbKiOraqOZzOh8LcIyYsMIMIfidCRotnv1DwV42hfTJWnhvTs9g7NZ2s3hEBRAAMw4DsGEGEBETpCnLy128mBCX3+fb9uq+JWDC9WfXxm0goMwMBPMYAILyFCR4iTX6PJjL5rG9Wz2zvz5xJ5VBSD66cGF/8PLmDAGwwgwssQoSNFcztGezihymOD+t3WDi2pCuiKFVxkw+D3xuCnn+gnGLjAACKchQgvCvH8eY0lMvq+a1wfNQzo6R2dWryaexQZZEy0MAADXmAAERZBhI4QzWsqm1PvaFJ720b10fcDemxLO7dicHGB7y4u8MLkxmdEwtNlABEWWYSTpRhLZdU5ktCetjG9W9+nX6xuYUJEijAAAzDgMgYQYQlF6EjR3IqRSGc1EE1pZ/OIHt/Szg42LhsI060c+T1SBgz4jwFEWAYROkJ0Xs1ONsGhuD5r6Nft64L5R0Xx/ET/DS4mTPoUBrzBACKcAxE6QjSv4Ym0vg1G9PK+Hi3d2KYbKtnvlMnDG5MH/UQ/+YUBRDjHInSkmE+Jw3FtOBvWG3W9WlrTxvIpy6ecS4IBGCgDA4jQJSJ0hGjOJ47G0zrdH1PVmbBe29utxVxkw2RQhsnAL9U9x0FSnSkDiNBlInSEaF7T2Vx+6fR0aEKrTw7pwY1tYhcbBvlMBzm/DzMwMDUDiCNqIuYAAA+HSURBVNDFIpwsRZMUk5lcPim+V9ejqyvYwYbBPfXgpn1oHxiYHgOI0CMinCxF8/3IRFo7msL5XWxuWRvgpn2WDlk+hgEYuEwGEKFHReiI0dyf2BSK6csjIT25o1N3rAtoIfudMiFc5oRAgphegqCd/NVOiNDjInSEaF6HYik1dI7rn0dC+n1tp65bxU42TFj+mrDoT/qzFAwgQh+J0JGiSYndo0nVdY7ri8YB/bamjYREQoIBGICBAgwgQh+K0BGieUxUPJVV/3hKdR1jen1ftxaREpkMCkwGpai0eU8SnBcYQIQ+FqEjxMmvA+MpbTkzpF9VXTiXyNZuTFRemKj4jHBaSgYQoWUidKRodrI53hvV+wf78lu73bS6lZ1sSEqkZRiwkgFEaKkIHSGa+xND4yntbB3R63W9enhLOxfZMBlaORmWMnHw3u5OtIjQchE6QjSv8XRWgaEJbWwa0dv1vbp7fVAsnbp7ADPB0j8wMHsGECEi1GQZmu+zuZwi8bSaBuPaeC6sF3d16QruTSQlkZRhwKcMIEJE+F8inCxGcy5xIpVV20hCFcdCunNdgMnAp5MByWL2yYI29GYbIkJEOKUIJ0vRfB9LZdXYNaaX9nTrhspWXb2ymYtsECPFEQx4mgFEiAhnJMLJYuwZTWrTmWH9YWeX7toQZL9TJkNPT4akOW+muWL0GyJEhJctQkeK0WRGJ/qi+urYoF7c063bqlg+Lcbg5D3snZjp+/L2PSJEhLMWoSPETC6nwWhKDV3jeSk+s71D1/C4KFISSRkGXM4AIkSERROhI0TzavY7NbvYNHRH9fn3A1q8upXJwOWTASmkvCmE9nZPeyNCRFgSETpSzP37doyJdFYHgqNatqNDC5a7ZwAwGdEXMAADiBARllSEjhCdV3M7RtdIQiuOhnRvTZvM1m48P5GJCBnBwFwygAgRYVlF6AjRvI4lM2rsHNPfD/brka0dWrymlZ1sWD5lCR0Gys4AIkSEcyZCR4rpbE7dkYRqWyN5KT68uZ3lUybDsk+Gc5lI+LfnNhEjQkQ45yJ0hGjOJ5pbMQLDcW1vHdXf6nu1ZC0X2TBJzu0kSfv7v/0RISJ0jQgdIZpX81QMI0WztduWc2E9tqWdHWxIiaREGCgJA4gQEbpShJOl6HwfHI7rXw39+XOJC5aztRtJxf9JhT4uTx8jQkToGREaIZrlU/NkjH2BSH4Xm7s3BHl+IimhJCkBCZVHQm5oZ0SICD0lQicdmtdUJqf24bjWnhrW83u6dW91UFfyuCikQGEAAzNkABEiQs+KcLIUTUo83hdVxckhvZx/MkYLk8EMJwM3VOZ8BntSmJv6GhEiQl+I0JGiSYlmv9Nj/TGtPD6oRza3c28iQqQogoEpGUCEiNBXInSE6CydRuIZHe+N6p26Xi2qICW6qQrns5D+3MIAIkSEvhXhZCma78MTae1uDuuRLe26rrJFV3A+ccoq2S2TFJ8DYZaaAUSICK0RoSNGs5PNuVBMXzQO6LFtHbq1KqD5bASOFFk+tJYBRIgIrROhI8Rc7ryGYil92z6m9xoG9PT2Tt1YyfJpqatv3p+E5zYGECEitFaEjhDNq7nIxjwVY3dwVB819GtpdZCLbEhI1iYkt4mq1J8HESJCRDiJAWdrt67RZF6Kb+7r0bUVzUyISBEGfMwAIpw0CU5OCHx/3npBmqVT8/zEgfGU1p8a0j3VQfY79fFkWOrUwfu7d0kYESJC64U33aInmcnqdF9Uf6vr1a3rArp+VQvLp4iRpOgDBhAhIkSEl8GASYm1zSN6dX+P7t/UrmtYPkUIPhCCrakVEV7GJDjdBMHv+X95dSKVVXNoQmvPhPXGgV79en2QWzEQAkWBxxhAhIiQRFgEBsxFNiMTaZ3sj6nqTFjP7eziIhuPTYa2piGOu0mIsAiTIMnP/8lvJn1sbsUwW7udDk2o4mhIt1cFSAhIEQZczAAiRIQkwhIzYK48Pdw9rlf2dOX3O13ALjZIwcVSsDEhIsIST4IzSRL8rr+TpVk+7RlN5m/FeGhrh25bF9DVK7lH0caJl2N2160UiBARkgjngIF4OqsTvVF9fiSkZ2u7tGRtgFsxSEkk5TliABHOwSRI8vN38ptJ/5oNwPvHkqrvGNM/GkN6dnuHriIlIoQ5EoKtSRURIkISoUsYMLdimKXT+s4xfXSwP3+RzXwmRKQIAyVnABG6ZBKcSYrgd/2dKM3Wbol0VqFoWvuDEf1+R0fJJwJbkwDH7a5zdXPVH4gQEZIIPcBAVyShlUdDuqe6TdeuahFXnjKBz5U0/PjvIkIPTIIkQH8nwJn071gio0MdY/pLXW9+a7ebVreyEThLh6wYzJIBRIgISYQeZCCTy6k7ktDW5hG9Wd+nBze1c5HNLCdDPyYdjml6KweI0IOT4EwSBL/r7zSZO39e0WRGTaEJVTeN6O0DvVq8upWEgBRhYAYMIEJESCL0CQPmVozReFqBcELrzwzr6W0dumIFN+yTiqaXimxuJ0Tok0mQ5Ofv5DfT/jW72CQyWbUMTejTQ326tqKFhDCDhGCzFGw8dkSICEmEFjAQTWV1IBjRc7u69MuqQP75idyjSFKyUXo/dcyI0IJJcKZpgt/3b7o0T8YIDse16sSQ/rCrS7/eENRClk9Jy5anZUSICEmEljJgnp94rCeqfx0bzCfFm7nIBiFaKkREaOkkSOrzb+qbad86+50e6o7q66OD+t3mNoRgqRB+atnQhv+HCBEhiRAG8gw4W7sNxdJq6Inqvfpe3VjJrRg2iMD2Y0SETIKIEAYKMhCJp7X9XFgPbGrTlSuaeVQUSdGXqwWIkEmw4CQ40yU2ft+/y62pbE7NoZj++f2Alm5s181rWrVwOfco2p6k/HL8iBARIkIYmDYDZiebcCyt/W2jeue7Pj2+tUPXreIeRb8IwdbjQIRMgtOeBEl8/k18l9O38XRWHeG4trdG9O53fbqvpo2UyNKpJ5dOESEiRIQwMGsGzFMxWofj2t4S0Wt7u3UNO9l4UggkQiaDWU8Gl1NV8zekLD8xYJ6KMZHKqms0qepTQ1paHUQIpETXM0AipACgAICBkjFgdrI52RfVX+t69cu1AV2zspnnJyJG14kRETIJlmwS9FPS4Vhmn9wHxlOqbQpr2a5u3VPdxkbgCNE1QkSEiBARwkBZGUikszoXmtCqk8N6aW+P7lwfICUixTmVIiJkEizrJEiymn2y8ksbmvOJw7GUjvZGteLkkF7Y1aVFXGQzp0LgYhmEgBBgAAbmiIFkJqehWErH+mP6sjGku9cHSYmkxLIVBSTCORr4fqnqOQ4SXrEZyOZyiqWyauwe10u7OjWfHWzKJgQSIUIgDcAADLiQgf6xpKpODenhLR1avKZVV/D8RMRY5LRMInThwC92hc37kdr8wEA0mdGJnqg+bBjQY9s6tWRtK5uAF1kIJEKEQBqAARjwCAN9Y0ntaxvVh98P6PFtHbp6JRuA2yqxYhw3idAjA98PFT3HQDItJgNmA3Czi037SEK7gqP66GCfbl8XYNmQlDhjBhAhIiQFwYDnGcjmziuWzKpnLKnaloj+VNupq0iJMxZCMdKVF98DETIJen4SLGbK4L38kVpNWuyKJLSyMaRfrG7VwhVs7eZFQZXrMyNCRIgIYcDXDMRTWTV0jOn/9vfo7uo23VDZwj2KLJ/+IC0jQiZBX0+CJDx/JLxi9GM6m1PXSEI1Z8N6aX+PHtjYxvIpQswLEREiQkQIA9YxMJbM6NzAhNaeCevVfT26dW0rKdFiKSJCJkHrJsFipAvewx9JM5M1+52mdXJgQlWnh/Xktg6EaKEQESEiRIQwYD0D5uIas3QaTWZ1NjShzw7165Y1rT84j1SuCzf4d5rK3u6IkEnQ+kmQdOePdFfsfhyNZ3QgENFT2zp1fWWLrmRrt7ILqlxFASJEhIgQBmBgCgZyufMKDsdVcWxQT+zozN+0z36n5U9tpZQiIpxiABS7wuT9SB4w4F0GjBAj8bS+7xrXp4dDWrazUzetbvFtSiqleNz23ogQEZIGYAAGZshAKpNT32hSBzrG9NnhAT28uZ2nYnj4IhtEOMMBQEXv3YqevqPvis2As9+p2drtQPuY3qnr1bUVbADutsR3qc+DCBEhaQAGYKAIDBgpmtsxIomMapvCemhTO8umHkmJiLAIA6DYVSbvR3KBAe8zYJZPm0MT+vhQv+6qDurGyhYtWO6vi0wulbS88nNEiAhJAzAAAyVmYCiWUn0wojfqevXg5nb2O3VZUkSEJR4AVPber+zpQ/qwWAwkMzkFhuOqOTeit+v7tLSmjeVTF0gRESJC0gAMwECZGTDPTxyNp3VucELVTSN6dW93funUK0uJfvuciLDMA6BYlSXvQ0qBAX8wYLZ2G0tk1DwU19qTQ7p3Q5CUWOaUiAgRIWkABmDARQxkszmd7o/prwd6tGjVhQts5pdZDH5LfJc6HkToogFAhe+PCp9+pB+LwYDZyWYomtLWc2E9U9up29cHdfVK7lG8lNQu5+eIEBGSBmAABlzOQDyd1bmBmL4+Nqhlu7p057oAt2IUMSUjQpcPgGJUlrwHCQUG/MOASYlmv9MvjRRrO3U1O9nM+pwqIkSEpAEYgAEPMpBIZ9U3llRDT1RfNoa4yGYWCRERenAAUN37p7qnL+nL2TJgtnYzu9gMT6T1XceYXtrdxbnEGUoRESJC0gAMwIDPGOgdS2rTqSHdU92Wv/J0IQ8VnnL5FBH6bADMtrrk70koMOAfBszy6dGeqN4/2K+HtnTo5jWtUwrhcq649MPfIEJESBqAARjwOQOZXE79Y0ntCkT01rd9enRLuxZV8FBhR+KI0OcDgOreP9U9fUlfFoOBiVRWgaG4trZE9O63fbp9XUC237CPCBEhaQAGYMBCBsyzE83WbsFwQlubRvR8badsPZeICC0cAMWoKnkP0gkM+IcBs4tNKptTVySp5UdCWrLWrnOJiBARkgZgAAZg4AcMjCczaugY05/3dGtJVSB/5amfl08RIQPgBwOAKt8/VT59SV8Wg4HOkYRqzoT1/J5u3Vsd1JU+vBUDESJCRAgDMAADUzJgbto35xNP9kW1/MSQXtnbo1vXBnxzKwYiZABMOQCKUVHyHiQTGPAPA+YiG7PfaWNvVCtODOnJbR26yuNPxZhXV1cnvmgDGIABGICBmTBwoK5Ou/cd0MbavXp9xVb978uV+p8XVnnya968efPEF20AAzAAAzBgMQN0vsWdTxFEIQgDMAADSIBCAAZgAAZgwHIGAMByAKgGSQQwAANWM/D/JRhAMwZAHb8AAAAASUVORK5CYII=;" vertex="1" parent="WIyWlLk6GJQsqaUBKTNV-1">
          <mxGeometry x="470" y="120" width="98.89" height="169" as="geometry" />
        </mxCell>
        <mxCell id="XFqM0QsjCBA94ZdpaxJI-9" value="" style="shape=image;verticalLabelPosition=bottom;labelBackgroundColor=default;verticalAlign=top;aspect=fixed;imageAspect=0;image=data:image/png,iVBORw0KGgoAAAANSUhEUgAAAckAAAMBCAYAAACEG0+BAAAgAElEQVR4AeydBZxj1fn+KS3U3fVXd2/51wVKSyletEApUqQt1kLRUlxLcafoLgusu7vvsu6zMzvurjvr75/nZG42k+RkZjKZ3cncbz6fbGaTm5tz3vvNeZ73WA444IADjDsxgAEYgAEYgIGkDCR9EuHEPMAADMAADMAAzgGTAAMwAAMwAANeBrwv4CBwkTAAAzAAA2FnAJHEQcEADMAADMCAhwEC4wlM2N0T9SeDgAEYgAEEApMAAzAAAzAAA14GvC/gIHCRMAADMAADYWcAkcRBwQAMwAAMwICHAQLjCUzY3RP1J4OAARiAAQQCkwADMAADMAADXga8L+AgcJEwAAMwAANhZwCRxEHBAAzAAAzAgIcBAuMJTNjdE/Ung4ABGIABBAKTAAMwAAMwAANeBrwv4CBwkTAAAzAAA2FnAJHEQcEADMAADMCAhwEC4wlM2N0T9SeDgAEYgAEEApMAAzDQ3xl4wxveYF/+8pftk5/8JI02wr2vGaCB6O8NBOWD0TAz8PWvf91eeuklKygosNmzZ9vPfvazfd1I9qvP+8IXvmCnn366XXrppXbGGWfYl770JXvjG9/Yr8o4wHhNrwHSRTn44IPtoIMOsgMPPNB7geQAdZzub3rTm7zHDbCgUk/cLgz0kgG1Hb///e+dOO7cudNKS0utubnZFi5caF/72tdCE1/F4SMf+Yhde+21tmbNGtu+fbvt3r07etf/N27caHfeeadrZ1O1x/25nVU9A10JNCPZY1ea0wd1TE8k//jHP7oLM2XKFPvRj37kBfYDH/iATZs2zdavX2/XXXed97g+qBif1ctGimuS3neDuGUmbt/5znecINbU1NjNN99sn/rUp+yOO+6w+vp6e+qpp+ztb3/7gP+Ov/Wtb7WjjjrKli1b5gxCTk6OjRgxwh577DF7+OGH7fHHH7fhw4e7tri1tdU2bdpkf/7zn+0973lPVsVG4vjVr37V/vOf/9i8efNs8eLF7r5kyRKLvev5kSNHOvP0rne9a1/VMT2gL7vsMtMtLy/PDj/8cG9hP/zhD1t+fr5zPQ888ID3OBqW9K4DcSNuA5WBs88+26qrq+2///1vtN347Gc/a8OGDbOqqio74ogjos8PxBi84x3vcF2qlZWVJnG8++677fvf/37SHrnvfe97dsMNNzixLC8vd38rQcmWuChTVpe6DJGyZQljIJSLFi0y3dWDoOcKCwvd/dxzz3WZ8z6oY3qNDCKZXtz2wQXNmi8GsYChVAycd955Vltba+eff34npo899ljXBTt//vxOz6c6Vza+poxQ9V+5cqUdc8wx9s53vrPL+h555JE2d+5cKykpcQKbLdm2xp1V5sGDB9svfvEL++53v2vqSdD929/+trt/61vfcs+fddZZVlxc7MzSPprIld4XtS9E8s1vfnPK8U0f6G9729u88GgcVP3avvfGP6/+bsZO02MiPpb8nzj2hoGTTjop2nDGnkdioayjra3NfvCDH3T7ux17jv7+t4awVq9e7TLpX/7ylwkTc4477jgXg1NOOaVT/dVtqZ69VatW2dq1a+2LX/xip9f7a72/+c1vuizyiiuuMI1Npirnxz/+cWccNIlLXbTioY/NQHpf5EyJpPrcr7nmGpdGa2C+rKzM/f2vf/3L9FpssCRgL774oo0fP97N6rr11ltdsNQdoS5d9dUfcsgh7j0a8NdYqFJznXPp0qWmc8aeL/ZvuTYFvaioyH0xFyxYYH//+9+9x8e+l7/TY4i4EbdUDGgWp7IifX9jj/vEJz7hvtuasPLjH/+402uxx2Xz37fccott3brVTdZJNhHn5Zdfth07drhxyfh6SigvvPBCN3arIa5sMP2BSHanzf3Yxz5mr732mmuvJZJDhw615cuXu6wzPhYZ+n96X9RMiKT63MeNG+fGKwWEuhZ0b29vdwCMGjXKPv/5z0e/BMoI5Y7kINXv3tTU5ECoq6tzQO3Zs8f1Z2tQX8e0tLS48+k4zY7TjLB77723k1OREGvwW6/pc4MybNu2zY25aoBcGW6Ggs15mEwEAz1g4KabbnLf5QcffDDay6S2p6GhwWVSA/F7qa5HTV7ZsGGDtxdM3ZK7du1KKpKKibomZfQ1lvmWt7yl3zPXE5FU5njllVe6JEYTlO666y5Te61ESEmSTEKGueidSCrz0tjBN77xjaR3dRUoQ5QIxU7ckfA888wzJmHbsmWLXX311aZB+c997nMus1Sfs4RTs52CmVqBSEq9tGZKM970uVpkrEFrlUU3CaIgO+2005zIanbY5MmTnfBqwF9OVEGUw9K0aomjntffn/70p91dWapEVl9GDRBnOOicrwcNJbFP7zs6EOKm77eMsb6fGqdSnZRlaSnIQM0iTzjhBNdmyuz7ssBHH33UtWexk5rir/c999xjmvGqbCv+tf72/56IZLKyq65KcKZPn+64UK9jsuPSfC69L2CQSUrINO1YfeDJ7gI8WNcTK5IanBX4er+6W+Mrpe4CXWA5oeDLEIikHJSCEjuQLSGV25QYa0acZoHFBkTgaeaUuihOPvlk95ocm2ZRSah1vtjjJeKTJk1ygvvCCy8kdP3GHsvf6TFE3IhbdxhQF5wyBc1q/ehHP2oXXXSRaxAlIt15f7Ydo+V1WuZy4okndur1iq3Hbbfd5mKitZGxz8f+fdVVVzkz0Z0uzNj37Y+/k4mkDMJPf/pT07jrqaeemvSuREh3baqgLlhxMnHiRNNs32Td1GnWLb0vaiCSEkBlcJs3b056z83NdcIUn0nKDapCWkKiPub4wivbk8Aqy1MAlEIHIinx1Bhi/Hv++te/OkHWbDAdG/u6uh80e0pZ5iWXXOJeO+ecc5ygqjtWa7Bij9fff/nLX1xmqqnHylbjX+f/6bFD3IhbTxjQUoapU6c6YVSDr8koMrASEglKT86VDceq50ptUrzRjy375Zdf7hIM9abFPh/7t2LV2Njo1pbGPt8f/04mkkqCtAZUc06UUHV1Fw/SGWmSehYzOEyW3hc2EEkJpMRGIpLs/pOf/MSJU7xIPvHEE06wZs6cmfQi64sxevRoJ1I33nijaQZrIJK68FpDFX+x5TAlquqbjhdJ7dARiGTgrDSTSt02yi7nzJmTcJdI67Zu3Tr7+c9/nvB58Z/P/9NjibgRt64Y0NwEDctoU5Jf//rX9rvf/c7NS1D7o1mwXb0/m17/05/+5IZ5fvvb33ozSW1Lp+Gg66+/3lt3jdtJbFNNWOwvcUkmksokNVyn7fekNzIGarv/8Y9/uLvab9Xxn//8pxuuU0+DehnVbqunst9kkuluJvDcc8+5Ck2YMCHpRX7ve99r6ubUTd20chWZFkl18yor7eqmLl99MfsLUJQDUQkbA1oWoGESTdJTt5rGKtVzpOEamV+JRmxM1FWpZRKplofFHt+f/lY9Kyoq3OYBvkkoX/nKV9zwVrJkIahLMEP20EMP7RSb4PX+9JhMJFU+XXeJXaq7YqSeRc0fUc+lDFRXy0h6WPf0Gpwgk0xXJDVrVBmcll0kK/AHP/hBt9RD44VyS5qFmmmRDDJJ1eEzn/mM966u3/jlKMnKzHPpsUTciFt3GNA2ZGoLNEFDGwloiYiEUpP49Nyzzz5ryr5mzJjhutyUaWnOwdFHH20y3d35jP5wjNZIrlixwm1F51v/p/ZI7VLsvIzYsmv4SEvlNAEyg92OfRZDn0jG1in4W6Iok6SZrJrLop5MZcwSyGC+SXBshh7T+4L2ViTVBaCuUXWXJBsP1CxXZXDK9FRxOYlMi6T6/jXJR5+hL1yygGbD9Olk5ea59Lgmbv07bpq4o+3ZNAlPSxy0mYAyBy0X09iVhmL0qM0GNLFHbYjGsp5//vm+XEeXtO1IlyUtjdPsVTX88ZsFBOdUpqyJkpo3ETwXPEo41GWr9aXqjfPNkA2O7w+PPRFJbWGn5Erj1BqffuWVV9x2fH0kkIpvel+K3oqkgqKF/pq8o7WL8U5PyzH0mkAIBrAzLZJyI8HsVi3OjZ9ApAsg5xrMrk03VrwvPcaIG3FLxoAyKG10rq5XbfytLds0H+LMM890Y1aazKP2RFmW9nfVmkJN6tBchVT7TCf7rP31nMqtzEhrJYP2L7YsWtamZW5afhf7vLoZteRDAqINVg477LBMdz12+rzYz+7N3z0RSe24o0xb80g010TzRfp4OCy9L2JvRVIB1VpEdbnK8WhBv/bkE+Ba+6MMT33M+uUQOSsdn2mRlMPS+sxg4wE5Eu0Tefzxx7uBYu3YI2eqtZrxS1R6AwTvTY854kbcAgY+9KEPOUFUO6GZ9eqZUuMZvB77qP09Nf9Ak/Q0UXAf7feZtCyx5Ur1t8ZStcxDMzXVDv3whz/sdD61hRKW+E3Mtc5b7Zgy7X//+9/e7thUn70/XlPCoh6Ahx56KLou3lcOXT/1EGiGc+xmM77jM/B8el+8TIikxhgUFMGrrFFuT3f9rfEEdavE/hxKpkVSwZPbvP3226OzXCXMAkxdHZqRqy+VYMzwQHAn4DNwETlfmj0ixD69739/iJvG5ZRBaDaj2hCtj1OvT7LvquYcaNxS+6FKSPpD+bsqw7vf/W7XZaz2UJmTJielmoik7kb1jKnt0kYtyri7+oz+8rquibYg1DVShqjx1OCuXdnGjh3r7vpbdZQ+aGLSPporkt6XRDvxqxJPP/2026HdF2wt8tcFU+UuuOCChIumQVh1CWj6riqvLhEdq+6E+HMq81NfvfbqS9ZtEoxN3HfffQn98Br31LiEgq1MMf7c2mle3TJaE6kyqLtCRiD+OP6fHi/Ejbj1FQMSQLUfmlugnh+NRb7//e93bYDmMqjd0HOptnHrq7Jl4rxKFpQ8aCavZvZqSZx2H9KkHmVgGhLSRCZlneoVe+SRR1z9M/HZ+/Ic2jhAGqDrqPkqussgxN91jQcNGmRf+tKX9lX7zJd3X4LAZ8EbDGSeAfU4aahEjayySm2FKdOrtXV61HPKxvZR91xGG2/1oCkB0I8NayavREKCKRHRozJHzWJVAhC/FCabWdMwm3r6NL4ce0+VTfdRfTMPbB8VNKPgUUauOwwMPAY0gUfzDDSOJ0GRWGoGvQQkG9YLpmJSoqEeNC2m13ilMkw9ajG9Jvowb6LPeO6zEyNqjJPBAAzsFwaUMWp9pH4yT0ND6pJNJUC8hg6kYIDgpAgOXywaeRiAARgINwOIJCIJAzAAAzAAAx4GCIwnMLjHcLtHrj/XHwZgQAwgksQABmAABmAABjwMEBhPYHCRGCgYgAEYgAFEEpGEARiAARiAAQ8DBMYTGBwkDhIGYAAGYACRRCRhAAZgAAZgwMMAgfEEBgeJg4QBGIABGEAkEUkYgAEYgAEY8DBAYDyBwUHiIGEABmAABhBJRBIGYAAGYAAGPAwQGE9gcJA4SBiAARiAAUQSkYQBGIABGIABDwMExhMYHCQOEgZgAAZgAJFEJGEABmAABmDAwwCB8QQGB4mDhAEYgIGwM/DZU6807sQABmAABmAABhIZOODnz6417sQABmAABmAABhIZOOCXL24y7sQABmAABmAABhIZQCQxCZgkGIABGIABDwOIpCcwOKpER0VMiAkMwEDYGEAkEUkcJAzAAAzAgIcBRNITmLC5JepLhgADMAADiQwgkogkDhIGYAAGYMDDACLpCQyOKtFRERNiAgMwEDYGEElEEgcJAzAAAzDgYQCR9AQmbG6J+pIhwAAMwEAiA4gkIomDhAEYgAEY8DCASHoCg6NKdFTEhJjAAAyEjQFEEpHEQcIADMAADHgYQCQ9gQmbW6K+ZAgwAAMwkMgAIolI4iBhAAZgAAY8DCCSnsDgqBIdFTEhJjAAA2FjAJFEJHGQMAADMAADHgYQSU9gwuaWqC8ZAgzAAAwkMoBIIpI4SBiAARiAAQ8DiKQnMDiqREdFTIgJDMBA2BhAJBFJHCQMwAAMwICHAUTSE5iwuSXqS4YAAzAAA4kMIJKIJA4SBmAABmDAwwAi6QkMjirRURETYgIDMBA2BhBJRBIHCQMwAAMw4GEAkfQEJmxuifqSIcAADMBAIgOIJCKJg4QBGIABGPAwgEh6AoOjSnRUxISYwAAMhI0BRBKRxEHCAAzAAAx4GEAkPYEJm1uivmQIMAADMJDIACKJSOIgYQAGYAAGPAwgkp7A4KgSHRUxISYwAANhYwCRRCRxkDAAAzAAAx4GEElPYMLmlqgvGQIMwAAMJDKASCKSOEgYgAEYgAEPA4ikJzA4qkRHRUyICQzAQNgYQCQRSRwkDMAADMCAhwFE0hOYsLkl6kuGAAMwAAOJDCCSiCQOEgZgAAZgwMMAIukJDI4q0VERE2ICAzAQNgYQSUQSBwkDMAADMOBhAJH0BCZsbon6kiHAAAzAQCIDiCQiiYOEARiAARjwMIBIegKDo0p0VMSEmMAADISNAUQSkcRBwgAMwAAMeBhAJD2BCZtbor5kCDAAAzCQyAAiiUjiIGEABmAABjwMIJKewOCoEh0VMSEmMAADYWMAkUQkcZAwAAMwAAMeBhBJT2DC5paoLxkCDMAADCQygEgikjhIGIABGIABDwOIpCcwOKpER0VMiAkMwEDYGEAkEUkcJAzAAAzAgIcBRNITmLC5JepLhgADMAADiQwgkogkDhIGYAAGYMDDACLpCQyOKtFRERNiAgMwEDYGEElEEgcJAzAAAzDgYQCR9AQmbG6J+pIhwAAMwEAiA4gkIomDhAEYgAEY8DCASHoCg6NKdFTEhJjAAAyEjQFEEpHEQcIADMAADHgYQCQ9gQmbW6K+ZAgwAAMwkMgAIolI4iBhAAZgAAY8DCCSnsDgqBIdFTEhJjAAA2FjAJFEJHGQMAADMAADHgYQSU9gwuaWqC8ZAgzAAAwkMoBIIpI4SBiAARiAAQ8DiKQnMDiqREdFTIgJDMBA2BhAJBFJHCQMwAAMwICHAUTSE5iwuSXqS4YAAzAAA4kMIJKIJA4SBmAABmDAwwAi6QkMjirRURETYgIDMBA2BhBJRBIHCQMwAAMw4GEAkfQEJmxuifqSIcAADMBAIgOIJCKJg4QBGIABGPAwgEh6AoOjSnRUxISYwAAMhI0BRBKRxEHCAAzAAAx4GEAkPYEJm1uivmQIMAADMJDIACKJSOIgYQAGYAAGPAwgkp7A4KgSHRUxISYwAANhYwCRRCRxkDAAAzAAAx4GEElPYMLmlqgvGQIMwAAMJDKASCKSOEgYgAEYgAEPA4ikJzA4qkRHRUyICQzAQNgYQCQRSRwkDMAADMCAhwFE0hOYsLkl6kuGAAMwAAOJDCCSiCQOEgZgAAZgwMMAIukJDI4q0VERE2ICAzAQNgYQSUQSBwkDMAADMOBhAJH0BCZsbon6kiHAAAzAQCIDiCQiiYOEARiAARjwMIBIegKDo0p0VMSEmMAADISNAUQSkcRBwgAMwAAMeBhAJD2BCZtbor5kCDAAAzCQyAAiiUjiIGEABmAABjwMIJKewOCoEh0VMSEmMAADYWMAkUQkcZAwAAMwAAMeBhBJT2DC5paoLxkCDMAADCQygEgikjhIGIABGIABDwOIpCcwOKpER0VMiAkMwEDYGEAkEUkcJAzAAAzAgIcBRNITmLC5JepLhgADMAADiQwgkogkDhIGYAAGYMDDACLpCQyOKtFRERNiAgMwEDYGEElEEgcJAzAAAzDgYQCR9AQmbG6J+pIhwAAMwEAiA4gkIomDhAEYgAEY8DCASHoCg6NKdFTEhJjAAAyEjQFEEpHEQcIADMAADHgYQCQ9gQmbW6K+ZAgwAAMwkMgAIolI4iBhAAZgAAY8DCCSnsDgqBIdFTEhJjAAA2FjAJFEJHGQMAADMAADHgYQSU9gwuaWqC8ZAgzAAAwkMoBIIpI4SBiAARiAAQ8DiKQnMDiqREdFTIgJDMBA2BhAJBFJHCQMwAAMwICHAUTSE5iwuSXqS4YAAzAAA4kMIJKIJA4SBmAABmDAwwAi6QkMjirRURETYgIDMBA2BhBJRBIHCQMwAAMw4GEAkfQEJmxuifqSIcAADMBAIgOIJCKJg4QBGIABGPAwgEh6AoOjSnRUxISYwAAMhI0BRBKRxEHCAAzAAAx4GEAkPYEJm1uivmQIMAADMJDIACKJSOIgYQAGYAAGPAwgkp7A4KgSHRUxISYwAANhYwCRRCRxkDAAAzAAAx4GEElPYMLmlqgvGQIMwAAMJDKASCKSOEgYgAEYgAEPA4ikJzA4qkRHRUyICQzAQNgYQCQRSRwkDMAADMCAhwFE0hOYsLkl6kuGAAMwAAOJDCCSiCQOEgZgAAZgwMMAIukJDI4q0VERE2ICAzAQNgYQSUQSBwkDMAADMOBhAJH0BCZsbon6kiHAAAzAQCIDiCQiiYOEARiAARjwMIBIegKDo0p0VMSEmMAADISNAUQSkcRBwgAMwAAMeBhAJD2BCZtbor5kCDAAAzCQyAAiiUjiIGEABmAABjwMIJKewOCoEh0VMSEmMAADYWMAkUQkcZAwAAMwAAMeBhBJT2DC5paoLxkCDMAADCQygEgikjhIGIABGIABDwOIpCcwOKpER0VMiAkMwEDYGEAkEUkcJAzAAAzAgIcBRNITmLC5JepLhgADMAADiQwgkogkDhIGYAAGYMDDACLpCQyOKtFRERNiAgMwEDYGEElEEgcJAzAAAzDgYQCR9AQmbG6J+pIhwAAMwEAiA4gkIomDhAEYgAEY8DCASHoCg6NKdFTEhJjAAAyEjQFEEpHEQcIADMAADHgYQCQ9gQmbW6K+ZAgwAAMwkMgAIolI4iBhAAZgAAY8DCCSnsDgqBIdFTEhJjAAA2FjAJFEJHGQMAADMAADHgYQSU9gwuaWqC8ZAgzAAAwkMoBIIpI4SBiAARiAAQ8DiKQnMDiqREdFTIgJDMBA2BhAJBFJHCQMwAAMwICHAUTSE5iwuSXqS4YAAzAAA4kMIJKIJA4SBmAABmDAwwAi6QkMjirRURETYgIDMBA2BhBJRBIHCQMwAAMw4GEAkfQEJmxuifqSIcAADMBAIgOIJCKJg4QBGIABGPAwgEh6AoOjSnRUxISYwAAMhI0BRBKRxEHCAAzAAAx4GEAkPYEJm1uivmQIMAADMJDIACKJSOIgYQAGYAAGPAwgkp7A4KgSHRUxISYwAANhYwCRRCRxkDAAAzAAAx4GEElPYMLmlqgvGQIMwAAMJDKASCKSOEgYgAEYgAEPA4ikJzA4qkRHRUyICQzAQNgYQCQRSRwkDMAADMCAhwFE0hOYsLkl6kuGAAMwAAOJDCCSiCQOEgZgAAZgwMMAIukJDI4q0VERE2ICAzAQNgYQSUQSBwkDMAADMOBhAJH0BCZsbon6kiHAAAzAQCIDiCQiiYOEARiAARjwMIBIegKDo0p0VMSEmMAADISNAUQSkcRBwgAMwAAMeBhAJD2BCZtbor5kCDAAAzCQyAAiiUjiIGEABmAABjwMIJKewOCoEh0VMSEmMAADYWMAkUQkcZAwAAMwAAMeBhBJT2DC5paoLxkCDMAADCQygEgikjhIGIABGIABDwOIpCcwOKpER0VMiAkMwEDYGEAkEUkcJAzAAAzAgIcBRNITmLC5JepLhgADMAADiQwgkogkDhIGYAAGYMDDACLpCQyOKtFRERNiAgMwEDYGEElEEgcJAzAAAzDgYQCR9AQmbG6J+pIhwAAMwEAiA4gkIomDhAEYgAEY8DCASHoCg6NKdFTEhJjAAAyEjQFEEpHEQcIADMAADHgYQCQ9gQmbW6K+ZAgwAAMwkMgAIolI4iBhAAZgAAY8DCCSnsDgqBIdFTEhJjAAA2FjAJFEJHGQMAADMAADHgYQSU9gwuaWqC8ZAgzAAAwkMoBIIpI4SBiAARiAAQ8DiKQnMDiqREdFTIgJDMBA2BhAJBFJHCQMwAAMwICHAUTSE5iwuSXqS4YAAzAAA4kMIJKIJA4SBmAABmDAwwAi6QkMjirRURETYgIDMBA2BhBJRBIHCQMwAAMw4GEAkfQEJmxuifqSIcAADMBAIgOIJCKJg4QBGIABGPAwgEh6AoOjSnRUxISYwAAMhI0BRBKRxEHCAAzAAAx4GEAkPYEJm1uivmQIMAADMJDIACKJSOIgYQAGYAAGPAwgkp7A4KgSHRUxISYwAANhYwCRRCRxkDAAAzAAAx4GEElPYMLmlqgvGQIMwAAMJDKASCKSOEgYgAEYgAEPA4ikJzA4qkRHRUyICQzAQNgYQCQRSRwkDMAADMCAhwFE0hOYsLkl6kuGAAMwAAOJDCCSiCQOEgZgAAZgwMMAIukJDI4q0VERE2ICAzAQNgYQSUQSBwkDMAADMOBhAJH0BCZsbon6kiHAAAzAQCIDiCQiiYOEARiAARjwMIBIegKDo0p0VMSEmMAADISNAUQSkcRBwgAMwAAMeBhAJD2BCZtbor5kCDAAAzCQyAAiiUjiIGEABmAABjwMIJKewOCoEh0VMSEmMAADYWMAkUQkcZAwAAMwAAMeBhBJT2DC5paoLxkCDMAADCQygEgikjhIGIABGIABDwOIpCcwOKpER0VMiAkMwEDYGEAkEUkcJAzAAAzAgIcBRNITmLC5JepLhgADMAADiQwgkogkDhIGYAAGYMDDACLpCQyOKtFRERNiAgMwEDYGEElEEgcJAzAAAzDgYQCR9AQmbG6J+pIhwAAMwEAiA4gkIomDhAEYgAEY8DCASHoCg6NKdFTEhJjAAAyEjQFEEpHEQcIADMAADHgYQCQ9gQmbW6K+ZAgwAAMwkMgAIolI4iBhAAZgAAY8DCCSnsDgqBIdFTEhJjAAA2FjAJFEJHGQMAADMAADHgYQSU9gwuaWqC8ZAgzAAAwkMoBIIpI4SBiAARiAAQ8DiKQnMDiqREdFTIgJDMBA2BhAJBFJHCQMwAAMwICHAUTSE5iwuSXqS4YAAzAAA4kMIJKIJA4SBmAABm+lfuEAACAASURBVGDAwwAi6QkMjirRURETYgIDMBA2BhBJRBIHCQMwAAMw4GEAkfQEJmxuifqSIcAADMBAIgOIJCKJg4QBGIABGPAwgEh6AoOjSnRUxISYwAAMhI0BRBKRxEHCAAzAAAx4GEAkPYEJm1uivmQIMAADMJDIACKJSOIgYQAGYAAGPAwgkp7A4KgSHRUx2WSHD86xh5ZW2ezCZne/bWbJfm9cHllU4coyq7DZ/j27bL+XB0747gwkBhBJRDIjjeoJr+baYwvL7X+LK+y/c8vsNy/ldOu8l44vsCcWVbj33TGr7wTnDyPybOyGOptf0GSXTSy0Q9O87qrX1Pwm273H3P2lZZXdqmdfNhozcupdWXbt2WPPrKzpVXlOGZZrTy6usFlbGm15WastKWmxKZvq7c5ZJXb0y5u7fe7ThuXZ44si51lW1mpLS1ptak6D/XdemR37iv88104udCyIo57en1pcYb8fmtvtMvblNeHcA8coIJJpNpZ8CTp/Cf48rsBat+823Uobt9uxr3SvsRq0uta27dzj3remcmufNHC/Hpxjzy6rcp+hf3KqtrqMMJ1rKJGclt8UPdeQ5ftfJGfm1Lvy7NljaYvkbwbn2KOLKqx+685o3WL/0Lnza9vt6mnF9qtBfgMkAXxqaaXVte2IfXunv6tbd9h/55YmNVJBXTq9oZv/2blnj10wobBPGEqHFd7TuY3I1nggkohkRhqV/iySEoAXVlTbLqV/ZrYRkex0zWUinl9WZTs74rN9524rb95uObXttrm23Wpad0Rfk4heM7240/uDxk+Z5vgNddFj23fsttKm7bapJnKeyubttn1X5Bros15YXmVHDO4suGPW1Fhd645u3+vbdrgsWte1sX2XnTeuIGnZgjLyODCEa19eR0QSkcxIo9KfRVJdq+eMKbCxmxpsZn6T3Tq71A4blF5jMRAzyX9OKbKWjl6Alm27bPymert6apGdMTLP/jhyi908q9TmFjabxFO3wvp2+/2riT0FTy+tjApkVcsOG7Km1q6YXGjq6j5r1Ba7blqxTcxpsNbtu9x5JGrXTussuBePzbfbZ5Z0+/7Kiirb0SHuc/Ob7ES6WzPyfd6XItTfPwuRRCQz8qXqzyKpL6GEUpmOxk5/laZA6jwDTSQPHbTJZmxpNHWnKtOeld9kJw3rLICK3fljC2xVeZsTN+WCjy+u6MTNycNyraaji7V52y57Znm1HZVkDPOkYXm2oKjZdu/ZYxpDnbS5Ie3xYV2PyR1dzRL3u+aVp+wK7u+NMeVLz7j2ddwQSUSyU2OXLnD9XSTTrVf8+waaSJ4zOt8KG7Y58Wvatstum1WalAeNQ/5vebVt3RHJJldXtHU6TpOuot3Z1VtN542PXfB/CWyQla6tanPGJXitJ49nj9xibR3lWVXeamen+MyenJdj+6dY7a/rgkgikt7GrCdQ9pVIPjS/3J5eXGF3zyq1Ezu6+M4bnW9j19ba8tIWU+M4O6/B7pmdvHFXHZQJ/Wl0vjuPznXd5KKU2YsyoAfmldn8/EZbU9Fmy0pabOiqavvTqC09yiTVpXvJhAIbtabGlpW22NqKNlta0mLDV1fbBWPzu93l+9uXcuzu17uI525ptDWVbe5cI1bX2Plj8u2wFzdZMNklnYk7d84usYaOyTqlTTvs2CTZX8DBjdOLrbpluxPU+vZdncRN8Spq3G4lTdttdE6D/SpurDE4hx7/Pb04Km55de12bpriNmlTnStL+87d9vSK6pTXNPbz+RsR7AkDiCQi2a9Fsm5rZJZkYV27y3ImbKq3nZEhLddAxv6TW9NuF4wtSGgsJVZ3zCuLHjontz5pt9zhg3LsyslFVlgfyayib+j4o6l9lw1eVWOLS1uiLyWb3SpRvnB8gS0uarZtuyKZV/QNHX9s37XbZuc12snD8rzxV/Z2xeQiW1fZ5rom48+hLGrEmlpbmN/oXkpHJJ9YWmltHWOEK+Oyw/iG5Pyx+ZbfERvNZL5ycnozSe+YVRrNSDWp5/QR/hjElyH4vwxLXYe4F9Rvs4vHM2EniA2PmTUBiCQi6W2ke/Jl66tMMhDJ+radVtqwzU0MkVjl17VbTs1WK2vabts6JpRorEzdgKcN79zodkckJWw3ziwxjafpJsFpat8Z/Rx9troaNWMz+Dwdl0wkL5tUZKUNkYxLszirWrbbuqo2W1HRZrm17e4zInM8zdaUt9rJSSabqDyXTyq0LXXtrjz6R+NuMguqd3HDNiduGtsLMsF0RPKFVTXR+sx7fYOEVNf8lGF5trF6qyuP4nBXiuzddx7NpB2xrtZdR5V9Rn5Tj5fjaEz51TU1tmPXHtfFO2ZTfbezcl+5eD6zwjKQ4olIIpIpG8buwt7XIqmWWY3q6vJW+8+CcteNqS7Lq6cW2/B1ddHuOwnJg6/vQBNb7u6I5Llj8qOCpAklG6q3uvOou1QZ1D8nF9lzK6utpHGbBQKnMsWLpLqEJeC6SUxnFzQ58dUsUWWNF40rsKdfq7LypoiI6jgtT4ktr/7W2OfSkmZ3Hv1TUNduDy2utMsmFLpuVmWYT7xW6cYTg/KkI5JD1tY5sdFnaAJPfDli/3/My5ttTVVEJFW3B+f3bHefI1/KcTNlixsjddfsVhmT2M/ozt/njcm3nJpIjHUOmYnuvI9jEMJ0GEAkEcmMNDD7QiRXlrXaxRMSd8s57pXNbpxODb0EbtSmetOszeAL0R2RfGFVdTSj0to+LYtQ1hOcQ48aG7xvYblbNxioV7xI3junNCqi66q2ulmhygpjz/O7IZtt6DptohDpipUgq4yxx9w8syQqXlpfeNOs0oRZuSqfFvfHZr893XHnlXV10SUU0/JSi6TKvboyMsNVZX90YXmnMseWX7GSsdCY592zS+yxxRU2IafBZf4yO1ovqQ0edFzs+7r6W9f18deqol3ECwt7nol29Rm83pnFsMcDkYxrwMIORLr172uR1Nq6O+eXJ4hJUN7By/fuqDOnsNmOidn6rCuR1FZs2oJNGZmW3I1YW5sgSMHnSJDnFu3N8OJF8sqJBTZ4RbUNWl5tN84o8Z7nztml0W7S8pYddtLQzl3ES4sjn6HyDF1XZ0cNSb6Vm7oeezMm+cr69EVS2xAGcYl/PHvUFhdTCbiy+63bd0fXUJY0bLPbZpeaMsv493X1f41FasJWcK0un0gW2VXMeL13oo9IIpI9bqiSfen6WiS1OP2quIXnseV4eMHeiTmLS1o6TYjpSiSvmlJopY2RyToaQ7w0xdZm6SwBUSapMkjQgrtmeNa2RiYlVbXusDNHboleBx0vYdFN4423zEndrdmb2a19JZKaeavxS2WNkbtFM2yN9Q5bXZ2Qqcdez2R/Ky6KRbAZwdqK1mjMkh3Pc70TB+IXiR8iiUhmpKHZ3yL5UC9E8vY5pabtzXTTWsFUe5N2VyQlitps+5yx+Xb9jBJ7ZlmVDVtdY2PW1br7osKm6AzPeJE8Y0SeK4v+Ka5vtyu6GHPrjyKprlmtnXx2SYU9t7TShq+psUXFLaZ9W9UlrtuKshY7JW6SVaqG+aShuW6Der1Xk3ZunNF5t55U7+U1BDNdBhBJRDL0InnPgnInjk6UGrenjEd3RFJjhTfOKnW/pKFssWPXNCcMyf6JF0lNRAlum6q32kXj/Avz9cXvjUi+HDMmOb2LiTtaP7q6cu/EnUcW+LtbkzVIGn+UYdDsXOmksvbRG+rsiG50uyqLvGrq3vFXZZE9+VWSZOXhOYSzOwwgkohkSlHoDkQ6JpszyXsXVkQnv2gdYKo6d0ckn1xWFZ3co4ynuH6bLShosrGb6m3Y+jp7dV2dLShs9maSWn8Y3DZUtbnZtanK1BuRHLymNrrpuGbipvqc417JNU1G0k0L+PVLHqmO971219wy936dRzOBLxrb9RpHZfcz8yLrQTXp576FFaZ1rb7P4HkEMFMMIJKIZEYaGv36QnPHonTNDj02yQbYyaAdvHpvI70qyU9lBeskuxqT7E13613zy90vSKjRLmvuXSZ5zZSi6JhZY/tOe35VjV04rsBOHZ7nfkdR2Zi6Im+dVRL9Oan4TPJv4wucEOmf3Jqt9tcuFsr3RiSfWVHt1n7qs5aWtqRk4YwRW9wvg+hYrRlNt7tTk5BUZ920/vWOOV2L7QVj8qM/xaaYaMlOMp54DnHMNAOIJCKZkcbm3LEF0R1QtBPKcd0UyWEbIrMrNUq1uDRxIsa+EMmbZpZYTUuk0d66c7cdNcSfoXSVSWqtoW7qShyzqcF+6znXv6b5J+6oGzHooi1v3OZ+kSPVF783IvngwvJoFq0t4g5LkZ1dNrHAijsmOMkQaf1oUK4Lx+bbv6eX2A3TS0zrGIPnfY8FMfvF3he3rjXZe+Z0ZJHaH/bZlTXd6qJNdh6eQ0R7ygAiiUh22aB1B6o/jtoSXUSvBv7ibkzNV0Y1rzgynV9jVONz6hPKsi9E8i/jClzGJnFTI3z7LP8Cd4ne9Nc3CAhu8UtANnYsctcMzEeX+H+QWXuxNnZsqxafSSre2rRAN20995+FFQlb7cVek1mbG9yx6WwmoPWgytJ1q23bacpiY88d+/c988qiy1aUccdOcBqX0xD9JZFxXfyyh7pJKzs+U7N3756XevaulpPs7PgdSi0fuXJKkbeMseXlbwQxEwwgkohkRhqc41/NtSk59a6hVIO7uKgp5WbZaii1Vi5ooDXOlEyc9oVIakLJ1LxGN+tSQjO3oMm0u0yyL9h5Y/PdXqpOVZLsuLOpNrITjMbstEOPZrnGn0fmYPDKmk5jktqRJ/a4V1fXBB9h8wqaErbaC449/pVcy6nu+AmrPWY93UxAG5qvjdlF58WVyZdmqMwjN9ZH1zpOz23oVN6nllS6pR4q9JrKrZ2WtARlDR71u5LBr3fIDPw9haHSkpmJm+pdLGRg9NNaR3vWjAbn5zGROWKSfkwQSUSyU2OX7pdJYqAZncHaP3U3DltT68aO4oXiyCE5bjsy/cJG0K2o3XSSLZjfFyKpOt+ixf3tO11jrGUg2g1GSziCeGh2pbJlZUzBTjk6OD6TnJ0fyTIltqsq2uxvEwqjE0x0Du1/+uRrVVbRHMnedA4tizh7dGeR1LrJIJbagPzFVTUJP3SsjcGHra2NxjCdTFL1e3Z5lRM4dXmry1Vb/cXuNqTZp8r2gq30VH/tphPERo/K9uraIvFTFj1sXa1b3qE6B8eJA5mMJcUt0fWTmiyUapbqhePyrbwjVurGv8XzU17BZ/C4N97EIjOxQCRjvsRA1TuoNA756traaIak7FA/7TR0Q51pxqe6HzVRZHJeY3R7MolEQX27m9ySLP77SiTVUE8Nui07FvHPzG9yv6GockuklpW1Rie5ODVNIpLXTyuOzhbVzFZtOacZrar34LW1tqikJTpJKDiHxOWyuGxKgvL0sirTr4XoJuGZW9hs/1tRbY8tqXQTgrTuMMjIdEy6InnqsFzbXBOZtapsTZuwv7ym1h5cUG4PL6qwERvqraRxe7SXYNrmhk5drcF1e2JJZbS82gxhflGL+/Hl++aV2QMLy23Qmlq3rV1QJ3Uz/yNObINz6VExUDl0vAT8tbJWN/kp9hj+7t13lvh1HT9EEpGMOv1MfGGOH5prr6yujU7xV+O9Y/ce15iroVc3ZJA96lEblv81xQ43+0okVfeThuXZa8V7fwZLi941i1PlVvakhlrdg1tq26M/MByfSf5mcI69uFzipqMjN9VfE4L0nJ7VuRYVN1t9x5ikBOWeJMsptHh+3Ib66LkkgrHlUfy07ducXvxUVnDNNTu5qGMyTVDGYEs5ib1u+lfb5fl+2up3Q3LsmdcqoxOBVD6Vt7l9p3suiKHOpf1oNXkp1TIOTQbSOlF9rsT7/h5uqB7UjceuhYAY+WOESCKSGRVJfdk0jnTxuAJbUthkrR2/HB+Ri8i/2qZMv2rxyMIK016oqb6g+1IkVQ7NXn1lVU1CtifB1I8vXzqhwLS2cFuHcMSLpM7hxltnlbqfs5KwBTf9qS7L+xaUu3oHY4ESoaHr65LGQWOjTy6tjHZlBueSaGgN5SUTC+3euZEt+dLNJIP4nzg016bm1FtLx1Ke4LNUbgn6y6uqTcIdHJ/s0V37CQW2pKi5k1EKzqVf7Zi0sd51Zcd2xSY710NLKqO9EpoodHjchvPJ3sNz/sae2KQXG0QSkUzZ6PX2i6VxRi2O/+/cMntofrndNrPEzhrVefytt5/RF+/XhJgbphW7n4PSTNSz4ibWdOczNZanHwO+b26ZPTi/3I3jKdPsznvjj1Ecr59W5GJ4z5xSt8ziV2meK/7c8f/XJKxrpxbZg+omnV/mfoha6zvjj+vq/ycPyzXtUfvwgnK7f17kPL4JUV2di9fTa+CJW+/jhkgikj1u/Pji9f6LRwyJIQxkBwOIJCKJSMIADMAADHgYQCQ9gcHlZYfL4zpxnWAABvqSAUQSkcRBwgAMwAAMeBhAJD2B6UtnwrlxvjAAAzCQHQwgkogkDhIGYAAGYMDDACLpCQwuLztcHteJ6wQDMNCXDCCSiCQOEgZgAAZgwMMAIukJTF86E86N84UBGICB7GAAkUQkcZAwAAMwAAMeBhBJT2Bwednh8rhOXCcYgIG+ZACRRCRxkDAAAzAAAx4GEElPYPrSmXBunC8MwAAMZAcDiCQiiYOEARiAARjwMIBIegKDy8sOl8d14jrBAAz0JQOIJCKJg4QBGIABGPAwgEh6AtOXzoRz43xhAAZgIDsYQCQRSRwkDMAADMCAhwFE0hMYXF52uDyuE9cJBmCgLxlAJBFJHCQMwAAMwICHAUTSE5i+dCacG+cLAzAAA9nBACKJSOIgYQAGYAAGPAwgkp7A4PKyw+VxnbhOMAADfckAIolI4iBhAAZgAAY8DCCSnsD0pTPh3DhfGIABGMgOBhBJRBIHCQMwAAMw4GEAkfQEBpeXHS6P68R1ggEY6EsGEElEEgcJAzAAAzDgYQCR9ASmL50J58b5wgAMwEB2MIBIIpI4SBiAARiAAQ8DiKQnMLi87HB5XCeuEwzAQF8ygEgikjhIGIABGIABDwOIpCcwfelMODfOFwZgAAaygwFEEpHEQcIADMAADHgYQCQ9gcHlZYfL4zpxnWAABvqSAUQSkcRBwgAMwAAMeBhAJD2B6UtnwrlxvjAAAzCQHQwgkogkDhIGYAAGYMDDACLpCQwuLztcHteJ6wQDMNCXDCCSiCQOEgZgAAZgwMMAIukJTF86k7Cc+9AXN9nRL2+241/NtSOH5Jj+H5a6U0+uNQwMDAYQyQHYcJ82PM+OeXnzfhek3w7JscGramxGfpP9d0G5/W7I/i8TDdfAaLi4jlzHfcXAgBTJ88fm26zCZptb1Pk+v7jZlpW3ufvi0taE13X8A0sq7YiXcva7wKQLwP0Lym1TTbtNzW20P43csl/rcfQrmy2nus10m5RTb8e/0j2RvHVeWfT6KQtNNxaZet/IjfWOmSVlrfbwkkr73ZDu8/HPqcXOJCwrb7U5Rc12xaTC/V6fTMWF82SHUInXqyYX2d/GFfSIXa5v5PoOSJG8ekqR7di1x/bssYS7a7E7/kn2+oTchqzOeFaUt7ra1bbusNtmle7XBjldkXxxTa3t2B25fqeOyNuvdVBDUdi4LYpNbs1W+9uEgm6V6TeDc2zY+jrbuXuPe//WHbvtP3Myd03OHJlnV0wusn9OKbLDBnVfuGn8OovbH4bn2YVj8lNeU8X3iklF9vySCnt5eZU9NL/MzhyxJa0hhLNHbrEnFpbby8sr7bGF5fanUanPc9igTXbu6Hx37JBllfbwgjI7bVj3vxd/G19grdt327rKNrtobPfYhZG9jAxIkRSEEzbU2qSNdZ3u03LqXWMlcSyoa+/0WnDs3XNLTY1btkLyyMIKq27bYQuKmu2sLM0kB62pjQrLaf1AJIsat0dFctvO3XbPggpTw9UVI38dX2AS1eDWvmO33ZtBkRyyttaZQZ3/6Ff2f8bdVTz6w+saF1dPkXoo7phdaqvKWm3rzt02ZHVN0uv5q0GbnBFZW9lmu3bvcVzKgO/es8fatu+2kWtr7dhu9JDoc08dnmez8hpt1x5z59J5dE49ztnSaMckuYZHDtlss/IanGkMjt21J/KeYWtrumXoL51Q6BDcUttufx2HSPaUwwEpkr4gnDA018EiZz9sQ33SL4Xvvdn0/K/6icinm0n2V5HsSAhtYWGzndSFk//VoBz7z8IKU/YYvA+R7NpY9OX3TEJ16aQiG7a21koatjnBk2GWSCUTSR1/ycRCy61pd8esr95qw9fV2pBVNTa7oMnqt+5011ZC2VW5TxmeZ3MLm50oljZut3E59fbSqhqbsLnBypq2ux6vBYXNnURPZn1GboN7rax5u03IabDBK2tscm6jNW7d6dh6YWV1l8NDiGTvuEMkuzFx56iXN9sFY/Pt75MK7eLxBfb7ocldu7ILvXbSsFz77UuR2ZzK5i6fWGjnjt5ivx6c47LUEzuOkaPVF/H3r+aaso5/TCq0C8fmuxmh8V86neeyiYV22cQC++PILSaHG3+M/q8JO2rAT3g11w6POUblCZ5XOXTsSUNz7ZIJBa5e6s7RDNRk54x97vDBOXbWqC122YQCV6/zxuR7M+/9KZKqo+J0qeo3sdD+PCbfjkpz4pAySQldQ/tOUybZ2L7LLptUlDJWYmBeQZMzZZUtO0zuvyuR1Ezg88fku/LqOp8xIs8ktrHxF2MRfvJs9Kb6aMZ91uh8d311DjEV+x793ZN46Bor0xIvR3aMz4sNxVCxTPUdOLaDP73Xd1e9Th6muiWWU2VVZnbR2HzHlz7r1C4MSXxdff9XvTbXbnXXsLB+m03JbbSatp1ekdREM4missZFRc2Op+DcqqdErm37LmvdvstO6aKM9ywot6b2naZhEHWRB+fR9bxtTqm17djt7jdMK46+duXkQtu2c481bdtld88rM5Vf79P1fXBRhcsuc2q22l/Gp84OEcnknAXXoKtHRDJJgxIbtJtmltrkvEbbWNVmRXXtllez1RYUN9v9iyoSJqJITKdtabKFxS1246xSN8ljVXmrFda129TNDaZZp2q0NdtzQXGL3TKj2O6ZV+5cqbrldP5NVW02cXOjXTGlyDUi54zaYi+tqTWdp6C23d1Xlrfay2trk45LPLm00haVtNiYjfWdvtQ3TC92z4/bVO8mj9y7oNzmv/7F31LT7sqn8YpRG+vtvLEFSRtZxeSaKUWmSSwqS77KUtfuxjnGb26w66YVJ3RB7g+RPHxQjnP/GgtcUaZybnX1W1+puDbY9a/HoacTswKRzKttt83Vke7TEWtrvY28YnXxxEJrlKju2mOztzS6htknkjIwd88rt6lbGm1DVZsrr8q9rKzVBq+usXPH5EeviRgTP7rG5c07XJYhJV5a1uqei0ws2jtBKp14nD1qi43eWO/Od8esEmekxmyqN8VQLOs7MK+o2e6cV+7MYOz35fllEf5UPt99eVmrLS5psT/EdaVrYtcjSyptVkGzbaqOXDd91tKSFntuZY2dMbz743CxZQr+luEYvrbWHlxcaZdNKrTjNLGsNpIlJsskJfK63uoNuGVOWQLfl75ufos7xqv/PX2vuB350mZnKHRd9dkSt/+tqLaG9l02ZVNiD5aOK2na7sT6heXVUZEctkYCbbauamuCwVM3bFHDNiegt80ri74nqGvsY7xInjIs126aUWz3zy+zG6cXm/4fe3zs3zKWmmx279wyu3duqfu7P8ycjy1jX/+NSKYQyeeXV1td206XBQhWZRHqntFNDeCwdbV2Qsx4xHGv5lrd1p3umLy6dtcdEznabH3VVjdAf8vMEmtq3+WOyane6rITnVtuNbhp7GFTzVZ7YkmFrSxrte0axLDOx+g5iUA8sBrz0E1OOXb84YlF5e55OVmNwzR0lDP2c9XtJAE+JqZOAYAPLa6wqpYdLnNx4zE7dlu74tFRruKGbXb7nM5f1n0tknLYN88otsKGba7BUUg1YUEuXeVUXCuat9vts0ujohPUL9VjIJILS1ps0Ooadx7F4reezFQZkkRUn6lGftiqapdF+kRy7MY6x5PiqqGA5m27bMfu3e56ibllpS2mTFFlFGPKLHw3GQE1/jo23Xiod0EGSLeFBU2uMVa5VB/dddOjMuS75pd3iuXiggh/HYelfPjz2L2TZc4YnmsztzRZy/Zd7tw7d+2xlu27o5myWFuobC5OWFNdt2SvHfdKrsuqg9c2pRBJZdNj1tbahPW1buJM8J7g8bzR+balI07Xd2SAygyfWl7tYjZ9S2P0Opw4LM/OG1fgzTgLGyMiOWjlXpGUEVGcp2xuSBAxmZ8FWyLjm4+8VmWHerJylTUQyfy6dhu8strWVLRZXdsOa27faXWtO9x3/h9TijpdR7Fz8YRCm1fYbJXNO1wWrExY11zzHf4ywW+mg/gMlEdE0iOS984rcw2tGq61Fa2uS/KIITl29ugttqK0xX35W7btsrsW7G0kApEMGpHm7btsRk69/W9Jpd09u9Q1XoFI6hg1PDrXlZOLTBnCReMKbEF+pJHRl0OvS0Dn5DU4Z6quNGVCm6rb3PNq9J9aUtHpC9SVSOpzVac1ZS12zdRilwnIES8vaXHCrc99ZGF5p3OqAahu2eHqXNK43eSaJRC/e3mzO1YNmG5rK9pMDUfw5djXIqluupq2SDmL6tvt5pklrpxy3XfPLXcir3JqDCjocg7KmupRIinB1RKh62eUWFVLZCLPIws6m4LgHDq3GhO9Z/CaGjeTUTFKJpJiQ9dYBkXds677+qUcJ4bj1tdFZ/kOX1PjMmA1wicPz7NTRuTZmJzIhA7V6ewx+e45Tf5QA6eypBuPWJFU2WSonltW5SaeaPLJq6uqnVHQ575W0mJnxgjXpeMK3KxqzayOvw9ddR8pGwAAIABJREFUW+u6JvW+DZWt0XIePniTDVVdO8zgtM317py/finHzh6V77o69R4ZhhdeHw8M4pyJx1QiqfPL8OgexDT2M2+aWWI1rTvcxJ9ot/RLOTY9v8mJW23bzm6VVcMsMgcyc7HdrasrI70Ww1ftFc7g81WmsetqFRbXqyTGg9fiHwORVHyVFes7sqy42VaWtrr/6zuv7/+ZMRP9zh6d73o1xLBYnp/XYIs7xmH1nCYBicP4zxqI/0ckk4ikuh/UDaOb+vxPH965O+I3L212XU96fXFRs2kKueCIFUlNDJATi4cmEEmBqeUaGo+MPUZiuaIkIsI6/8RN9QnjUpdPLDB9AXWO2QXNnd7flUhKIOfkN7mu39jPVfdg4IqXF3c+pxomNZTKcP6SZHbc88uqXKzq23baTbP3LnHY1yL52IJy1wgr9v+aUdIpLhKX+xdXukZBhb1qyt5xodg4JPvbiaSZLShpceOB6qZ2DUVde1KxvW9emYuHxFSi+uiCcm93q7oVNaa1uLgl4Zpo7HFefmRcU93b8Rl+V7Nb041HrEhqzO36aYmxmtIxU7y8abtdOTXx9fg4nvP6mKm69HXTxJU/jtq7hldjnStfN4uKw5Kipk7XTefRphTK3HVbUtKSsnsw/nO7+n9XIul7v7LMSZsbnZGdFNeFKtEbtb7Obo7pgo09jzL900ZusdNHbbFbZpWauvFloiZtbugkxpoopJuWnMS+X39LJGWcdBu5oS7pPIbgPYFIylTPL2i2MzrEUMJ/1dRi17Ol7/YlHWOlOvc988sd4xsq2+z0GPG8aHyhba7Z6l57dFFngx583kB7RCSTiOQDCyucIAjABxZ0zqoEgODSQLpctr68F3WIYaxIPueZdRaIpMRqSBL4lYU8uzwiOmqIL44Z5A/gU4OfWxdZu7eqsq3TF6grkZSQ3TE3MQPSJB7NvtNNXcXBZ+lRovzAvMiYROzzwd9q8HRr3bHb7lqw94uzr0XysnH59uD8MjfWe2Kc+VBZlYVXNUeyQHU/B+Xv6lEiqduS0lb3nkeXVroGXdfnmjiB0PXTOJZem1/YbCcPy7WnFlXYdk8mqXWTim2yTQZ0ric6DIgmmIiv2LJ2JZLpxiNWJBcVJIqWynDzzFIXE83wvH7mXmMUW77gb41rTd5U72Ki4Ys755SZuguD1096Nddum1Hsrt3FMV2wwet6XNTRjasxW20WEvtab/5ORyQ1hqixU3U/alhDE8R6UoZhK6vdsIyESRO61I4os9NkoNjzbKiJGPUhyys7Pa9jYkVScwnih11izxOIpNj/d5x51LiwepVkuK+fFRmGEHfPdbRBM7c0dpqoqBm3d8wrt2n5TXbf/MR2JPZzB8rfiGQSkRy6PjJrUA3dzTNK7LIJhQn3/8wvd+5v+67ddnlHVhIrkvctrkwY6Bc0sSI5+LVE+DXIr/E/3fQl0jhGMtgCl6nH2Ne7Esnqlu2mbqLY9+hvuVtNOtKtqGF7wuvB8Zo1q1m+Osdtc8rcOOR/F0bKq66cexbuP5EMyqhHlVMzcCPlLHXlfGV1jckk6Pbs0sTYx74/9u9AJLVbkxaVKyvKr4+YlFlbGjtdZ2WoaviUFT22JPIZ+ixxkqy7NfgcXXd1W2ojDGUXGt+VmZmYG+l+11h3T0UyOLceexKPWJGcvqkuKQtXTilycdRM33+l2LRChvKp16pcJi0+hqxJva5Qx2um9bVTi+yW2ZE4KBbrOzbJ0Di+hiVi69abv3sqkhr7u31OqRvbrm7dYXfN7Sz43SmL1srOym9yJkqGSuPmmpR338IKJ37BOTItkhpn1sTB4Px6lIlbXBj53kv8ZMB1v2FmiWk4Sd3Jg9bUmCb+pZpVH3vOgfY3IhknknJKUzvEQiJZULct6V3jWuq+kAO7dmbEgWVKJB/sEEllqRprSgbduo6uGH2RYl9PVyQ1fjVtS6RBLk4iknL7zy6vtqWlrabxPomtsgKJjrpidesPIql6PPr61oKLilvcTEyNpWqSgsrpnLtse5oiqaxdXX9qRMZ3ZEYV6kmIabSnd0ycKqjfZpolqmvzwvIqN97mE0l1N45YX2drKtusrHGbWyag8uqu7k7d0hXJdOLRHZHU7GvdNAnthhQiqXHhIO6aiHL6CH/WpSUP4zY32MbqrVYeF4dg3Ht/i+S1U4pcd7Hq/dSyqk7rGmO/h6n+1vjlSUPzXPf6BeMK7IUV1c5ESJCujVkCEnzHfd2tI9ZExiS7292abDMBiaR6C3TTJCxlqCq72jKtwRSDGguubN5u2lBB6zplEuKz3lT1zfbXEMk4kdSY4KwOaATOrt1d32+cXeoazoEqkpp6r5mFaqjUTazZbq8VNtn0jfU2eUOdTe8Yn9rfIqkp/tNyG90ECGmhJhwsK2oyZUOTNtTZ0sJma+2YGZpOJrmmamt07EfrGLV1nhqQ5ztmJGqNo0RT5mrCpnrHhBoIzVjUpIlkIvnXsfluJqRe15o4jT0uyGu0KRvqXGzXVUS2GUxHJNONR6ZEUlu9FdRHugw14UuZvTLFZI3mrbPLrKRxmzOemrktMZyX12BTtGvWhjor7sjc96dIXjyuwCpbtrvvwdB1tW6yXbK69PQ5iWawo4+W3gTvX1kRGcMdsTr5xB1N7NJN3e4yb8H74h+D7taeiKTOoclAF40vcBO1tDRNE4uUGGh29Yy8xoSejfjPHSj/RyTjvrRaQ6fZabppe7eeXOiBKJJq1AavqXXLUNT4v7CiKrqoOYjNsa9GdjLa3yKpCTK6uW69VTUJ4zTXTCu2iqZIN2lvRVJ1DyaiaAKWJns9t6LaNaASPC26D+LjE0nFNpgspZ4JTTZSlhq8T3+r2163dEQy3XhkQiTVfa9daWSqNEtbk5mCesU/KpPWGkzdNNnpr0n2F52bG9lScn+J5Dkjt5h6B2S+1FvQk7W2ys602YC6kX1jh1M3R8ZsNYM6iM+cwsgSkGm5SZaADM6xRfmNrjwPL63ymg+dKx2RVJl1jzU12ij96dcqXQ+SrpXWxAZlHciPiGScSOpiD+sYk9y9e0905mp3IBiIIqmZu6+VRrIZzWpLFgfVW7f9LZKa1KGb1o/GLksIyqyurEyK5B2zSp0IaO3p44srbGlpZAKEsoLgM/XoE0mJkQREmZM2h4h9j/6WSGpGrm7piGS68eitSGp50P+WV7uuYtVv9Prk45pBfbVQP+iyv2Xm3kX5wet63F8iKZHQDlOaVavrpDWCPqGLLW/s3xoP1u4+ur2SZDmHrrN29JGhmJIXWVup92v7O4nyxpr2hG5dLQdTdq5u39uSTMSL/fyeiqR2V3p1ZbWNX1+XsJuPJvUMWl3rxt3jZ8HHfuZA+huRTCKS+u1Dwafbq2tqOm3vFlx8waIxJ20/Fjw3EEUy1uWvKmuJ1jWosx6vm1HsYrW/RVK7luimHY+0fCK2jNqiTzOSNcaiWyYySU220XITTdQprG9359bft83qPDHKJ5KaFKbuK7f+L2YReVBudf1r/aBuXYmksvngfcFjuvHojUhq1upNs0pNS0PUwKvx7+p3RO+cr6U7kbW22sIxKH/wePSQzba+o9t5X2eSp43Y4gROXY2arayxeYlasntQ3tNH5tnV00vcmlc9p5g8uazK9TIU1W9zwhOM/WkOhBbya0mXOHg4ZlmFxE1x0RrKhxZVROOoeD66uNKxo/Hb2DHxoAyxjz0VSXG35PU1wTI4wzfUue0Fg/NJ8MfmNDjmZyTZ5CA4biA9IpJJRFLbx62uaHOTcqo0g21eWadtoTTDTRMStBPKyPV1pt00BMVAFMmTh+a5STBqqDWTUftOBl0wmgqvBlFffN00ZqlNvYMvyL5eArKyLLK+VF2Xt87e+2suaqT+Nb3EVlVoE4bIxJ0XkswsDsod/xjMbo0dkwyO0SJ7nVGCoEfFIr4rzieSF4zJt227IuO8ykLPGrV3kpYmRjy9rMpN4lFstaWZ+Ao+V48vrq51297p9UuSrMlNNx69EUktQlc3tGKhnodk62pj66C/tYVjbccmEJotHLt2WD9HpS3jlMXppnPG7iQVf66e/j/V7FaNFT63PLJbkgRDk8FGbKxPeh+yts7tMSvzrK0ENfN1afFeU3ne2HzTdnwyUaqDxhGfXlFtQ9fVmXbCET9Lipvt5BhzJyEeuyHyU2vlzdtt5IZ6956xmxqcidekrmeWVyVsDRgfg56KpARc3x9NJNKkK83R0LZ6Kq+2TlTWr6U/Gr6I/6yB+H9EMolI6kJr/Zu2nlObKlg0vvLSqmobtKLapmxpdJNC9MWZntvgNgrXewaiSOoL8+RrVdFZluri0RqpsTn1bv9ZNQb64uumeDy4ZO/C50yI5PKKVptX3Oy9a7bdOR3r5m6aUeIaUwlhadN2t8epJkJobEfb0al8HUW1sWu6v3NLKpE8Z0y+48MFQBnqsr31DxoMn0iqQV1cFBn/Vhah2Yz6PdNxOQ22oqLNNVBqPHXTpJ7fx22irU2uNU1ft/VVbW5RuRaBqytOn51uPHojktr8IuBBmezswmY3xq9x/vi7fiBc5Tx9RJ7bTEF11VIZmRnFYFJuo9vOUT0UwTm1v7GWIAWx7e1jKpHUuOq8jhnfLsgp/lG2p4xOvQva31isaaOIoHz6Hv15bIFN39zg1hPrdZlKPcoATdxY12nHm+B9Wu87fE2tO0bHihPFSSIlrpTZBcf6HnsqkjqP26VqXpn7qbfgc/XZMiva/ODu+eUJZtD3+dn+PCLpEUlBrcZCmwjrJjA1IUN3NcJ6nJ3f5Lpcg8xqIIqkAFf3jhxt0GCr/m75i/ZG3bHbnlpcYfXtkW7M0Rv2LmzOhEhKIyRsvruWyQTrVCU6L6hba0ek607lVTn1KDHR8hi5dt3WlEc2BujOFziVSLqlM5sb3DnVZXZmTDYYnNsnknpdzKztWAOoukoMXGzN3EQR7eai3zvULX4h+KnDct3m13pN8VFjpkkl2hhC5043Hr0RyWACTlAmxd531649Kqe+P5dPKHSNr3tfxz67ioVisrFyqw1fG9ldRst5Ynd1CmKc7qO6qfUTesm2dVO5ZDj0elf344fqV3ciM0zFhH6S64RXO2/bpvPpc07UBuMzS9xGJdrgQlv9BZuhJ6uHeib+MGKL3TizxO5fUOZ+TEDcxPdYJHuvnpNwq/yqa1DG4Fhlq0Edf9OxIXvwmt6nXZ70c2EPzC+3++aVu79VP70WHDfQH0MlkppQMG5NtY1eXW03ebaMir/gGsR+aEG521dT69i0Afi0zQ32r2lFdtiLnUHRsVrTpM+4dGLy6e7nj9piQ1dU2pjV1XbdxM4Le/XZglYLfnUObTYQP7YWlE+/bK5jnorbOeaeWSXu+eeWVJga0eD4v4/Pd88Pea3Czh+duFZNX7i7Zkfeq19fD94X+6g1YjPzGm11ZZvrOtI6LWUBMhQqh8rzyLwyO74jk9E5n1pY5p6/fWZkn9jY8/n+vn5qsbtGOl9X95eWVXaapKNGQDNLtcOLMhLNPB23oc510WnnF+1uo3O+uiIx4/OV5/mlle49jy8qT/hZMDV8F44rcNfz4bmlphmA8ee5bnKhjVpdZSNXVdnfxiTGXt16D8wvM/2e4JrKre4XMp5bWmlHaa9g/QrMssjn35RkK70/DMuzsetrXV1XlrfZo0sqopmkypFOPP4wLNeeXRy5nnd5vieaGBXEUePWQZ2fWBCJb1fXTa/fOaNzd50aX3WDa5KMvmvay1azYiUgWoak94xaVe1mawafx+Pe2dDEom9iESqRBKK+gYi4ElcYgIGBygAi6eluHagXnHrRmMEADMBA9xlAJBHJaFcZX5zuf3GIFbGCgXAwgEgikogkDMAADMCAhwFE0hMYXGI4XCLXmesMAzCQigFEEpHEQcIADMAADHgYQCQ9gUnlLHgN5wkDMAAD4WAAkUQkcZAwAAMwAAMeBhBJT2BwieFwiVxnrjMMwEAqBhBJRBIHCQMwAAMw4GEAkfQEJpWz4DWcJwzAAAyEgwFEEpHEQcIADMAADHgYQCQ9gcElhsMlcp25zjAAA6kYQCQRSRwkDMAADMCAhwFE0hOYVM6C13CeMAADMBAOBhBJRBIHCQMwAAMw4GEAkfQEBpcYDpfIdeY6wwAMpGIAkUQkcZAwAAMwAAMeBhBJT2BSOQtew3nCAAzAQDgYQCQRSRwkDMAADMCAhwFE0hMYXGI4XCLXmesMAzCQigFEEpHEQcIADMAADHgYQCQ9gUnlLHgN5wkDMAAD4WAAkUQkcZAwAAMwAAMeBhBJT2BwieFwiVxnrjMMwEAqBhBJRBIHCQMwAAMw4GEAkfQEJpWz4DWcJwzAAAyEgwFEEpHEQcIADMAADHgYQCQ9gcElhsMlcp25zjAAA6kYQCQRSRwkDMAADMCAhwFE0hOYVM6C13CeMAADMBAOBhDJbBbJFzbaD++fZd+/dZR975YR3IkBDOx3BkbaIXeMt58++RqZWTa3rTFlRyRjgpEtzvDnz66x71w32N7//V/bQe94j73p7e/iTgxgoN8w8G476COftM+ceqX98P6ZiGUWtrGxWoBIZtEF/MXzG+wH9061jx56ih148JvtgAMO4E4MYKAfM3DQO99rX/nLvfazp5bZL1/ciGBmUXsbCCUimSUXTQL5vZuG2Xu/8gMaxX7cKGJcMG7xDBz8rvfZZ0+63H7y6EJEMkva20Ag9YhIZslF09jj+77zKwQSgYSBLGTgze/5oH3xnJvt58+sRiizpM0NhBKRzJIL9rnTrrID3nQwDWQWNpDxmQX/D2e2+daPfMZNrAoaXx6zY3YsIpkFIvnDB+bYQe98HwKJQMJAljPwqeP+SiaZBW1urIFBJLPggn39sodpHLO8cSR7DGf2GH/d3/Dud9vPnl6JUGZBuxsIJSKZBRfrw4ccgUgikjAwQBjQBLygAeax/3e5IpJZIJIHvvvDNJADpIGMzyz4f/gyzG9d8zwimQXtbmBgEMksuFgHHsSaSMQkfGIyUK/5t65+DpHMgnYXkcyii4RIIhADVTDCWC9Esv93sQYCqUcyySwQS0QSkQyjmAzUOiOSiCRdCRkWXkQSkRyoghHGeiGSiCQiiUgy0YiJRjDgYQCRRCQRSUSSBtLTQIYxc6LOnXtCEElEEpFEJBFJRBIGPAwgkogkIolI0kB6Gkiyqs5ZVRjjgUgikogkIolIIpIw4GEAkUQkEUlEkgbS00CGMXOizp2zZ0QSkUQkEUlEEpGEAQ8DiCQiiUgikjSQngaSrKpzVhXGeCCSiCQiGSKR/MQnPmFXXHFFp/vf//53O++88+z73//+PhHLX/7yl3b11VfbN77xjX3yef29YR9o8TjhhBPsmmuusS984QsD4voikogkIhkikfzJT35iTU1Nne6NjY1WU1NjOTk59vDDD9tXvvKVPm3cHnnkEdNn3nfffT36nIMPPth+/OMf2+mnn24f//jHe/Te/iyUAy0eU6dOddf3yiuvHBDXCJFEJBHJEInkL37xC9OtsLAwmk1ef/31NmjQIKusrLRt27bZE088YR/4wAf6rIH705/+ZOPHj3eC1xPxeve73+3KVl1dbb/5zW/6rHw9KVMmjh1o8VAWOWnSJPvWt741IK4RIolIIpIhFMlFixYlNGDf/va3rby83PLy8uxXv/pVp9eVxX34wx82ddd+7GMfs7e//e2dXg/E4q1vfat99KMfdcd96EMfsje96U32/ve/34nuG9/4Rveed77zne5cb3vb2zqd4y1veYt95CMfce9Vpvie97zHgve8613vct13L774ojU0NNhpp53mznHggQe6Y4LPeMc73uE+X+8Pzh+UQWXX/YMf/KCpPkGZ9fje977XPa+yqdw6TueKPSb2b32uyqRY6FjVWXWPPUZ/v+ENb+h0nOr35jd3/im1TMcjtgw6t2KhMqpevnqr7KpPcKxMkuIWey79revxvve9L3qcYhlco+BYxVKs6HoGz+kxliF9jo5THGOP6Y9/I5KIJCKJSLqGSpnazJkzraqqyo477rho4yUB+POf/2zqRlu7dq0tXrzYbr75ZvvSl74UPUaN26c//Wk31rhgwQJbs2aNyyZOPfVUe+6552zIkCGuodZxF198sU2ePNl+//vfR9+vRlzP6/PXrVtny5cvtyeffNI0XqfGVuOms2bNsoKCAtuxY4etWLHCpk+f7oRUDe7jjz9ugwcPtptuusnmzp1rS5cutaOOOsoJtMbIXnnlFVem1atX29ixY+2Pf/yje6/KIzG49957bdiwYXbbbbe5LFf11DHJGm019srIH3zwQfc5Onb+/Pn2z3/+0/7v//6v03t+9KMfuS7s1157zcVuzpw5dumll7pYBefOdDx0XgnxN7/5TfvPf/5jy5Ytc3VX9q6sVYYi+Oy7777b1fuSSy6x+++/3x2r+igWytZjhe6ggw5yMZVRWblypauPzqn4xp9zypQpnYyW4hLLkK6vuDj88MP7vVAikogkIolIukZTmZsETtnk0Ucf7Z5TY/vYY4+5rlgJj7pl582bZ+3t7TZ8+HD77Gc/G33v888/b1u3brXNmzfbiBEjbNq0aW6cU+OPRUVF9sUvftEdq3HP7du32+WXX+7+rwb2rrvustraWtdIP/PMM05g1a2qBv7//b//ZxdeeKGNGjXKnVsiqTKoIVe2+PnPf96JqsZa9Z6NGzeaxOiUU06xv/3tb65redOmTfbss8+aypibm2ulpaV2/vnnOzFR4y8BVtllEPS6RM0nkhLuVatWWUlJiaunxFyNvj7/oYcechmbREgiJTHReO+ECRNc7GQA9DlPPfWUyZTouEzHQ9nZD3/4Q2c4KioqbNy4cSZh27Bhg6u34h70BMj4tLW1OfOh6yszodjpOQn/IYcc4sqocip7Vy+Duup1fV999VUrLi5255TIKo46TufcuXOnnXnmme7/yirFkOKjuD799NPuWirWKtMPfvCD6Gfo/f3tjkgikogkIukaJmVrEjR1xX73u991z8n9q3FTI68GUw3e17/+dZfF1dXVORFSo6YGsb6+3gnMYYcdZp/61Kdcpvmvf/3Ldu3alVIkf/rTn7qsRA3wz372M5eVSPjuuecea2lpsTvuuMN11371q191QqMy6vOUfeqzA5GU8D7wwAOm80mgJBTKWCXaJ510kjuHugcvuOACJ4bKRFWfQCTVsEsklEF95zvfca8la7DVyJeVlbms9ZOf/KTrNlRDv2XLFmcKfv3rX7tyaWKSBP2ll15yZkKfpeMkrhLpYFw1XiR7Gw/V8X//+58zHcpuZWTU1aoYyCzIeChmqpsETddHBkTZsbqPFbsZM2aYru8ZZ5zhjpOgy3yo3DIeqrcyeBkGjWUvXLjQxSw4Z6xIHnvssU4MZRgUV3XXKrOUcMowKKNMFuf+8hwiiUgikiEUSQmaGkbdx4wZ44RRYqgsUsIYjF0pw5Io/eUvf3Hja0HDpW4yNYTKnPTco48+6gRBMzVjx5k0rqesM1UmKVFV9pafn2+f+9znog3mZz7zGdewa0auzqlMVxmYyv7b3/42elwgkspwNPtV44Aqk7JgNeYS7KA+el5doBILdStKaAORVBYq8Y0tf1Df2EcJicqm8b7geZ1fGZjiJzHS88pcFSOJQDA+quePOOIIO/nkk6NZeLxI9jYemp2seMrsfO1rX4uWUWOA+qzW1tZOgiYxVKYe1FtjjDfeeKMTMBkKlVlxkeAPHTq0U130mrJUcXLkkUe6Y+MzSY11qis+MDV6j+7KPjW+PHv27GgZg9f60yMiiUgikiEUyd27dzvxkoApA9uzZ49r4H/3u991arDU6Mvtq3tT2UVwV6MoARg5cqTL/NT1qXMqa4hv4NSNmkokNZlFXawqi7omJ06c6MYn1ajGTh7pSiQlDEEGHJRBDb5EVt2s6kpWt6i6+JShquszViRjBS54f7JHibCyszvvvNOJgzIzZUkSG3VvSgD1PomxhFczhtevX+9m5ipbk3gHgqTj4kWyt/FQtiYh1PitrlNwzfQoc6DrpLFi1UOCpjJqrDKoq8qmtbQqt8yRnlfWJ066s2wnXiT1fl1HmQeNYWpMW9dBpkjCqzHk4LP74yMiiUgikiEUSY0/KcvTXRNwJBhqWM8999xODZaySDVk6gpVAxt/13icuhGVjUpo1VUY39B1JZI6Xt1vyl40DqZxLn2uuiU1oUbZoI7pqUhq0okaeXWNSqTVZawJRBJhZaPpiqS6cSW0Ehdlj+qi1XlV3liRVJnVHanuVmWtGoOTOEtQJVISSx0TL5K9jcf3vvc9Z2Ak2upqjr9m+r/GayWG3RXJF154wYmkJgKpfKnu8SKp7lX1AIgvddmOHj3axUSZroQYkcwuEfplhtvLTJ/vgEyfkPNlHtADD+o8xT9Vg7KvXwvWScYvAdEMS2VympWo7smgXGr41birUdeYYPxdAqYsQSKhsa2zzjor+t7gHBK8VJmkhFrdlxr30l3dkdqRR1lQc3OzaR2nMsKeiqTG1jTLVqKgGZhB9qYMT411uiKpCUkSyOuuu86NR6qeQZdtrEgqNhJ/dbVq0pK6LJWJqYtRpuPnP/+5i1W8SPY2HsokFTdNrpFpib9m+r9iqXJ3VyQ1C1ZmSWUNrmvwqDqqizf2nLFjkjJeipfGLbXMKHifmJNZQSQz3waFuV1HJPu5ixGc2SiSGjdSI6ZGSxN4gpmKEgRlABKq2K5PCY4a+WDqvybZqDtOyzCCRlCPX/7yl93zqURS2Za6bTX+FWRXEsWzzz7bdb+qIVd5JKDKXH1jkvHdrcr4JFqavBNkoyqTPk/ZaroiqexM92Dijc6pMUnNeI0VSS1LUTe0ZucGMdF6RMVZIvaPf/zDPR8vkr2Nh2Ku3ZNUP312MEarMkjQZB6CMdruiqTGoJX16fj4sUXVUzOdZcA5jwsGAAAgAElEQVT0GTomViSvuuoql0GryzaIgx6vvfZa9zwiiUhmUtQRSUSyU0MT2+h0529fJqn3auKFsj41WoHjP/74493sVmVeF110kZuZKMH597//7boNNeFD75VgakxPGYPGs9SFe+ihh7psRmNgqURSk3AkWvoMZaJanqDJOOqi01IETQqSQCvD0lIRNdY33HCDy86CYzXGFS+SGp+UWCgblvBLPLSlnbpbJej6PNUlyAK7OyapsU3FSeXSbFXFTbNJVVbN9FRXpmIi4VD2paUS6gKVEdGYrWKhsddgnWi8SPY2HpqgozWP6trVmlCJrkyHMmh1/UrEgqU73RVJibu6lmVQdG6JrWa3yjwpM5aZCpb4xIukurzV9asu6hNPPNFNGrrsssucqRAbimd32N1fxzAmmV0ijkgikr1qUFKJpDI1jS1qoo66O9VNKHHSxgFqCCUCEhI18Oqa1YQVTYpR46VGWNuR6b26q1GUkEj8JEipRFKfq0X8Ol4Nu7Kx4DO0ri6YoamMSOs31VCrLPoMdR0Gs1vjRVKipLIrawuO19/qPpaYSTw167KnIqmNFmQGJNaKi2YFq9zKLvX/oMtZM3XV3SuhVFn1mTpW3dIS2CCbixfJ3sZDcdLm8VofqWuhuKquKpv+1gzkYNvB7oqkrrGW/qg+qrfqH1wjGZFjjjkm2p0dL5LqvldZlF0q/rp+ipcm7ui6yKzsLwHszucikogkE3cyLLz9ubtVoqLMRqKUrIGQIKnLVOKitXU6RkKpTDFY5K8GL1i7GH8OZUpaJqBsTesJg/ExzbQMxjo1RqUxTO2IE/v+YGccNbL6jFtuuaXTzjQ6VlmSdqzRLEndJXKaDaoMUzvgBBlScF4Jvbpt1e2p8VbtS6t1jNp8++WXX3bbyal+mjSkrlx10Qbv9T3KEGg9pyazaI9STdxR9qfZm/o7WAqh9+vztQuQ6qPPV2w0vht77kzHIzi3TILG/dSVrc9WfbUhgMoUHKN1rLpOQVepnldXusyIss5gzWdwvLJHsaP6qO4S++C6Bscou9T1VYyC53Tdbr311uh10+dqqYsMgo4NjuuPj4gkIolIhkgk+6oRUlakn9qKFSk1tup6VCa1ZMmS6HhjX5WB86aedUp80osPIolIIpKIZK+dvLo8NXFFGaRmcWq8TRmSxDEYQ6SRTq+RJm77N26IJCKJSCKSvRZJjXFpSYTGpzT2prWJGofTNmbqUtMuNTT2+7exJ/7pxR+RRCQRSUQyIwKm2aca89R4lma4ahcXzTDVYnIa6PQaaOK2/+OGSCKSiCQimVER0+xKjUfqTiO//xt5rkHvrgEiiUgikogkYtbFVmsITe+EJpvjh0gikogkIolIIpIw4GEAkUQkEUlEkgbS00BmcwZE2TOT/SKSiCQiiUgikogkDHgYQCQRSUQSkaSB9DSQZGOZycayOY6IJCKJSCKSiCQiCQMeBhBJRBKRzLBIHvSOyG/1ZbN7puxkUDAQYeBb1zxPG5nhNjKTP40Vfy5+BSQLLtZHfth5424aGwQHBrKXge/dMgKRzIJ2NxBLRDILLtZX/3Y/XVeerivEInvFIozX7s0f+Lj97MnXEMksaHcRySy6SD9+ZIG99f3sVRrGRpU6DywT8Onj/4pAZlHbK6Ekk8yGC/bCRvv8GdeSTZJNwkAWM/DWj37GDrlzHCKZDW1uTBkRyZhgBOl1f3z8yaOL7IP/70h7w4FvpKHM4oaSzHBgZYbdvZ764fQvnn2T/eLZtYhklrS5gQ4gktlywV7YYBrwf/93DrMDD34LQolQwkA2MPCGN9ib3vk++79jL7KfPLYYgcyW9jamnIhkTDAC59BfH3/x/Ho75Pax9onf/NHe+v6P0khmQyNJGUPN6bu/dIh97qwb7acIZNYaBEQyi0QyEO+fPLbIvvH3x+2TR59v7/36T+3gd/L7it3t9uK4cHZ37rPrfvCb7S0f+6x95KfH2WdO+YcdcvsY+zldrFkrkGpzEcksFElduF+8sNF+9tRy++H9s9wX8Xs3DTPuxAAG9jMDt4ywQ+6eZD95dKH9/JnVWS0OgSkP+yMimaUiGXZwqX92be3F9eJ6ZSsDiCQiiduFARiAARjwMIBIegKTra6HcuPYYQAGYCBzDCCSiCQOEgZgAAZgwMMAIukJDE4sc06MWBJLGICBbGUAkUQkcZAwAAMwAAMeBhBJT2Cy1fVQbhw7DMAADGSOAUQSkcRBwgAMwAAMeBhAJD2BwYllzokRS2IJAzCQrQwgkogkDhIGYAAGYMDDACLpCUy2uh7KjWOHARiAgcwxgEgikjhIGIABGIABDwOIpCcwOLHMOTFiSSxhAAaylQFEEpHEQcIADMAADHgYQCQ9gclW10O5cewwAAMwkDkGEElEEgcJAzAAAzDgYQCR9AQGJ5Y5J0YsiSUMwEC2MoBIIpI4SBiAARiAAQ8DiKQnMNnqeig3jh0GYAAGMscAIolI4iBhAAZgAAY8DCCSnsDgxDLnxIglsYQBGMhWBhBJRBIHCQMwAAMw4GEAkfQEJltdD+XGscMADMBA5hhAJBFJHCQMwAAMwICHAUTSExicWOacGLEkljAAA9nKACKJSOIgYQAGYAAGPAwgkp7AZKvrodw4dhiAARjIHAOIJCKJg4QBGIABGPAwgEh6AoMTy5wTI5bEEgZgIFsZQCQRSRwkDMAADMCAhwFE0hOYbHU9lBvHDgMwAAOZYwCRRCRxkDAAAzAAAx4GEElPYHBimXNixJJYwgAMZCsDiCQiiYOEARiAARjwMIBIegKTra6HcuPYYQAGYCBzDCCSiCQOEgZgAAZgwMMAIukJDE4sc06MWBJLGICBbGUAkUQkcZAwAAMwAAMeBhBJT2Cy1fVQbhw7DMAADGSOAUQSkcRBwgAMwAAMeBhAJD2BwYllzokRS2IJAzCQrQwgkogkDhIGYAAGYMDDACLpCUy2uh7KjWOHARiAgcwxgEgikjhIGIABGIABDwOIpCcwOLHMOTFiSSxhAAaylQFEEpHEQcIADMAADHgYQCQ9gclW10O5cewwAAMwkDkGEElEEgcJAzAAAzDgYQCR9AQGJ5Y5J0YsiSUMwEC2MoBIIpI4SBiAARiAAQ8DiKQnMNnqeig3jh0GYAAGMscAIolI4iBhAAZgAAY8DCCSnsDgxDLnxIglsYQBGMhWBhBJRBIHCQMwAAMw4GEAkfQEJltdD+XGscMADMBA5hhAJBFJHCQMwAAMwICHAUTSExicWOacGLEkljAAA9nKACKJSOIgYQAGYAAGPAwgkp7AZKvrodw4dhiAARjIHAOIJCKJg4QBGIABGPAwgEh6AoMTy5wTI5bEEgZgIFsZQCQRSRwkDMAADMCAhwFE0hOYbHU9lBvHDgMwAAOZYwCRRCRxkDAAAzAAAx4GEElPYHBimXNixJJYwgAMZCsDiCQiiYOEARiAARjwMIBIegKTra6HcuPYYQAGYCBzDCCSiCQOEgZgAAZgwMMAIukJDE4sc06MWBJLGICBbGUAkUQkcZAwAAMwAAMeBhBJT2Cy1fVQbhw7DMAADGSOAUQSkcRBwgAMwAAMeBhAJD2BwYllzokRS2IJAzCQrQwgkogkDhIGYAAGYMDDACLpCUy2uh7KjWOHARiAgcwxgEgikjhIGIABGIABDwOIpCcwOLHMOTFiSSxhAAaylQFEEpHEQcIADMAADHgYQCQ9gclW10O5cewwAAMwkDkGEElEEgcJAzAAAzDgYQCR9AQGJ5Y5J0YsiSUMwEC2MoBIIpI4SBiAARiAAQ8DiKQnMNnqeig3jh0GYAAGMscAIolI4iBhAAZgAAY8DCCSnsDgxDLnxIglsYQBGMhWBhBJRBIHCQMwAAMw4GEAkfQEJltdD+XGscMADMBA5hhAJBFJHCQMwAAMwICHAUTSExicWOacGLEkljAAA9nKACKJSOIgYQAGYAAGPAwgkp7AZKvrodw4dhiAARjIHAOIJCKJg4QBGIABGPAwgEh6AoMTy5wTI5bEEgZgIFsZQCQRSRwkDMAADMCAhwFE0hOYbHU9lBvHDgMwAAOZYwCRRCRxkDAAAzAAAx4GEElPYHBimXNixJJYwgAMZCsDiCQiiYOEARiAARjwMIBIegKTra6HcuPYYQAGYCBzDCCSiCQOEgZgAAZgwMMAIukJDE4sc06MWBJLGICBbGUAkUQkcZAwAAMwAAMeBhBJT2Cy1fVQbhw7DMAADGSOAUQSkcRBwgAMwAAMeBhAJD2BwYllzokRS2IJAzCQrQwgkogkDhIGYAAGYMDDACLpCUy2uh7KjWOHARiAgcwxgEgikjhIGIABGIABDwOIpCcwOLHMOTFiSSxhAAaylQFEEpHEQcIADMAADHgYQCQ9gclW10O5cewwAAMwkDkGEElEEgcJAzAAAzDgYeCAIwbnEBxPcHBjmXNjxJJYwgAMZCMDB2yq3mpPL620E17NRSwRSxiAARiAARiIYeAA67ht3bHbFhc22bXTiu2YV3LtiJdy7NCYA7PRAVBmnCsM/P/2zvQ5rupM4/xL83W+GRswmNWEJQ4hUGYCYU1gYKgJEEgCKYYJzhCYCQkDZLxItmVb3vcNydgWlm0sG2vpbrW61a1Wq9Vq9b4/U6eZZlRlG7T0cpffB5dUcve95zz3Oe/vvOfe+x48gAfwwFI88B0k67AsV6oajee0+espvXQooEe2e7ViPSIvRWS+i3/wAB7AA/b0wDWQrMPS/EzkyroQTOnj/km9ejigB7aMkF2SXbMUgwfwAB5wjQe+F5J1YJarVYVnCzo1ltR/90f13N5RLSe7dI1JmAHbcwbMdeO64YGle2BekKzDslqVzL3LcLKgU4GUPvwyrNU88AMsmVXjATyABxzqgQVBsg5L87MqyWSYM7mSDg/H9dwesktmbUuftaEhGuIBPGAlDywaknOBaX4vVaryTGX1SV9Ej+zw6Z7NI1qxnncwrXSxaQvBBw/gATywMA80DJJzoTmbK6vHN6v3ToX19F6/7u4cZinCoUsRDLiFDTj0Qi88YC8PNAWSdWDmSxX54zntHZqpAfPJXT6toMIPEwYmDHgAD+ABm3igqZCsw9L8nM2XNTSV1Z6huN4+MU52aRODMOu116yX68X1wgON9UDLIFkHprl3mcyX5Y3n1X15Wia75KI29qKiJ3riATyABxrjgZZDsg7L+s9Ktaqrkxmt6w3r3s0jWs7DPkwayLLxAB7AAxbxQNshWYel+TmVLurwUFwvHhrTT7Z7dccmHvhhNtiY2SA6oiMewAOL8YClIFkHZrFS1VA0q41fT+nXR4O1+rFU+MHgizE438E3eAAPLMUDloRkHZaVqhTPlPTVeEqfX5zS60cCuquD7HIpF5zvEjDwAB7AA/P3gKUhWYel+ZkvVzSZKupcKK1P+ye1ttunm6kfy30Li9y3IOjMP+igFVrZyQO2gWQdmKYcXqFcVTxbUl8gqbePB3UzD/sAS2CJB/AAHmiCB2wHyTos5/6czpS083JMT+0Z1Z0dwxQsaIJR7DTzo61kKngADzTKA46AZB2YZoeSgXBaH56Z0C/2+vXA1hGWZAEms2s8gAfwwKI94ChI1mFpfkZSRZ30JrTuzISe3+fndRIGyaIHSaNmpByH7AYP2M8DjoVkHZgmu/RN53TAk9AHpyf0020egiXAxAN4AA/ggXl5wPGQrMPSVPZJ5cvyz+S1f3hGbxwJ6PZNbOXFzNZ+M1uuGdcMD7TOA66BZB2W5me1+u3+l4FEXh3no1q9ZWReMwqM2TpjojVa4wE8YAUPuBKSc4Fpfi+UK+oPpvSHkyE9vM2rVR3DWsZSBBMHPIAH8IDrPQAk5xCzXKkqlMhr5zfTev34uJ7Y6dNtG1mStcJsjjaQVeABPNAODwDJOZCc+2uqUNZgJKOOgZjeOjGuH3d5eJ2EWbXrZ9XtCFKcEzi20wNAci4Zr/O7qR9rdic5H06rcyCmlw+MaRnl8IAFEwY8gAdc4QEgeR0wXu9Pc8vhDUxm9ElfRA938TpJO2d4nJsMAw/ggWZ7AEhej4jz/JtZkv1ydLaWXZp7l2znxYBt9oDl+HgMD7TWA0BynkD8vo+ZV0r88Zw6L0b19D6/Huzy6JYNPPDDYG7tYEZv9MYDjfcAkPw++i3w/8ySbDJf1lfBlD7qi+ilg2NavZl3MBm4jR+4aIqmeKA1HgCSCwThfD9erFQVThR0wjerj/om9fy+UV4n4UEHVzzoQPBuTfBG59boDCTnS70lfC5drGhsJq/jvlmt6w3rXrJLYMGEAQ/gAVt4AEguAX4L/ap5nSRXqmgyXdSR4Rm9sHeUyj4EClsECrKW1mQt6Gw9nYHkQknXwM+bCj/eWE4fn41ozXZvbTuvm3kHE2gwccADeMAyHgCSDYTeUg4Vz5b0pS+ht06EtHaXT3d3Uj+WWbX1ZtVcE66J2zwAJJdCtiZ812SXZv/L7qtxvdMT0tqdPpZkmVVbZlbttgBJf5kUAMkmgK4RhzT3L2dzJV2OZNT1TVy/Pz7O6yTAEljiATzQYg8AyUYQrcnHKFWqMsuxV6JZbbk0pad2j1Ldp8UDhYyCjAIPuNMDQLLJgGv04U2GWShXaxnmBz0hrdw0zMwSYOIBPIAHmuQBINloirX4eDPZkg4OxWvVfX601UPBgiYNFLIId2YRXHeuO5BsMdSadbp8qaKhyYw+Px/Vi4cCemSbVyuoH8vsmkkDHsADS/IAkGwWtdp43FimqL5AUn/rj+qVQwHd2cGSLBkBGQEewAOL8QCQbCPMmn1qk12OJwrqHUvp03OTemKnb0kzqsUYjO8QmPAAHrCzB4Bks0llgeObrbxMObxIqqhef1JvnxjXKrJLJgwsw+EBPPCDHgCSFoBYO5owmSpq75WY1nR5avcuKYfHbN/Os33ajn+b5QEg2Q5CWeicpsLP1+G0/nx6Qmt3jeq+zSNU+GF2/YOz62YFJI4L7KzmASBpIWC1synlqmSyyyMjCb3dE9aze0d54AdYAks84HoPAMl2ksmi5zb3L72xrHYPzei93rAe3e4Vy7HM8K02w6c9eLIVHgCSFgWVFZpVqVaVyJU0NJXVrsG4fnMkoFt499L1M+tWBCbOAQCt4gEgaQUa2aAN5t5ltliRL57TpgvRWrECq5iYdhBQ8QAeaJYHgKQNAGXFJmaKFfUHknrzWFB3bx7Ryo1DPPDD/SuybDzgOA8ASSsSyGZtCs0WtPubaf3L4YB+usNL/VgCpeMCZbOyFI5r/QwYSNoMSFZubrpQ1qVwWp9fmNIbx4J6uMtDsASYeAAP2NoDQNLK1LFp28z9y6l0UWeDKX1+cUr/fMCv2zcN2XqgMOO3/oyfa8Q1aoYHgKRNQWSXZpv6seb9y7PjKX3SF9HqzSPAkswCD+AB23gASNqFNjZvZ1WSeaXEPCHb45vVqwfHtHw9M99mzHw5Jr7CA43zAJC0OXzs2nyzJBuYyWvD+age3+mrlcNj/8vGDWyCJFrigcZ4AEjalTIOaneyUK69TvKn0xN6dp9fq7eMUOGH5TjbLMcBo8bAyKo6AkkHwcbuXSlVqgom8jrsSehPZyJ6Zs8oS7LAEljigbZ6AEjanSwObL+5f5kqlOWN5XTAk9D7vSE9uJUHfqw606Zdzs6k3H59gaQDIeOkLpmHfcz7l6Mzee29Gtfze0ep7ENm0dbMwu3QcFv/gaSTiOKSvninc/r0bKR273L5esrhuS1o0V8y11Z6AEi6BCxO66ZZkjU7lJzwJvTG8aAe7fay/yUZJhkmHmi4B4Ck0+jhwv4Uy1X5p3Paejmm146P6/Fun25lS6+GB4tWzt45F9miVTwAJF0IFSd32WSXX4fT6hiI6a3jQd3dOQwsyC7wAB5YtAeApJOJ4eK+mezS1I+9OJHRxotTenbPKO9eEigXHSitktXQjtZn2EDSxSBxS9cNMBO5ci3DfL8npFWbyC4Jtq0PtmhuT82BpFtIQT+/UyCeLenocFzP7fXrzs5h3cL9SzIssmw8cAMPAMnvQie/uE0BU+Hn6mRGn56b1PP7x/RQl0fLKLpOsLxBsCQTtGcmuNTrBiTdRgb6e40C1aoUSxf1pX9WH/RF9NLBMd3DAz/AEljigf8ZFJC8JmTyBzcrYO5fmt1Jjvpm9Z9nI1rb7eOBH2ABLFzsASDpZiLQ9xsqUKmqVg4vOFvQUV9C754c1x088AMsXAyLpS5b2vX7QPKGYZL/QIFvFTDLseb+5WSqqO0DMT3W7aV+LLBgwuASDwBJSIACC1QgX67oykRaf+wN6+FtXt3VOcySrEsCpl2zIdq9+IeOgOQCAyQfR4G5Cpjs8tDwjH73RUg/3z2q21mSJcNiwuAoDwDJuRGP31FgkQpkihUNR7PqujKtd74I6WfbvbxOAiwcBQu3ZqNAcpFBka+hwPUUMA/8mGIFA5GMtl2Z1q+PBHjgB1gCSxt7AEheL9LxNxRogALflsMr6Uo0q00XolrT5SFY2jhYujWTcnu/gWQDgiGHQIH5KFCuVHUumNJvjwVr9WOXU92HSQOTBst7AEjOJ7rxGRRooAJmSTY0W9COyzE9s8+vH2/zaOXGIcsHC7dnFPR/8U+I2lk7INnA4MehUGChCuRKFV0Kp/VJf1SvHA7ooa0eXichu2LCZCEPAMmFRjU+jwJNUMAUK4gkCzo1ltRf+6N6+cCYbiO7BBYWgoWds8GltB1INiHgcUgUWIoC2WKlthxrgPnRmYjWbPNQ4QdYMGFokweA5FKiGd9FgSYqYMrh5UsVRdNFnfQl9MpBP4GyTYFyKZkI37X3vUwg2cQgx6FRoNEKBBJ5bTo/qce6fVrVMSyekLV3AAag1r9+QLLRUYzjoUALFEjmyzo7ltS7PSH9fM+o7ts8wpIsWSYrDU3wAJBsQUDjFCjQLAXK1arGE3ntH5rRu71hPbV7lAd+mhAoyfisn/E16xoByWZFL46LAi1UoKpv978cjGa1czCu93pCWr15hMwCYOKBJXoASLYwkHEqFGiFAuZ1ktlcSd54Xju+mdZL+/26ZQPFCpqVaXBcZ2eZQLIVUYtzoECbFDDVfcz+lyOxrP5yZoJi60vMKgCis4F4vesLJNsUvDgtCrRDgXSxoh5vorY7yQNdntr+l8sAB0uSeOCGHgCS7YhUnBMF2qyA2aHEG8up81JMrx4J6mc7vFrBkuwNA+X1Mgz+5o6sEki2OVhxehRotwIz2ZIujqf02YVoLcO8nwd+gCWZ5XceAJLtjlCcHwUsokCpXNVEsqAzwZT+fj6qX+wZ/S5QkDW5I2viOl97nYGkRQIUzUABqyhQL4cXy5R0djyt/+gN655OXicBINcCxA2aAEmrRCbagQIWViCRK+ngYFxP7vbp1g1DbOfFcqRrVhmApIUDE01DAaspUKxUNRzN6G99ET2xe1T3bxnRivW8g+mGjMqtfQSSVotCtAcFbKCAqfATz5T0hW9W75+e0Av7/bqzY9g12YVbgeHGfgNJGwQkmogCVlYgV6poLJ7TwZGE1p2e0D/t9JFdshzrmAkTkLRy9KFtKGAzBczuJJ7pnA6MzOj3J8ZrxQrcmH3QZ+c85AMkbRaEaC4K2EEBsztJtlhRcLag7oGY1nb7HJNZAEDnAHA+1xJI2iHi0EYUsLkCpsLPwERa/94T0gNbTTm8Ifa/ZEnWFhMnIGnz4EPzUcBuCkRSRR0aitfK4T3W7aPoOrC0NCyBpN0iDO1FAYcokC9VNBjNqGMgpjePj+uR7R6yS4BpOWACSYcEHLqBAnZVwNy/nM4UdT6U1oZLMb1+JKBVm3idZD73y/hM8++PAkm7RhbajQIOVKBQriqWLuriREafnZvUo9u9ZJdkl23NLoGkAwMNXUIBJyhQqVaVKVbUP57Sm0cCWkZln7bCwq1ZK5B0QjShDyjgAgUiyYK2DcT0zD6/Vm8Z0S3sfwk0W5BlA0kXBBe6iAJOUiBdKOtSKK0Pz0b0woExPbjVQ8H1FsCCTNJJo4i+oAAKuEIBs//lSd+sPuqb1C/3+7VyI8XW3QqzZvWbTNIVoYROooBzFTDF1k11H388r6MGmGcmtGabh6VIssuGeABIOjd20DMUcJ0ClaqUKVQ0nizo0EhC/3oooNvILhsCi2ZlalY/LpB0XRihwyjgHgVMlhlI5LWxf1L3bh7Rig2Uw7M6lKzWPiDpnnhBT1HA1QrkihWdHUvqD1+E9Gi3T3d3DvMOJkuyP5hlA0lXhw06jwLuU6BUqSo4k9euq3G9eTKkJ3f7WJIFljeEJZB0X4ygxyiAAv+nQLJQ1tXJjLquTNf2v3xoK/Vjrbbc2e72AEnCBQqggOsVKFeqimWKGohktO3ytH61389SLNllLbsEkq4PDwiAAihQV8A86GOWY03BgqvRrD4+E9GPtozccCmu3VkO56fAed27/EQBFECBtiiQyJXV403oxf1juqtzWLfySomrJg1kkm0ZdpwUBVDAbgpUq5J3OqeOi1P65cGxWsEC6sc2P5Nrd7YMJO02UmkvCqBAWxUwsEzkSuoLJvWXc5N69XBA921mSbbdMGvW+YFkW4cbJ0cBFLCzAsVyVeHZgnrGkvrruUk9s2eU3Ukc9sAPkLTzCKXtKIACllCgXj82ZIDpT2pdT0h3bBp21b27ZmVy7T4ukLTEEKMRKIACTlHAANO8UpLIl3VoKK6nd48CSxtnl0DSKSOTfqAAClhSAbMkOxzN6r/ORGrl8O7tHNHy9c5/4KXdGWCjzg8kLTmsaBQKoIATFTAFC075EnqnJ6Sn9oxSP9YGGSaQdOJIpE8ogAKWVqBQrsoby2nX4IzeOxXW2p0+lmQtCkwgaemhRONQAAWcrIDZ/3I2V9JgNKvuwRn97vi47unkdZJGLZU24jhA0skjkL6hAArYRgFTDm82X9ZwLKeuS1N6fIeX7NIC2SWQtM0QoqEogGt88poAAAJoSURBVAJuUqBSqerKREZ//CKkVR3DWr6eDaMbkRku9BhA0k2jjr6iAArYTgFT4SeWLmrfYFwvHwroJ9u9Wkn92JZl2UDSdkOGBqMACrhVgVyxosHJjP5+YUqvHgnqke1eXidp8pIskHTraKPfKIACtlZgKl3UV8GUPjfAPBTQyk1DLcuuFrpkaefPA0lbDxMajwIo4HYF8qWKJpIFnR1P6bNzkzzw0+DMEki6fYTRfxRAAUcoYMrhmfcvp7MlnfYn9ebRIPcuGwBMIOmI4UEnUAAFUOBaBcLJgnZfjumxbl/tCdkVG1iSXejSL5C81lf8BQVQAAUcpUCuVNH58ZT+fHpCT+/16/4tFCyYLyyBpKOGAp1BARRAgRsrYHYniSQLOuJJ6N++nNDz+0a1ii29vveBJyB5Yz/xPyiAAijgWAWyxUqtfuz+kYTWnQprzTaPljXgHt58MzS7fA5IOnYI0DEUQAEU+GEFTHaZzJfli+e1b2hGrx0eE/cu/38rMyD5wx7iEyiAAijgCgVMdZ9ipapgIq/1/VE9uNXzvUuRdskGl9JOIOkK69NJFEABFFi4AqlCWX1js/rNsaAe7PLUnpB125IskFy4b/gGCqAACrhOgcBMXju/mdZrx8b1eLdPt7rkdRIg6Tqr02EUQAEUWJwCpmCBuX95KZzW+ksx/fbEuB5y+JIskFycV/gWCqAACrhaAfPAj9mdpD+U1savp/Sr/X7d5sDdSW7q7e0V/9AAD+ABPIAHFuOBnt5eHTvZo92HT+jtjfv1j2916h9e73DMv5tuuukm8Q8N8AAewAN4AA9c64H/Bf2UKdpPI91kAAAAAElFTkSuQmCC;" vertex="1" parent="WIyWlLk6GJQsqaUBKTNV-1">
          <mxGeometry x="30" y="240.5" width="106.37" height="179" as="geometry" />
        </mxCell>
        <mxCell id="XFqM0QsjCBA94ZdpaxJI-15" value="" style="edgeStyle=orthogonalEdgeStyle;rounded=0;orthogonalLoop=1;jettySize=auto;html=1;" edge="1" parent="WIyWlLk6GJQsqaUBKTNV-1" source="XFqM0QsjCBA94ZdpaxJI-12" target="XFqM0QsjCBA94ZdpaxJI-14">
          <mxGeometry relative="1" as="geometry" />
        </mxCell>
        <mxCell id="XFqM0QsjCBA94ZdpaxJI-12" value="&lt;font style=&quot;font-size: 9px;&quot;&gt;Se presiona el botón &#39;Registrar asistencia&#39;&lt;/font&gt;" style="shape=trapezoid;perimeter=trapezoidPerimeter;whiteSpace=wrap;html=1;fixedSize=1;rounded=1;glass=0;strokeWidth=1;shadow=0;" vertex="1" parent="WIyWlLk6GJQsqaUBKTNV-1">
          <mxGeometry x="320" y="300" width="120" height="60" as="geometry" />
        </mxCell>
        <mxCell id="XFqM0QsjCBA94ZdpaxJI-17" value="" style="edgeStyle=orthogonalEdgeStyle;rounded=0;orthogonalLoop=1;jettySize=auto;html=1;" edge="1" parent="WIyWlLk6GJQsqaUBKTNV-1" source="XFqM0QsjCBA94ZdpaxJI-14" target="XFqM0QsjCBA94ZdpaxJI-16">
          <mxGeometry relative="1" as="geometry" />
        </mxCell>
        <mxCell id="XFqM0QsjCBA94ZdpaxJI-18" value="No" style="edgeLabel;html=1;align=center;verticalAlign=middle;resizable=0;points=[];" vertex="1" connectable="0" parent="XFqM0QsjCBA94ZdpaxJI-17">
          <mxGeometry x="-0.3381" relative="1" as="geometry">
            <mxPoint as="offset" />
          </mxGeometry>
        </mxCell>
        <mxCell id="XFqM0QsjCBA94ZdpaxJI-14" value="&lt;font style=&quot;font-size: 9px;&quot;&gt;Ya hizo la checklist?&lt;/font&gt;" style="rhombus;whiteSpace=wrap;html=1;rounded=1;glass=0;strokeWidth=1;shadow=0;" vertex="1" parent="WIyWlLk6GJQsqaUBKTNV-1">
          <mxGeometry x="340" y="430" width="80" height="80" as="geometry" />
        </mxCell>
        <mxCell id="XFqM0QsjCBA94ZdpaxJI-20" value="" style="edgeStyle=orthogonalEdgeStyle;rounded=0;orthogonalLoop=1;jettySize=auto;html=1;" edge="1" parent="WIyWlLk6GJQsqaUBKTNV-1" source="XFqM0QsjCBA94ZdpaxJI-16" target="XFqM0QsjCBA94ZdpaxJI-19">
          <mxGeometry relative="1" as="geometry" />
        </mxCell>
        <mxCell id="XFqM0QsjCBA94ZdpaxJI-16" value="Se activa la cámara y se escanea el QR de la unidad" style="rounded=1;whiteSpace=wrap;html=1;glass=0;strokeWidth=1;shadow=0;" vertex="1" parent="WIyWlLk6GJQsqaUBKTNV-1">
          <mxGeometry x="500" y="440" width="120" height="60" as="geometry" />
        </mxCell>
        <mxCell id="XFqM0QsjCBA94ZdpaxJI-22" value="" style="edgeStyle=orthogonalEdgeStyle;rounded=0;orthogonalLoop=1;jettySize=auto;html=1;" edge="1" parent="WIyWlLk6GJQsqaUBKTNV-1" source="XFqM0QsjCBA94ZdpaxJI-19" target="XFqM0QsjCBA94ZdpaxJI-21">
          <mxGeometry relative="1" as="geometry" />
        </mxCell>
        <mxCell id="XFqM0QsjCBA94ZdpaxJI-19" value="Verifica el tipo de unidad, corta, larga, etc.&amp;nbsp;" style="rounded=1;whiteSpace=wrap;html=1;glass=0;strokeWidth=1;shadow=0;" vertex="1" parent="WIyWlLk6GJQsqaUBKTNV-1">
          <mxGeometry x="500" y="580" width="120" height="60" as="geometry" />
        </mxCell>
        <mxCell id="XFqM0QsjCBA94ZdpaxJI-21" value="Checklist:&lt;br&gt;Muestra las preguntas para el tipo de unidad" style="rounded=1;whiteSpace=wrap;html=1;glass=0;strokeWidth=1;shadow=0;" vertex="1" parent="WIyWlLk6GJQsqaUBKTNV-1">
          <mxGeometry x="500" y="720" width="120" height="60" as="geometry" />
        </mxCell>
      </root>
    </mxGraphModel>
  </diagram>
</mxfile>
